<svg width="72" height="72" viewBox="0 0 72 72" fill="none" xmlns="http://www.w3.org/2000/svg">
<path d="M36.9502 45.7839C36.5148 45.1645 35.487 45.1645 35.0515 45.7839L32.9477 48.7722L29.8257 49.8135C29.4444 49.9413 29.156 50.2568 29.0631 50.6497C28.9702 51.0406 29.0864 51.4509 29.3728 51.7374L31.3548 53.7174V56.9032C31.3548 57.2864 31.5444 57.6445 31.858 57.8613C32.1735 58.08 32.576 58.1245 32.9341 57.9871L35.9999 56.8045L39.0657 57.9871C39.2012 58.0393 39.3425 58.0645 39.4838 58.0645C39.716 58.0645 39.9444 57.9948 40.1418 57.8613C40.4573 57.6445 40.6451 57.2884 40.6451 56.9032V53.7174L42.627 51.7355C42.9115 51.4509 43.0277 51.0387 42.9367 50.6477C42.8438 50.2548 42.5554 49.9393 42.1741 49.8116L39.0522 48.7703L36.9502 45.7839ZM38.6631 52.4168C38.4444 52.6335 38.3225 52.9277 38.3225 53.2374V55.2116L36.418 54.478C36.2825 54.4258 36.1412 54.4006 35.9999 54.4006C35.8586 54.4006 35.7154 54.4258 35.5819 54.478L33.6773 55.2116V53.2374C33.6773 52.9277 33.5554 52.6335 33.3367 52.4168L32.3419 51.4238L34.0431 50.8568C34.2793 50.7793 34.4825 50.6264 34.6257 50.4232L35.9999 48.4703L37.3722 50.4213C37.5135 50.6245 37.7186 50.7774 37.9528 50.8548L39.6541 51.4219L38.6631 52.4168Z" fill="#CAB48C"/>
<path d="M40.6451 32.5161H18.5806V34.8387H40.6451V32.5161Z" fill="#CAB48C"/>
<path d="M53.4193 37.1614H18.5806V39.484H53.4193V37.1614Z" fill="#CAB48C"/>
<path d="M54.5806 0C47.911 0 42.1123 3.77226 39.1858 9.29032H1.16129C0.520645 9.29032 0 9.81097 0 10.4516V59.2258C0 59.8684 0.520645 60.3871 1.16129 60.3871H29.0323V70.8387C29.0323 71.309 29.3148 71.7329 29.7484 71.911C30.1819 72.091 30.6813 71.9903 31.0142 71.6593L36 66.6735L40.9858 71.6593C41.2064 71.88 41.5045 72 41.8064 72C41.9555 72 42.1084 71.971 42.2516 71.911C42.6852 71.7329 42.9677 71.3071 42.9677 70.8387V60.3871H70.8387C71.4794 60.3871 72 59.8684 72 59.2258V17.4194C72 7.81548 64.1845 0 54.5806 0ZM54.5806 2.32258C62.9052 2.32258 69.6774 9.09484 69.6774 17.4194C69.6774 21.0794 68.3671 24.4355 66.1936 27.0523V26.7097C66.1936 22.7594 63.36 19.4613 59.6206 18.7335C60.811 17.4832 61.5484 15.7955 61.5484 13.9355V11.6129C61.5484 7.76903 58.4226 4.64516 54.5806 4.64516C50.7368 4.64516 47.6129 7.76903 47.6129 11.6129V13.9355C47.6129 15.7955 48.3484 17.4832 49.5406 18.7335C45.8013 19.4613 42.9677 22.7594 42.9677 26.7097V27.0523C40.7942 24.4355 39.4839 21.0794 39.4839 17.4194C39.4839 9.09484 46.2561 2.32258 54.5806 2.32258ZM36 41.8064C30.2381 41.8064 25.5484 46.4942 25.5484 52.2581C25.5484 52.651 25.5735 53.0381 25.6161 53.4194H10.3045C9.88258 51.7897 8.59742 50.5026 6.96774 50.0826V19.5948C8.59935 19.1729 9.88452 17.8877 10.3045 16.2581H37.2194C37.1942 16.6432 37.1613 17.0265 37.1613 17.4194C37.1613 18.6116 37.2832 19.7768 37.5116 20.9032H19.7419C19.1013 20.9032 18.5806 21.4239 18.5806 22.0645V29.0323C18.5806 29.6729 19.1013 30.1935 19.7419 30.1935H42.7781C45.8865 33.0658 50.0245 34.8387 54.5806 34.8387C58.5039 34.8387 62.1174 33.5187 65.0323 31.32V50.0826C63.4006 50.5026 62.1155 51.7897 61.6955 53.4194H46.3839C46.4264 53.0381 46.4535 52.651 46.4535 52.2581C46.4516 46.4942 41.7619 41.8064 36 41.8064ZM36 60.3871C31.5174 60.3871 27.871 56.7387 27.871 52.2581C27.871 47.7774 31.5174 44.129 36 44.129C40.4826 44.129 44.129 47.7774 44.129 52.2581C44.129 56.7387 40.4826 60.3871 36 60.3871ZM56.9032 20.9032C56.9032 22.1845 55.8619 23.2258 54.5806 23.2258C53.2994 23.2258 52.2581 22.1845 52.2581 20.9032H56.9032ZM59.2258 13.9355C59.2258 16.4961 57.1413 18.5806 54.5806 18.5806C52.02 18.5806 49.9355 16.4961 49.9355 13.9355V11.6129C49.9355 9.05226 52.02 6.96774 54.5806 6.96774C57.1413 6.96774 59.2258 9.05226 59.2258 11.6129V13.9355ZM49.9471 21.0194C50.011 23.5258 52.0587 25.5484 54.5806 25.5484C57.1026 25.5484 59.1503 23.5258 59.2142 21.0194C61.8658 21.5555 63.871 23.9013 63.871 26.7097V29.2935C61.3064 31.3045 58.0858 32.5161 54.5806 32.5161C51.0755 32.5161 47.8548 31.3045 45.2903 29.2935V26.7097C45.2903 23.9013 47.2935 21.5555 49.9471 21.0194ZM40.68 27.871H20.9032V23.2258H38.1774C38.7755 24.9097 39.6213 26.4716 40.68 27.871ZM2.32258 11.6129H38.1774C37.9084 12.3677 37.6742 13.1381 37.5116 13.9355H9.29032C8.64968 13.9355 8.12903 14.4561 8.12903 15.0968C8.12903 16.3781 7.08774 17.4194 5.80645 17.4194C5.16581 17.4194 4.64516 17.94 4.64516 18.5806V51.0968C4.64516 51.7394 5.16581 52.2581 5.80645 52.2581C7.08774 52.2581 8.12903 53.2994 8.12903 54.5806C8.12903 55.2232 8.64968 55.7419 9.29032 55.7419H26.1581C26.4503 56.5684 26.8355 57.3484 27.3174 58.0645H2.32258V11.6129ZM36.8206 64.2116C36.3658 63.7568 35.6323 63.7568 35.1794 64.2116L31.3548 68.0361V61.6064C32.7561 62.3052 34.3297 62.7097 36 62.7097C37.6703 62.7097 39.2439 62.3071 40.6452 61.6064V68.0342L36.8206 64.2116ZM69.6774 58.0645H44.6845C45.1645 57.3484 45.5497 56.5684 45.8439 55.7419H62.7097C63.3503 55.7419 63.871 55.2232 63.871 54.5806C63.871 53.2994 64.9123 52.2581 66.1936 52.2581C66.8342 52.2581 67.3548 51.7394 67.3548 51.0968V29.2219C68.2413 28.2639 69.0232 27.211 69.6774 26.0729V58.0645Z" fill="#CAB48C"/>
</svg>
