<svg width="81" height="82" viewBox="0 0 81 82" fill="none" xmlns="http://www.w3.org/2000/svg">
<path d="M1.35053 81.9999H66.1505C66.8971 81.9999 67.501 81.3897 67.501 80.6353V68.3591H76.95C77.6966 68.3591 78.3005 67.7489 78.3005 66.9962V53.3554C78.3005 52.6026 77.6966 51.9908 76.95 51.9908H67.501V39.7146C67.501 38.9603 66.8971 38.3501 66.1505 38.3501H63.673C63.8632 37.458 63.6619 36.5275 63.1213 35.7971L57.0218 27.581L59.8385 25.446C61.0892 24.4995 61.7882 22.9828 61.7011 21.4052L61.5663 18.9484C61.5299 18.2821 61.8247 17.6415 62.3525 17.2411L65.1693 15.1077L66.355 16.7045C66.569 16.9928 66.8892 17.185 67.2427 17.2363C67.3061 17.2443 67.3695 17.2507 67.4329 17.2491C67.7245 17.2491 68.0099 17.153 68.2429 16.9768L79.3816 8.5332C81.1696 7.17825 81.5326 4.6125 80.1916 2.8059L79.4418 1.7937C78.0992 -0.0112991 75.5614 -0.376462 73.7718 0.976884L62.6347 9.41888C62.0387 9.87053 61.9182 10.7258 62.3652 11.3296L63.5509 12.9248L60.7341 15.0597C59.4835 16.0062 58.7844 17.5229 58.8716 19.1005L59.0063 21.5574C59.0444 22.2236 58.748 22.8643 58.2201 23.2647L55.4033 25.3996L49.3022 17.1834C48.6634 16.3105 47.6267 15.8285 46.5552 15.9069C45.5328 15.9822 44.6181 16.5812 44.1331 17.4941L33.0404 38.3501H1.35053C0.603933 38.3501 0 38.9603 0 39.7146V53.3538C0 54.1081 0.603933 54.7183 1.35053 54.7183H10.7995V65.63H1.35053C0.603933 65.63 0 66.2402 0 66.9946V80.6337C0 81.3897 0.603933 81.9999 1.35053 81.9999ZM75.3902 3.15825C75.9862 2.705 76.8327 2.82833 77.2797 3.43053L78.0294 4.44273C78.4765 5.04493 78.3544 5.89858 77.76 6.35183L67.7008 13.9754L65.331 10.7818L75.3902 3.15825ZM24.3 68.3591H43.1995V79.2708H24.3V68.3591ZM35.0995 54.72H53.9989V65.6316H35.0995V54.72ZM64.8 79.2708H45.9005V68.3591H64.8V79.2708ZM75.5994 65.6316H56.7V54.72H75.5994V65.6316ZM64.8 51.9908H45.9005V44.0485L59.7196 41.0792H64.8016V51.9908H64.8ZM46.5108 18.7866C46.5568 18.6905 46.6519 18.6296 46.7565 18.6264L46.7834 18.6248C46.9277 18.6264 47.0608 18.6985 47.1417 18.817L53.2412 27.0332L47.6727 31.255C47.0751 31.7067 46.9546 32.5619 47.4016 33.1657C47.8486 33.7679 48.6951 33.8896 49.2927 33.438L54.8628 29.2162L60.9624 37.4324C61.0591 37.5525 61.0876 37.7142 61.0369 37.86C61.0052 37.9609 60.9196 38.0345 60.8166 38.0538L34.0327 43.8099C33.8662 43.8355 33.6998 43.7635 33.6031 43.6241C33.4953 43.4928 33.4731 43.3102 33.5476 43.1564L46.5108 18.7866ZM31.4442 45.2609C32.1638 46.2603 33.3986 46.7376 34.5938 46.4782L43.201 44.6283V51.9908H24.3V41.0792H31.5868L31.1683 41.8656C30.5898 42.9546 30.6976 44.2824 31.4442 45.2609ZM2.69947 46.5342H5.39894C6.14554 46.5342 6.74947 45.924 6.74947 45.1697C6.74947 44.4153 6.14554 43.8051 5.39894 43.8051H2.69947V41.0776H21.6005V51.9892H2.69947V46.5342ZM13.4989 54.72H32.4V65.6316H13.4989V54.72ZM2.69947 68.3591H21.6005V79.2708H2.69947V68.3591Z" fill="#CAB48C"/>
<path d="M17.5508 45.1712C17.5508 44.4185 16.9469 43.8066 16.2003 43.8066H10.7997C10.0547 43.8066 9.44922 44.4169 9.44922 45.1712C9.44922 45.9256 10.0532 46.5358 10.7997 46.5358H16.2003C16.9469 46.5342 17.5508 45.924 17.5508 45.1712Z" fill="#CAB48C"/>
</svg>
