<svg width="57" height="68" viewBox="0 0 57 68" fill="none" xmlns="http://www.w3.org/2000/svg">
<path d="M56.9336 19.1786L56.9323 19.1262C56.9036 18.4824 56.884 17.8019 56.8722 17.0443C56.8173 13.3501 53.8836 10.2945 50.193 10.0878C42.4954 9.65726 36.5418 7.14607 31.4549 2.18257L31.4118 2.14069C29.7528 0.61749 27.2492 0.61749 25.5902 2.14069L25.547 2.18257C20.4602 7.14607 14.5066 9.65726 6.81026 10.0878C3.11964 10.2945 0.18466 13.3501 0.131059 17.0443C0.119293 17.7967 0.0996825 18.4772 0.070921 19.1262L0.0683063 19.2479C-0.0820377 27.1034 -0.26768 36.8786 3.00067 45.7522C4.79695 50.632 7.51753 54.8731 11.0866 58.3605C15.1511 62.3308 20.4759 65.4832 26.9119 67.73C27.1211 67.8033 27.3381 67.8622 27.5603 67.9067C27.8728 67.9695 28.1879 68.0009 28.5016 68.0009C28.8167 68.0009 29.1318 67.9695 29.4429 67.9067C29.6639 67.8622 29.8835 67.802 30.094 67.7287C36.5222 65.4779 41.8404 62.3242 45.9023 58.354C49.47 54.8666 52.1906 50.6241 53.9895 45.743C57.2683 36.8433 57.0827 27.0485 56.9336 19.1786ZM50.3028 44.3821C46.8567 53.7346 39.8219 60.1572 28.7971 64.0162C28.7579 64.0293 28.716 64.0411 28.6729 64.0503C28.5592 64.0725 28.4428 64.0725 28.3278 64.0503C28.2846 64.0411 28.2428 64.0306 28.2036 64.0176C17.167 60.1651 10.1283 53.7464 6.68475 44.3939C3.67264 36.2139 3.8439 27.2395 3.99425 19.3225L3.99555 19.278C4.02562 18.5976 4.04654 17.8857 4.05831 17.1018C4.08315 15.4609 5.38787 14.1039 7.02989 14.0123C11.3846 13.7689 15.2112 12.9261 18.7267 11.4369C22.2382 9.94907 25.3562 7.85271 28.2585 5.02745C28.4062 4.90314 28.5971 4.90183 28.7448 5.02745C31.6484 7.85271 34.7664 9.95038 38.2766 11.4369C41.792 12.9261 45.6186 13.7689 49.9734 14.0123C51.6154 14.1039 52.9201 15.4609 52.945 17.1018C52.9567 17.8896 52.9776 18.6015 53.0077 19.278C53.1567 27.2042 53.3228 36.1864 50.3028 44.3821Z" fill="#CAB48C"/>
<path d="M28.5 17.804C19.3016 17.804 11.8184 25.2943 11.8184 34.5016C11.8184 43.7089 19.3016 51.1993 28.5 51.1993C37.6985 51.1993 45.1817 43.7089 45.1817 34.5016C45.1804 25.2943 37.6971 17.804 28.5 17.804ZM28.5 47.2669C21.4678 47.2669 15.7456 41.5405 15.7456 34.5016C15.7456 27.4627 21.4665 21.7363 28.5 21.7363C35.5322 21.7363 41.2531 27.4627 41.2531 34.5016C41.2531 41.5405 35.5309 47.2669 28.5 47.2669Z" fill="#CAB48C"/>
<path d="M33.294 29.3181L25.5454 37.0741L23.4419 34.9686C22.6745 34.2004 21.4312 34.2004 20.6638 34.9686C19.8977 35.7367 19.8977 36.9812 20.6638 37.748L24.1557 41.2433C24.5388 41.6267 25.0421 41.8191 25.5441 41.8191C26.0461 41.8191 26.5494 41.628 26.9325 41.2433L36.0695 32.0975C36.8356 31.3294 36.8356 30.0849 36.0695 29.3181C35.3047 28.5486 34.0601 28.5486 33.294 29.3181Z" fill="#CAB48C"/>
</svg>
