<svg width="72" height="68" viewBox="0 0 72 68" fill="none" xmlns="http://www.w3.org/2000/svg">
<path d="M71.8608 37.2328C71.2139 30.8419 68.31 24.8172 63.6806 20.2673C59.7248 16.3794 54.8831 13.882 49.7883 12.7707V9.26016C51.8695 8.75154 53.4164 6.90089 53.4164 4.69919C53.4164 2.10772 51.2719 0 48.6352 0H38.5102C35.8734 0 33.7289 2.10772 33.7289 4.69919C33.7289 6.89951 35.2758 8.75016 37.3556 9.26016V12.7818C32.2777 13.8972 27.4514 16.3919 23.5069 20.2687C22.6434 21.1173 21.8475 22.006 21.1191 22.932C21.0839 22.9293 21.0487 22.9265 21.0122 22.9265H10.9927C10.2164 22.9265 9.58641 23.5457 9.58641 24.3086C9.58641 25.0715 10.2164 25.6907 10.9927 25.6907H19.2066C18.1758 27.3866 17.3433 29.1695 16.7105 31.0036H1.40625C0.63 31.0036 0 31.6228 0 32.3857C0 33.1486 0.63 33.7678 1.40625 33.7678H15.9173C15.5123 35.5162 15.2789 37.2963 15.2184 39.0806H9C8.22375 39.0806 7.59375 39.6998 7.59375 40.4628C7.59375 41.2257 8.22375 41.8449 9 41.8449H15.2634C15.3816 43.6347 15.6741 45.4135 16.1409 47.1577H7.03125C6.255 47.1577 5.625 47.7769 5.625 48.5398C5.625 49.3028 6.255 49.9219 7.03125 49.9219H17.0395C18.4191 53.5085 20.5748 56.8698 23.5083 59.7529C28.1405 64.307 34.2773 67.1624 40.7869 67.7941C41.7164 67.8839 42.6445 67.9281 43.5741 67.9281C49.0612 67.9281 54.4795 66.3677 59.0766 63.4252C59.7277 63.0092 59.9119 62.1523 59.4872 61.5124C59.0625 60.8724 58.192 60.6914 57.5409 61.1088C47.4778 67.5494 34.0017 66.1562 25.4967 57.7972C15.518 47.9897 15.518 32.0305 25.4967 22.2216C35.4755 12.4141 51.7134 12.4141 61.6922 22.2216C70.1859 30.5696 71.6105 43.8047 65.0798 53.6896C64.6566 54.3295 64.8422 55.185 65.4933 55.6011C66.1458 56.0171 67.0163 55.8346 67.4381 55.1947C70.9284 49.9137 72.4992 43.5338 71.8608 37.2328ZM36.5414 4.69919C36.5414 3.63219 37.4245 2.76423 38.5102 2.76423H48.6352C49.7208 2.76423 50.6039 3.63219 50.6039 4.69919C50.6039 5.76618 49.7208 6.63415 48.6352 6.63415H38.5102C37.4245 6.63415 36.5414 5.76618 36.5414 4.69919ZM40.1681 12.3063V9.39837H46.9758V12.3008C44.7159 12.0368 42.4294 12.0382 40.1681 12.3063Z" fill="#CAB48C"/>
<path d="M62.6878 57.3923C62.3166 57.3923 61.9551 57.5402 61.6936 57.7973C61.4306 58.0544 61.2816 58.411 61.2816 58.7744C61.2816 59.1379 61.4306 59.4945 61.6936 59.7516C61.9551 60.0101 62.3166 60.1566 62.6878 60.1566C63.0577 60.1566 63.4191 60.0101 63.682 59.7516C63.9436 59.4945 64.0941 59.1379 64.0941 58.7744C64.0941 58.411 63.9436 58.0544 63.682 57.7973C63.4191 57.5402 63.0577 57.3923 62.6878 57.3923Z" fill="#CAB48C"/>
<path d="M43.5937 18.5686C31.5647 18.5686 21.7786 28.1867 21.7786 40.0093C21.7786 51.8319 31.5647 61.4501 43.5937 61.4501C55.6228 61.4501 65.4089 51.8319 65.4089 40.0093C65.4103 28.1867 55.6242 18.5686 43.5937 18.5686ZM43.5937 58.6858C33.1158 58.6858 24.5911 50.3075 24.5911 40.0093C24.5911 29.7112 33.1158 21.3328 43.5937 21.3328C54.0731 21.3328 62.5964 29.7112 62.5964 40.0093C62.5978 50.3075 54.0731 58.6858 43.5937 58.6858Z" fill="#CAB48C"/>
<path d="M52.4897 29.3118L45.5246 36.1574C44.9424 35.8741 44.2871 35.7151 43.5938 35.7151C42.9005 35.7151 42.2466 35.8755 41.6644 36.1574L38.5468 33.0947C37.9969 32.5542 37.1068 32.5542 36.5583 33.0947C36.0085 33.6337 36.0085 34.5086 36.5583 35.049L39.676 38.1131C39.3877 38.6853 39.2246 39.3294 39.2246 40.0108C39.2246 42.3783 41.1849 44.305 43.5938 44.305C46.0041 44.305 47.9644 42.3783 47.9644 40.0108C47.9644 39.3294 47.8013 38.6867 47.513 38.1131L54.4782 31.2675C55.0266 30.7285 55.0266 29.8536 54.4782 29.3132C53.9297 28.7728 53.0396 28.7728 52.4897 29.3118ZM43.5938 41.5394C42.7346 41.5394 42.0371 40.8525 42.0371 40.0094C42.0371 39.1649 42.7346 38.4794 43.5938 38.4794C44.453 38.4794 45.1505 39.1663 45.1505 40.0094C45.1519 40.8538 44.453 41.5394 43.5938 41.5394Z" fill="#CAB48C"/>
<path d="M58.6307 38.6438H57.3271C56.5509 38.6438 55.9209 39.263 55.9209 40.0259C55.9209 40.7888 56.5509 41.408 57.3271 41.408H58.6307C59.407 41.408 60.037 40.7888 60.037 40.0259C60.037 39.263 59.407 38.6438 58.6307 38.6438Z" fill="#CAB48C"/>
<path d="M29.8618 38.6108H28.5596C27.7833 38.6108 27.1533 39.23 27.1533 39.993C27.1533 40.7559 27.7833 41.3751 28.5596 41.3751H29.8618C30.638 41.3751 31.268 40.7559 31.268 39.993C31.268 39.23 30.638 38.6108 29.8618 38.6108Z" fill="#CAB48C"/>
<path d="M43.6121 27.8938C44.3883 27.8938 45.0183 27.2747 45.0183 26.5117V25.2305C45.0183 24.4676 44.3883 23.8484 43.6121 23.8484C42.8358 23.8484 42.2058 24.4676 42.2058 25.2305V26.5117C42.2058 27.276 42.8358 27.8938 43.6121 27.8938Z" fill="#CAB48C"/>
<path d="M43.5769 52.125C42.8007 52.125 42.1707 52.7442 42.1707 53.5071V54.7869C42.1707 55.5499 42.8007 56.1691 43.5769 56.1691C44.3532 56.1691 44.9832 55.5499 44.9832 54.7869V53.5071C44.9832 52.7428 44.3546 52.125 43.5769 52.125Z" fill="#CAB48C"/>
<path d="M1.40625 47.155C1.03641 47.155 0.673594 47.3029 0.412031 47.56C0.150469 47.8171 0 48.1736 0 48.5371C0 48.902 0.150469 49.2572 0.412031 49.5143C0.673594 49.7714 1.03641 49.9193 1.40625 49.9193C1.77609 49.9193 2.13891 49.7714 2.40047 49.5143C2.66203 49.2572 2.8125 48.9006 2.8125 48.5371C2.8125 48.1736 2.66203 47.8171 2.40047 47.56C2.13891 47.3029 1.77609 47.155 1.40625 47.155Z" fill="#CAB48C"/>
</svg>
