<svg width="66" height="68" viewBox="0 0 66 68" fill="none" xmlns="http://www.w3.org/2000/svg">
<path d="M14.8702 27.8324H20.1161C21.5493 27.8324 22.7148 26.6849 22.7148 25.277V20.1168C22.7148 18.7073 21.5493 17.5615 20.1161 17.5615H14.8702C13.4389 17.5615 12.2751 18.7073 12.2751 20.1168V25.277C12.2751 26.6849 13.4407 27.8324 14.8702 27.8324ZM14.969 20.216H20.0209V25.1743H14.969V20.216Z" fill="#CAB48C"/>
<path d="M61.6503 37.1167C61.0056 37.1167 60.3572 37.253 59.7682 37.5222C59.3138 36.102 58.2327 35.19 56.9953 34.8093V6.26698C56.9953 2.81208 54.138 0 50.6269 0H6.36833C2.85731 0 0 2.81208 0 6.26698V9.80156C0 11.4626 1.37208 12.812 3.05665 12.812H4.36947V62.6928C4.36947 64.3539 5.74155 65.7032 7.42792 65.7032H43.0751C45.4367 67.2137 48.0139 68 50.6341 68C52.0906 68 53.5579 67.7574 55.009 67.2598C58.1375 66.1902 60.9337 63.9519 62.8823 60.9592C64.9476 57.7841 66.0251 53.8794 66 49.6719V41.5668C66 38.6467 63.8126 37.1167 61.6503 37.1167ZM7.06335 62.6928V12.812H19.4049C20.1484 12.812 20.7518 12.217 20.7518 11.4839C20.7518 10.7507 20.1484 10.1557 19.4049 10.1557H3.05665C2.8609 10.1557 2.69388 9.99281 2.69388 9.80156V6.26698C2.69388 4.27479 4.34253 2.65625 6.36833 2.65625H45.426C44.6914 3.67802 44.2604 4.92292 44.2604 6.26698V9.80156C44.2604 9.99458 44.0934 10.1557 43.8958 10.1557H31.5273C30.7838 10.1557 30.1804 10.7507 30.1804 11.4839C30.1804 12.217 30.7838 12.812 31.5273 12.812H43.8958C45.5822 12.812 46.9543 11.4608 46.9543 9.80156V6.26698C46.9543 4.27479 48.6029 2.65625 50.6269 2.65625C52.6527 2.65625 54.3014 4.27479 54.3014 6.26698V34.8093C54.12 34.8659 53.9404 34.9315 53.768 35.0111C53.1538 33.0898 51.392 32.0928 49.6482 32.0928C49.086 32.0928 48.5221 32.1955 47.9941 32.4009V24.9227C47.9941 22.0008 45.8067 20.4726 43.648 20.4726C41.4875 20.4726 39.3001 22.0008 39.3001 24.9227V44.1132C39.3001 44.7171 39.3109 45.2696 39.3216 45.7548C39.3234 45.8079 39.3234 45.861 39.3252 45.9142L36.1949 42.6045C34.3703 40.6796 31.7339 40.483 29.7817 42.1246C27.8601 43.7414 26.9747 46.9235 29.119 49.6347L38.4668 61.4656C38.9122 62.0287 39.3737 62.5565 39.8496 63.0487H7.42792C7.23037 63.0487 7.06335 62.8858 7.06335 62.6928ZM63.3061 49.6807C63.3492 56.9146 59.7466 62.8309 54.1272 64.7523C49.3734 66.3779 44.3143 64.5398 40.5931 59.8347L31.2454 48.0037C30.1301 46.5924 30.5611 44.9632 31.5309 44.1451C31.7572 43.9539 32.1918 43.6652 32.7396 43.6652C33.1778 43.6652 33.6878 43.8494 34.2266 44.416L37.506 47.8833C38.4327 48.8608 39.5838 50.0774 40.8607 49.5674C41.8772 49.1601 41.9724 48.0268 42.0029 47.6549C42.046 47.1431 42.0335 46.5074 42.0155 45.7017C42.0065 45.2271 41.9958 44.6905 41.9958 44.1132V24.9227C41.9958 23.2156 43.3732 23.1289 43.6498 23.1289C43.9264 23.1289 45.302 23.2156 45.302 24.9227V43.9361C45.302 44.6693 45.9055 45.2643 46.649 45.2643C47.3925 45.2643 47.9959 44.6693 47.9959 43.9361V36.5429C47.9959 34.8358 49.3734 34.7491 49.65 34.7491C50.0864 34.7491 50.5012 34.9031 50.7904 35.1705C51.1298 35.484 51.304 35.9461 51.304 36.5429V43.9361C51.304 44.6693 51.9074 45.2643 52.6509 45.2643C53.3945 45.2643 53.9979 44.6693 53.9979 43.9361V39.0575C53.9979 37.3486 55.3736 37.2619 55.6501 37.2619C56.0865 37.2619 56.5014 37.4159 56.7923 37.6833C57.1318 37.9985 57.306 38.4607 57.306 39.0575V43.9361C57.306 44.6693 57.9094 45.2643 58.6529 45.2643C59.3964 45.2643 59.9998 44.6693 59.9998 43.9361V41.5685C59.9998 39.8615 61.3791 39.7747 61.6539 39.7747C62.0903 39.7747 62.5069 39.9287 62.7961 40.1961C63.1355 40.5096 63.3097 40.9718 63.3097 41.5685L63.3061 49.6807Z" fill="#CAB48C"/>
<path d="M25.689 18.8877C25.689 19.6208 26.2924 20.2158 27.0359 20.2158H37.8168C38.5603 20.2158 39.1637 19.6208 39.1637 18.8877C39.1637 18.1546 38.5603 17.5596 37.8168 17.5596H27.0359C26.2924 17.5596 25.689 18.1546 25.689 18.8877Z" fill="#CAB48C"/>
<path d="M35.5268 25.1758H27.0339C26.2904 25.1758 25.687 25.7708 25.687 26.5039C25.687 27.237 26.2904 27.832 27.0339 27.832H35.5268C36.2704 27.832 36.8738 27.237 36.8738 26.5039C36.8738 25.7708 36.2704 25.1758 35.5268 25.1758Z" fill="#CAB48C"/>
<path d="M13.6221 35.4502H34.1943C34.9378 35.4502 35.5413 34.8552 35.5413 34.1221C35.5413 33.3889 34.9378 32.7939 34.1943 32.7939H13.6221C12.8786 32.7939 12.2751 33.3889 12.2751 34.1221C12.2751 34.8552 12.8786 35.4502 13.6221 35.4502Z" fill="#CAB48C"/>
<path d="M13.6221 43.0664H24.7191C25.4644 43.0664 26.066 42.4714 26.066 41.7383C26.066 41.0052 25.4644 40.4102 24.7191 40.4102H13.6221C12.8786 40.4102 12.2751 41.0052 12.2751 41.7383C12.2751 42.4714 12.8786 43.0664 13.6221 43.0664Z" fill="#CAB48C"/>
<path d="M13.6221 50.6846H23.3955C24.139 50.6846 24.7424 50.0896 24.7424 49.3564C24.7424 48.6233 24.139 48.0283 23.3955 48.0283H13.6221C12.8786 48.0283 12.2751 48.6233 12.2751 49.3564C12.2751 50.0896 12.8786 50.6846 13.6221 50.6846Z" fill="#CAB48C"/>
<path d="M27.9607 55.6431H13.6221C12.8786 55.6431 12.2751 56.2381 12.2751 56.9712C12.2751 57.7043 12.8786 58.2993 13.6221 58.2993H27.9607C28.7042 58.2993 29.3076 57.7043 29.3076 56.9712C29.3076 56.2381 28.706 55.6431 27.9607 55.6431Z" fill="#CAB48C"/>
<path d="M25.4661 12.812H25.4733C26.2168 12.812 26.8166 12.217 26.8166 11.4839C26.8166 10.7508 26.2096 10.1558 25.4661 10.1558C24.7226 10.1558 24.1191 10.7508 24.1191 11.4839C24.1191 12.217 24.7226 12.812 25.4661 12.812Z" fill="#CAB48C"/>
</svg>
