<svg width="67" height="59" viewBox="0 0 67 59" fill="none" xmlns="http://www.w3.org/2000/svg">
<path d="M66.0374 59H0.962644C0.428376 59 0 58.5718 0 58.0378V0.962244C0 0.428199 0.428376 0 0.962644 0H59.3662C59.9005 0 60.3289 0.428199 60.3289 0.962244V29.4158H66.0374C66.5716 29.4158 67 29.844 67 30.378V58.0329C67 58.567 66.5668 59 66.0374 59ZM17.5201 57.0755H65.0747V31.3403H45.1672C44.633 31.3403 44.2046 30.9121 44.2046 30.378V28.5257H41.8269C41.2926 28.5257 40.8642 28.0927 40.8642 27.5635C40.8642 27.0294 41.2974 26.6012 41.8269 26.6012H44.2046V20.3803C44.2046 19.8463 44.633 19.4181 45.1672 19.4181C45.6967 19.4181 46.1299 19.8463 46.1299 20.3803V29.4158H51.7228V1.92449H46.1299V8.9633C46.1299 9.49735 45.6967 9.92555 45.1672 9.92555C44.633 9.92555 44.2046 9.49735 44.2046 8.9633V6.01403H29.0718C28.5424 6.01403 28.1092 5.58102 28.1092 5.05178V1.92449H24.5955V6.39411C24.5955 6.92816 24.1672 7.35636 23.6329 7.35636C23.0986 7.35636 22.6703 6.92816 22.6703 6.39411V1.92449H21.6306V4.40708C21.6306 4.94112 21.2022 5.36932 20.668 5.36932H20.3695C20.5428 5.76384 20.6391 6.19685 20.6391 6.65392V9.15575C20.6391 10.9263 19.1999 12.3648 17.4287 12.3648C15.6574 12.3648 14.2231 10.9263 14.2231 9.15575V6.65392C14.2231 6.19685 14.3193 5.76384 14.4878 5.36932H14.1894C13.6551 5.36932 13.2267 4.93631 13.2267 4.40708V1.92449H9.7227V14.6694C9.7227 15.1986 9.29432 15.6317 8.76006 15.6317H7.50862V21.0347H22.6703V16.5939C22.6703 16.0599 23.0986 15.6317 23.6329 15.6317C24.1672 15.6317 24.5955 16.0599 24.5955 16.5939V26.6012H26.9733C27.5075 26.6012 27.9359 27.0343 27.9359 27.5635C27.9359 28.0975 27.5075 28.5257 26.9733 28.5257H24.5955V33.2407C24.5955 33.7748 24.1672 34.203 23.6329 34.203C23.0986 34.203 22.6703 33.7748 22.6703 33.2407V22.9591H8.91889V50.59H16.5575C17.0917 50.59 17.5201 51.023 17.5201 51.5522V57.0755ZM1.92529 57.0755H15.5948V52.5193H7.96106C7.4268 52.5193 6.99842 52.0911 6.99842 51.557V34.814H1.92529V57.0755ZM1.92529 32.8895H6.99842V22.9591H1.92529V32.8895ZM56.9885 29.4158H58.4036V1.92449H56.9885V29.4158ZM53.6481 29.4158H55.0632V1.92449H53.6481V29.4158ZM1.92529 20.6979H5.58333V15.6317H1.92529V20.6979ZM6.54598 13.7072H7.79741V1.92449H1.92529V13.7072H6.54598ZM17.4239 5.36932C16.7163 5.36932 16.1435 5.94667 16.1435 6.65392V9.15575C16.1435 9.863 16.7211 10.4403 17.4239 10.4403C18.1314 10.4403 18.709 9.863 18.709 9.15575V6.65392C18.709 5.94667 18.1314 5.36932 17.4239 5.36932ZM30.0345 4.08473H44.2046V1.92449H30.0345V4.08473ZM17.4239 3.44483H19.7053V1.92449H15.1472V3.44483H17.4239ZM38.4865 54.2176H30.7709C30.2366 54.2176 29.8083 53.7894 29.8083 53.2554V35.6223C29.8083 35.093 30.2366 34.66 30.7709 34.66H38.4913C39.0208 34.66 39.454 35.093 39.454 35.6223V53.2554C39.4491 53.7894 39.0208 54.2176 38.4865 54.2176ZM31.7335 52.2932H37.5238V51.3309H34.1065C33.577 51.3309 33.1438 50.8979 33.1438 50.3687V38.509C33.1438 37.9798 33.577 37.5468 34.1065 37.5468H37.5238V36.5845H31.7335V52.2932ZM35.0739 49.4064H37.5287V39.4713H35.0739V49.4064ZM59.3662 53.6403C58.8368 53.6403 58.4036 53.2073 58.4036 52.6781V36.1275C58.4036 35.5982 58.8368 35.1652 59.3662 35.1652C59.9005 35.1652 60.3289 35.5982 60.3289 36.1275V39.1152C60.8295 39.1489 61.2241 39.5627 61.2241 40.0727V48.7329C61.2241 49.2428 60.8295 49.6614 60.3289 49.6951V52.6829C60.3289 53.2073 59.8957 53.6403 59.3662 53.6403ZM50.0863 52.4856C47.0251 52.4856 44.6282 49.1899 44.6282 44.9801C44.6282 40.7703 47.0251 37.4746 50.0863 37.4746C53.1476 37.4746 55.5445 40.7703 55.5445 44.9801C55.5445 49.1899 53.1476 52.4856 50.0863 52.4856ZM50.0863 39.3991C48.1707 39.3991 46.5534 41.9538 46.5534 44.9801C46.5534 48.0064 48.1707 50.5611 50.0863 50.5611C52.002 50.5611 53.6193 48.0064 53.6193 44.9801C53.6193 41.9538 52.002 39.3991 50.0863 39.3991Z" fill="#CAB48C"/>
</svg>
