<svg width="34" height="34" viewBox="0 0 34 34" fill="none" xmlns="http://www.w3.org/2000/svg">
<path d="M33.5229 32.5165C32.944 33.4455 31.9434 34 30.8475 34H3.15437C2.05787 34 1.05786 33.4455 0.479002 32.5165C-0.099852 31.5875 -0.156407 30.4473 0.327967 29.4658L2.82502 24.4056C3.41452 23.2103 4.61082 22.4679 5.94551 22.4679H7.23961C7.97283 22.4679 8.56765 23.0616 8.56765 23.7934C8.56765 24.5252 7.97283 25.1188 7.23961 25.1188H5.94551C5.63013 25.1188 5.34736 25.2941 5.20764 25.577L2.71058 30.6372C2.60479 30.851 2.67998 31.029 2.73453 31.116C2.78843 31.203 2.91551 31.3491 3.15437 31.3491H30.8475C31.0864 31.3491 31.2135 31.203 31.2674 31.116C31.3213 31.029 31.3971 30.851 31.2913 30.6372L28.7943 25.577C28.6545 25.2941 28.3724 25.1188 28.0564 25.1188H26.6964C25.9632 25.1188 25.3684 24.5252 25.3684 23.7934C25.3684 23.0616 25.9632 22.4679 26.6964 22.4679H28.0571C29.3917 22.4679 30.588 23.2103 31.1775 24.4056L33.6746 29.4658C34.1583 30.4473 34.1017 31.5875 33.5229 32.5165ZM11.3235 23.0921C8.39399 19.886 5.36532 16.571 5.36067 11.6018C5.36799 5.20293 10.581 0 16.981 0C23.381 0 28.5947 5.20293 28.602 11.5985C28.5973 16.5704 25.568 19.886 22.6391 23.0914C21.1687 24.7011 19.6477 26.3653 18.4381 28.2784C18.1946 28.6629 17.7708 28.8967 17.315 28.8967H16.6476C16.1919 28.8967 15.7681 28.6636 15.5245 28.2784C14.3149 26.3659 12.7939 24.7018 11.3235 23.0921ZM8.01674 11.6018C8.02073 15.5424 10.4606 18.2132 13.2863 21.3058C14.5398 22.6777 15.8279 24.0875 16.9817 25.6952C18.1354 24.0882 19.4235 22.6784 20.677 21.3058C23.5027 18.2132 25.9426 15.5424 25.9466 11.5992C25.9406 6.66652 21.9192 2.65094 16.9817 2.65094C12.0441 2.65094 8.02206 6.66652 8.01674 11.6018ZM18.329 16.7018C18.329 15.97 17.7342 15.3764 17.0009 15.3764C14.9503 15.3764 13.2823 13.7116 13.2823 11.6649C13.2823 9.61828 14.9503 7.95348 17.0009 7.95348C19.0516 7.95348 20.7196 9.61828 20.7196 11.6649C20.7196 12.3967 21.3144 12.9904 22.0476 12.9904C22.7808 12.9904 23.3757 12.3967 23.3757 11.6649C23.3757 8.15668 20.516 5.30254 17.0009 5.30254C13.4859 5.30254 10.6262 8.15668 10.6262 11.6649C10.6262 15.1732 13.4859 18.0273 17.0009 18.0273C17.7342 18.0273 18.329 17.4336 18.329 16.7018Z" fill="#CAB48C"/>
</svg>
