<svg xmlns="http://www.w3.org/2000/svg" style="position:absolute; width: 0; height: 0"><symbol viewBox="0 0 84 84" id="icon-1"><path d="M75.621 44.05a6.869 6.869 0 0 0 1.177-3.851v-1.316a6.912 6.912 0 0 0-6.904-6.904 6.88 6.88 0 0 0-4.871 2.016C61.789 24.381 52.69 17.435 42 17.435s-19.79 6.946-23.023 16.562a6.882 6.882 0 0 0-4.87-2.017 6.912 6.912 0 0 0-6.905 6.904V40.2a6.86 6.86 0 0 0 1.177 3.85C3.599 45.058 0 49.305 0 54.38v3.303c0 .905.735 1.64 1.64 1.64h8.532a1.641 1.641 0 0 0 0-3.281h-6.89v-1.662c0-4.011 3.262-7.276 7.275-7.276h7.766a24.168 24.168 0 0 0 3.222 7.683l-18.72 18.72a6.156 6.156 0 0 0 0 8.696A6.127 6.127 0 0 0 7.173 84a6.127 6.127 0 0 0 4.348-1.798l10.319-10.32a1.642 1.642 0 0 0-2.32-2.32L9.2 79.882a2.873 2.873 0 0 1-4.055 0 2.87 2.87 0 0 1 0-4.054L23.522 57.45C27.979 62.677 34.609 66 42 66c11.538 0 21.221-8.09 23.677-18.896h7.766c4.01 0 7.276 3.264 7.276 7.277v1.662H65.297a1.641 1.641 0 0 0 0 3.281h17.062c.906 0 1.641-.735 1.641-1.64V54.38c0-5.077-3.6-9.325-8.379-10.332zm-9.35-5.166a3.626 3.626 0 0 1 3.623-3.622 3.626 3.626 0 0 1 3.622 3.622V40.2a3.627 3.627 0 0 1-3.622 3.623A3.626 3.626 0 0 1 66.27 40.2v-1.316zm-55.787 0a3.627 3.627 0 0 1 3.622-3.622 3.627 3.627 0 0 1 3.623 3.622V40.2a3.627 3.627 0 0 1-3.623 3.623 3.626 3.626 0 0 1-3.622-3.623v-1.316zM42 62.72c-11.58 0-21-9.421-21-21.001 0-11.58 9.42-21.001 21-21.001s21 9.42 21 21S53.58 62.72 42 62.72z" fill="#CAB48C"></path><path d="M42 23.998c-9.77 0-17.719 7.95-17.719 17.72 0 5.07 2.143 9.652 5.569 12.884.059.064.12.123.19.177A17.652 17.652 0 0 0 42 59.437a17.65 17.65 0 0 0 11.96-4.658c.07-.054.131-.113.19-.177 3.426-3.232 5.569-7.813 5.569-12.884 0-9.773-7.95-17.72-17.719-17.72zm-8.941 29.047A10.062 10.062 0 0 1 42 47.672c3.801 0 7.197 2.075 8.941 5.373A14.368 14.368 0 0 1 42 56.154c-3.375 0-6.48-1.163-8.941-3.11zm5.484-12.112v-1.275A3.46 3.46 0 0 1 42 36.202a3.46 3.46 0 0 1 3.457 3.456v1.275A3.46 3.46 0 0 1 42 44.39a3.46 3.46 0 0 1-3.457-3.457zm14.799 9.71a13.29 13.29 0 0 0-6.277-5.27 6.707 6.707 0 0 0 1.675-4.44v-1.275a6.746 6.746 0 0 0-6.738-6.738 6.747 6.747 0 0 0-6.738 6.738v1.275c0 1.7.633 3.252 1.675 4.44a13.29 13.29 0 0 0-6.277 5.27 14.363 14.363 0 0 1-3.098-8.925c0-7.961 6.477-14.439 14.438-14.439 7.96 0 14.437 6.478 14.437 14.439a14.39 14.39 0 0 1-3.097 8.925zM25.069 64.692c-.432 0-.855.176-1.16.481-.305.305-.48.729-.48 1.16 0 .432.175.855.48 1.16.305.305.728.48 1.16.48.431 0 .855-.175 1.16-.48.305-.305.48-.728.48-1.16 0-.431-.175-.855-.48-1.16a1.653 1.653 0 0 0-1.16-.48zM42.033 8.863c.905 0 1.64-.735 1.64-1.64V1.64a1.641 1.641 0 0 0-3.28 0v5.581c0 .908.734 1.641 1.64 1.641zM42.033 14.274a1.65 1.65 0 0 0 1.16-.48c.305-.305.48-.729.48-1.16 0-.432-.175-.855-.48-1.16a1.65 1.65 0 0 0-1.16-.48c-.432 0-.855.175-1.16.48-.305.305-.48.728-.48 1.16 0 .431.175.855.48 1.16.305.305.728.48 1.16.48zM51.898 12.12c.42 0 .84-.16 1.16-.48l2.884-2.885a1.642 1.642 0 0 0-2.32-2.32l-2.884 2.884a1.642 1.642 0 0 0 1.16 2.801zM30.97 11.66a1.636 1.636 0 0 0 2.32 0c.64-.64.64-1.68 0-2.32l-2.91-2.912a1.642 1.642 0 0 0-2.32 0c-.64.64-.64 1.68 0 2.32l2.91 2.912z" fill="#CAB48C"></path></symbol><symbol viewBox="0 0 66 68" id="icon-2"><path d="M14.87 27.832h5.246c1.433 0 2.599-1.147 2.599-2.555v-5.16c0-1.41-1.166-2.556-2.599-2.556H14.87c-1.431 0-2.595 1.146-2.595 2.556v5.16c0 1.408 1.166 2.555 2.595 2.555zm.099-7.616h5.052v4.958h-5.052v-4.958z" fill="#CAB48C"></path><path d="M61.65 37.117c-.644 0-1.293.136-1.882.405-.454-1.42-1.535-2.332-2.773-2.713V6.267C56.995 2.812 54.138 0 50.627 0H6.368C2.858 0 0 2.812 0 6.267v3.535c0 1.66 1.372 3.01 3.057 3.01h1.312v49.88c0 1.662 1.373 3.011 3.059 3.011h35.647c2.362 1.51 4.939 2.297 7.56 2.297 1.456 0 2.923-.243 4.374-.74 3.129-1.07 5.925-3.308 7.873-6.3 2.066-3.176 3.143-7.08 3.118-11.288v-8.105c0-2.92-2.187-4.45-4.35-4.45zM7.063 62.693V12.812h12.342c.743 0 1.347-.595 1.347-1.328 0-.733-.604-1.328-1.347-1.328H3.057a.364.364 0 0 1-.363-.354V6.267c0-1.992 1.649-3.61 3.674-3.61h39.058a6.16 6.16 0 0 0-1.166 3.61v3.535a.364.364 0 0 1-.364.354H31.527c-.743 0-1.347.595-1.347 1.328 0 .733.604 1.328 1.347 1.328h12.369c1.686 0 3.058-1.351 3.058-3.01V6.267c0-1.992 1.649-3.61 3.673-3.61 2.026 0 3.674 1.618 3.674 3.61v28.542a4.394 4.394 0 0 0-.533.202c-.614-1.921-2.376-2.918-4.12-2.918-.562 0-1.126.102-1.654.308v-7.478c0-2.922-2.187-4.45-4.346-4.45-2.16 0-4.348 1.528-4.348 4.45v19.19c0 .604.01 1.157.022 1.642l.003.16-3.13-3.31c-1.825-1.925-4.461-2.122-6.413-.48-1.922 1.616-2.807 4.798-.663 7.51l9.348 11.83c.445.564.907 1.091 1.383 1.584H7.428a.365.365 0 0 1-.365-.356zM63.306 49.68c.043 7.234-3.56 13.15-9.179 15.071-4.754 1.626-9.813-.212-13.534-4.917l-9.348-11.831c-1.115-1.412-.684-3.04.286-3.859.226-.191.66-.48 1.209-.48.438 0 .948.184 1.487.751l3.279 3.467c.927.978 2.078 2.194 3.355 1.684 1.016-.407 1.111-1.54 1.142-1.912.043-.512.03-1.148.013-1.953-.01-.475-.02-1.011-.02-1.589v-19.19c0-1.707 1.377-1.794 1.654-1.794.276 0 1.652.087 1.652 1.794v19.013c0 .733.604 1.328 1.347 1.328s1.347-.595 1.347-1.328v-7.393c0-1.707 1.377-1.794 1.654-1.794.436 0 .851.154 1.14.421.34.314.514.776.514 1.373v7.393c0 .733.603 1.328 1.347 1.328.743 0 1.347-.595 1.347-1.328v-4.879c0-1.708 1.376-1.795 1.652-1.795.437 0 .851.154 1.142.421.34.316.514.778.514 1.374v4.88c0 .732.603 1.327 1.347 1.327.743 0 1.347-.595 1.347-1.328V41.57c0-1.708 1.38-1.794 1.654-1.794.436 0 .853.154 1.142.421.34.314.514.776.514 1.373l-.004 8.112z" fill="#CAB48C"></path><path d="M25.689 18.888c0 .733.603 1.328 1.347 1.328h10.78c.744 0 1.348-.595 1.348-1.328 0-.733-.604-1.328-1.347-1.328H27.036c-.744 0-1.347.595-1.347 1.328zM35.527 25.176h-8.493c-.744 0-1.347.595-1.347 1.328 0 .733.603 1.328 1.347 1.328h8.493c.743 0 1.347-.595 1.347-1.328 0-.733-.604-1.328-1.347-1.328zM13.622 35.45h20.572c.744 0 1.347-.595 1.347-1.328 0-.733-.603-1.328-1.347-1.328H13.622c-.743 0-1.347.595-1.347 1.328 0 .733.604 1.328 1.347 1.328zM13.622 43.066H24.72c.745 0 1.347-.595 1.347-1.328 0-.733-.602-1.328-1.347-1.328H13.622c-.743 0-1.347.595-1.347 1.328 0 .733.604 1.328 1.347 1.328zM13.622 50.685h9.773c.744 0 1.347-.595 1.347-1.329 0-.733-.603-1.328-1.347-1.328h-9.773c-.743 0-1.347.595-1.347 1.328 0 .734.604 1.329 1.347 1.329zM27.96 55.643H13.623c-.743 0-1.347.595-1.347 1.328 0 .733.604 1.328 1.347 1.328h14.339c.743 0 1.347-.595 1.347-1.328 0-.733-.602-1.328-1.347-1.328zM25.466 12.812h.007c.744 0 1.344-.595 1.344-1.328 0-.733-.607-1.328-1.35-1.328-.744 0-1.348.595-1.348 1.328 0 .733.604 1.328 1.347 1.328z" fill="#CAB48C"></path></symbol><symbol viewBox="0 0 66 68" id="icon-3"><path d="M9.104 62.334c0 .625-.51 1.133-1.138 1.133a1.137 1.137 0 0 1-1.138-1.133c0-.626.51-1.134 1.138-1.134.627 0 1.138.508 1.138 1.133zM35.276 49.867H33v2.266h2.276v-2.266zM39.828 49.867h-2.276v2.266h2.276v-2.266zM30.724 40.8h-4.552c-.627 0-1.138.508-1.138 1.133v4.534c0 .625.51 1.133 1.138 1.133h4.552c.628 0 1.138-.508 1.138-1.133v-4.534c0-.625-.51-1.133-1.138-1.133zm-1.138 4.533H27.31v-2.267h2.276v2.267zM56.897 49.867H54.62v2.266h2.276v-2.266zM61.448 49.867h-2.276v2.266h2.276v-2.266zM47.793 47.6h4.552c.628 0 1.138-.508 1.138-1.133v-4.534c0-.625-.51-1.133-1.138-1.133h-4.552c-.628 0-1.138.508-1.138 1.133v4.534c0 .625.51 1.133 1.138 1.133zm1.138-4.534h2.276v2.267h-2.276v-2.267zM35.276 31.733H33V34h2.276v-2.267zM39.828 31.733h-2.276V34h2.276v-2.267zM26.172 29.467h4.552c.628 0 1.138-.508 1.138-1.133V23.8c0-.625-.51-1.133-1.138-1.133h-4.552c-.627 0-1.138.508-1.138 1.133v4.534c0 .625.51 1.133 1.138 1.133zm1.138-4.533h2.276V27.2H27.31v-2.266zM56.897 31.733H54.62V34h2.276v-2.267zM61.448 31.733h-2.276V34h2.276v-2.267zM47.793 29.467h4.552c.628 0 1.138-.508 1.138-1.133V23.8c0-.625-.51-1.133-1.138-1.133h-4.552c-.628 0-1.138.508-1.138 1.133v4.534c0 .625.51 1.133 1.138 1.133zm1.138-4.533h2.276V27.2h-2.276v-2.266z" fill="#CAB48C"></path><path d="M64.862 0H21.621c-.628 0-1.138.508-1.138 1.133v55.534H17.48l-6.51-5.404A1.14 1.14 0 0 0 10.24 51H9.103V31.952l2.195-5.464a1.11 1.11 0 0 0 .081-.421v-4.534c0-.625-.51-1.133-1.138-1.133H1.138C.51 20.4 0 20.908 0 21.533v4.534c0 .143.027.287.082.42l2.194 5.465V51H1.138C.51 51 0 51.508 0 52.133V61.2c0 .625.51 1.133 1.138 1.133h1.138c0 3.13 2.547 5.667 5.69 5.667 3.142 0 5.69-2.537 5.69-5.667h6.827v4.534c0 .625.51 1.133 1.138 1.133h6.827c.628 0 1.138-.508 1.138-1.133v-4.534h9.104v4.534c0 .625.51 1.133 1.138 1.133h6.827c.628 0 1.138-.508 1.138-1.133v-4.534h9.104v4.534c0 .625.51 1.133 1.138 1.133h6.827C65.49 68 66 67.492 66 66.867V1.133C66 .508 65.49 0 64.862 0zM22.76 60.067v-3.4h40.965v3.4H22.76zm40.965-23.8H44.38V20.4h19.345v15.867zm0 18.133H44.38V38.533h19.345V54.4zm-40.965 0V38.533h19.344V54.4H22.76zm19.344-18.133H22.76V20.4h19.344v15.867zm21.621-18.134H44.38V2.267h19.345v15.866zM22.76 2.267h19.344v15.866H22.76V2.267zm-20.483 20.4h6.827v3.18L7.196 30.6h-.368v-5.667H4.552V30.6h-.368l-1.908-4.752v-3.181zm2.276 10.2h2.276V51H4.552V32.867zm3.414 32.866c-1.381 0-2.625-.829-3.154-2.098a3.386 3.386 0 0 1 .74-3.704 3.42 3.42 0 0 1 3.718-.737 3.397 3.397 0 0 1 2.11 3.14 3.41 3.41 0 0 1-3.414 3.4zm5.213-5.666a5.69 5.69 0 0 0-5.213-3.4 5.69 5.69 0 0 0-5.214 3.4h-.476v-6.8H9.83l6.101 5.064v1.736h-2.752zm5.028-1.134h2.276v1.134h-2.276v-1.134zm9.103 6.8H22.76v-3.4h4.551v3.4zm18.207 0h-4.552v-3.4h4.552v3.4zm18.207 0h-4.552v-3.4h4.552v3.4z" fill="#CAB48C"></path><path d="M35.276 13.6H33v2.267h2.276V13.6zM39.828 13.6h-2.276v2.267h2.276V13.6zM30.724 4.533h-4.552c-.627 0-1.138.508-1.138 1.134V10.2c0 .625.51 1.133 1.138 1.133h4.552c.628 0 1.138-.508 1.138-1.133V5.667c0-.626-.51-1.134-1.138-1.134zm-1.138 4.534H27.31V6.8h2.276v2.267zM56.897 13.6H54.62v2.267h2.276V13.6zM61.448 13.6h-2.276v2.267h2.276V13.6zM47.793 11.333h4.552c.628 0 1.138-.508 1.138-1.133V5.667c0-.626-.51-1.134-1.138-1.134h-4.552c-.628 0-1.138.508-1.138 1.134V10.2c0 .625.51 1.133 1.138 1.133zM48.931 6.8h2.276v2.267h-2.276V6.8z" fill="#CAB48C"></path></symbol><symbol viewBox="0 0 74 74" id="icon-4"><path d="M61.654 25.89a6.163 6.163 0 0 0 6.166 6.163 6.163 6.163 0 0 0 1.232-12.203v-2.59c0-.68-.552-1.232-1.233-1.232H54.194c-.24-3.416-1.5-6.68-3.612-9.376l1.72-1.72h14.51a3.699 3.699 0 1 0 0-2.465h-15.02c-.327 0-.641.13-.873.36L48.93 4.82c-6.852-6.599-17.755-6.394-24.352.457a17.219 17.219 0 0 0-4.776 10.75H9.445l-4.03-9.064a3.687 3.687 0 1 0-2.553.328l4.654 10.472c.198.445.64.731 1.126.73h11.159a17.173 17.173 0 0 0 4.756 10.697L14.148 39.597C7.418 38.59 1.146 43.227.137 49.956c-1.01 6.73 3.63 13.001 10.359 14.01.203.031.407.056.612.076v6.227c0 .681.551 1.233 1.233 1.233h11.322a3.699 3.699 0 1 0 0-2.466h-10.09v-4.992c6.772-.675 11.714-6.711 11.039-13.482a12.321 12.321 0 0 0-7.71-10.228l9.493-9.493a17.146 17.146 0 0 0 21.105.085l6.839 8.707c-9.444 1.317-16.033 10.04-14.715 19.484C40.94 68.56 49.665 75.15 59.108 73.832c9.443-1.317 16.033-10.041 14.715-19.484a17.266 17.266 0 0 0-16.47-14.87L49.35 29.294a17.189 17.189 0 0 0 4.842-10.8h12.391v1.357a6.173 6.173 0 0 0-4.93 6.04zm8.63-23.423a1.232 1.232 0 1 1 .001 2.465 1.232 1.232 0 0 1 0-2.465zm-66.573 0a1.232 1.232 0 1 1 0 2.465 1.232 1.232 0 0 1 0-2.465zm23.424 66.571a1.233 1.233 0 1 1 0 2.465 1.233 1.233 0 0 1 0-2.465zM9.875 48.081a2.465 2.465 0 1 1 4.93-.002 2.465 2.465 0 0 1-4.93.002zm2.466 4.93a4.932 4.932 0 0 1 4.931 4.932v2.364a9.776 9.776 0 0 1-9.863 0v-2.364a4.93 4.93 0 0 1 4.932-4.931zm9.862-1.232a9.803 9.803 0 0 1-2.465 6.501v-.337a7.394 7.394 0 0 0-3.831-6.475 4.932 4.932 0 1 0-7.134 0 7.399 7.399 0 0 0-3.83 6.475v.337c-3.602-4.085-3.211-10.317.874-13.92 4.086-3.602 10.318-3.21 13.92.874a9.848 9.848 0 0 1 2.466 6.545zm6.165-22.528V26.26a4.068 4.068 0 0 1 4.068-4.069h2.737l-1.79 4.472c-.183.458-.075.982.275 1.33l2.466 2.466c.48.48 1.262.48 1.743 0l2.465-2.466c.35-.348.458-.872.275-1.33l-1.788-4.472h2.74a4.068 4.068 0 0 1 4.068 4.069v2.988a14.688 14.688 0 0 1-17.26 0v.004zm10.33-17.669l4.405 2.644c-.495 3.018-4.213 5.5-6.105 5.5a7.767 7.767 0 0 1-5.994-4.996c2.112-.174 5.923-.813 7.693-3.148zm-7.797.677c.33-4.133 2.275-6.094 6.097-6.094 3.498 0 5.424 1.656 5.976 5.107l-4.109-2.465a1.235 1.235 0 0 0-1.804.665c-.623 1.871-3.992 2.58-6.16 2.787zm6.097 12.018l1.018 2.549-1.018 1.02-1.02-1.02 1.02-2.55zm11.095 44.422v-2.991a4.068 4.068 0 0 1 4.068-4.068h2.737l-1.789 4.472c-.183.457-.075.981.275 1.33l2.465 2.465c.481.48 1.262.48 1.743 0l2.466-2.465c.35-.349.458-.873.274-1.33l-1.787-4.472h2.74a4.068 4.068 0 0 1 4.068 4.068v2.988a14.688 14.688 0 0 1-17.26 0v.003zm10.33-17.67l4.406 2.645c-.495 3.02-4.214 5.502-6.106 5.502a7.767 7.767 0 0 1-5.993-4.996c2.111-.174 5.922-.814 7.693-3.15zm-7.796.677c.33-4.131 2.274-6.093 6.096-6.093 3.498 0 5.425 1.655 5.976 5.107l-4.108-2.465a1.235 1.235 0 0 0-1.805.665c-.622 1.873-3.991 2.581-6.16 2.786zm6.096 12.02l1.019 2.549-1.019 1.02-1.019-1.02 1.019-2.549zm14.794-7.016c0 3.594-1.316 7.062-3.698 9.753v-.754a6.512 6.512 0 0 0-5.718-6.476 8.559 8.559 0 0 0 3.252-6.221c0-8.152-4.694-9.863-8.63-9.863-3.936 0-8.63 1.71-8.63 9.863a8.555 8.555 0 0 0 3.252 6.224 6.513 6.513 0 0 0-5.718 6.473v.75c-5.392-6.134-4.79-15.475 1.343-20.867 6.133-5.392 15.475-4.791 20.867 1.342a14.79 14.79 0 0 1 3.68 9.776zM48.093 27.012v-.753a6.512 6.512 0 0 0-5.717-6.477 8.56 8.56 0 0 0 3.251-6.221c0-8.152-4.694-9.863-8.63-9.863-3.935 0-8.63 1.71-8.63 9.863a8.555 8.555 0 0 0 3.252 6.224 6.513 6.513 0 0 0-5.717 6.474v.748c-5.405-6.127-4.817-15.476 1.31-20.88C33.339.723 42.689 1.31 48.093 7.437a14.794 14.794 0 0 1 0 19.57v.005zm23.424-1.122a3.7 3.7 0 0 1-7.397 0 3.7 3.7 0 0 1 7.397 0z" fill="#CAB48C"></path></symbol><symbol viewBox="0 0 17 30" id="icon-arrow"><path d="M13.339 29.52c.297.31.695.48 1.12.48.423 0 .82-.17 1.118-.48l.949-.982a1.686 1.686 0 0 0 0-2.32L5.713 15.005 16.538 3.783c.297-.309.462-.72.462-1.16 0-.44-.165-.852-.462-1.16L15.59.478a1.543 1.543 0 0 0-2.239 0L.461 13.842c-.298.31-.462.724-.461 1.164a1.66 1.66 0 0 0 .462 1.165l12.877 13.35z"></path></symbol><symbol viewBox="0 0 29 29" id="icon-cross"><path d="M14.5 0C6.491 0 0 6.491 0 14.5S6.491 29 14.5 29 29 22.509 29 14.5 22.509 0 14.5 0zm7.17 19.11l-2.57 2.572-4.611-4.61-4.61 4.61-2.561-2.572 4.61-4.61L7.33 9.89l2.56-2.56 4.611 4.61 4.61-4.61 2.572 2.56-4.61 4.61 4.599 4.61z"></path></symbol><symbol viewBox="0 0 32 31" id="icon-instagram"><path d="M16.204 2.959c4.109 0 4.596.013 6.227.09 4.173.192 6.124 2.17 6.317 6.317.077 1.63.09 2.105.09 6.226 0 4.122-.013 4.597-.09 6.228-.193 4.147-2.131 6.124-6.317 6.316-1.63.077-2.105.09-6.227.09-4.108 0-4.596-.013-6.227-.09-4.185-.192-6.124-2.182-6.317-6.316-.077-1.631-.09-2.106-.09-6.228 0-4.108.013-4.596.09-6.226.193-4.148 2.144-6.125 6.317-6.317 1.63-.077 2.119-.09 6.227-.09zm0-2.773c-4.186 0-4.712.012-6.355.09C4.25.531 1.144 3.638.887 9.236c-.077 1.644-.09 2.17-.09 6.355 0 4.186.013 4.713.09 6.356.257 5.598 3.364 8.705 8.962 8.962 1.643.077 2.17.09 6.355.09 4.186 0 4.712-.013 6.355-.09 5.585-.257 8.705-3.364 8.962-8.962.077-1.643.09-2.17.09-6.356 0-4.185-.013-4.711-.09-6.355C31.264 3.652 28.157.532 22.56.275c-1.643-.077-2.17-.09-6.355-.09zm0 7.498a7.912 7.912 0 0 0-7.909 7.908 7.912 7.912 0 0 0 7.91 7.91 7.912 7.912 0 0 0 7.908-7.91 7.912 7.912 0 0 0-7.909-7.908zm0 13.044a5.134 5.134 0 0 1-5.136-5.136 5.134 5.134 0 0 1 5.136-5.135 5.134 5.134 0 0 1 5.136 5.135 5.134 5.134 0 0 1-5.136 5.136zm8.23-15.214a1.841 1.841 0 0 0-1.849 1.849c0 1.027.822 1.848 1.849 1.848a1.85 1.85 0 0 0 0-3.697z"></path></symbol><symbol viewBox="0 0 13 6" id="icon-select-after"><path d="M13 .25a.24.24 0 0 0-.075-.173.287.287 0 0 0-.383-.008L6.5 5.404.458.069a.288.288 0 0 0-.383.008.237.237 0 0 0 .008.354l6.23 5.5c.104.092.27.092.374 0l6.23-5.5A.24.24 0 0 0 13 .25z" fill="#000"></path></symbol><symbol viewBox="0 0 31 31" id="icon-vk"><path d="M15.407 2.753c7.074 0 12.84 5.765 12.84 12.84 0 7.074-5.766 12.839-12.84 12.839s-12.84-5.765-12.84-12.84c0-7.074 5.766-12.839 12.84-12.839zm0-2.567C6.895.186 0 7.08 0 15.592 0 24.105 6.895 31 15.407 31s15.407-6.895 15.407-15.408C30.814 7.08 23.919.186 15.407.186zm.745 20.542c.385 0 .552-.257.539-.59-.026-1.233.462-1.888 1.322-1.028.95.95 1.156 1.618 2.311 1.618h2.055c.513 0 .719-.167.719-.424 0-.552-.912-1.527-1.682-2.246-1.079-1.002-1.13-1.027-.206-2.234 1.156-1.502 2.67-3.428 1.335-3.428h-2.554c-.501 0-.527.282-.707.693-.642 1.502-1.848 3.454-2.31 3.158-.489-.308-.257-1.54-.219-3.376.013-.488.013-.822-.732-.989a4.73 4.73 0 0 0-1.155-.141c-1.464 0-2.465.616-1.9.719 1.014.192.911 2.375.68 3.312-.41 1.644-1.951-1.296-2.593-2.76-.155-.36-.206-.63-.758-.63H8.204c-.308 0-.5.104-.5.335 0 .385 1.9 4.313 3.71 6.265 1.772 1.913 3.518 1.746 4.738 1.746z"></path></symbol></svg>