<svg xmlns="http://www.w3.org/2000/svg" style="position:absolute; width: 0; height: 0"><symbol viewBox="0 0 84 84" id="icon-1"><path d="M75.621 44.05a6.869 6.869 0 0 0 1.177-3.851v-1.316a6.912 6.912 0 0 0-6.904-6.904 6.88 6.88 0 0 0-4.871 2.016C61.789 24.381 52.69 17.435 42 17.435s-19.79 6.946-23.023 16.562a6.882 6.882 0 0 0-4.87-2.017 6.912 6.912 0 0 0-6.905 6.904V40.2a6.86 6.86 0 0 0 1.177 3.85C3.599 45.058 0 49.305 0 54.38v3.303c0 .905.735 1.64 1.64 1.64h8.532a1.641 1.641 0 0 0 0-3.281h-6.89v-1.662c0-4.011 3.262-7.276 7.275-7.276h7.766a24.168 24.168 0 0 0 3.222 7.683l-18.72 18.72a6.156 6.156 0 0 0 0 8.696A6.127 6.127 0 0 0 7.173 84a6.127 6.127 0 0 0 4.348-1.798l10.319-10.32a1.642 1.642 0 0 0-2.32-2.32L9.2 79.882a2.873 2.873 0 0 1-4.055 0 2.87 2.87 0 0 1 0-4.054L23.522 57.45C27.979 62.677 34.609 66 42 66c11.538 0 21.221-8.09 23.677-18.896h7.766c4.01 0 7.276 3.264 7.276 7.277v1.662H65.297a1.641 1.641 0 0 0 0 3.281h17.062c.906 0 1.641-.735 1.641-1.64V54.38c0-5.077-3.6-9.325-8.379-10.332zm-9.35-5.166a3.626 3.626 0 0 1 3.623-3.622 3.626 3.626 0 0 1 3.622 3.622V40.2a3.627 3.627 0 0 1-3.622 3.623A3.626 3.626 0 0 1 66.27 40.2v-1.316zm-55.787 0a3.627 3.627 0 0 1 3.622-3.622 3.627 3.627 0 0 1 3.623 3.622V40.2a3.627 3.627 0 0 1-3.623 3.623 3.626 3.626 0 0 1-3.622-3.623v-1.316zM42 62.72c-11.58 0-21-9.421-21-21.001 0-11.58 9.42-21.001 21-21.001s21 9.42 21 21S53.58 62.72 42 62.72z" fill="#CAB48C"></path><path d="M42 23.998c-9.77 0-17.719 7.95-17.719 17.72 0 5.07 2.143 9.652 5.569 12.884.059.064.12.123.19.177A17.652 17.652 0 0 0 42 59.437a17.65 17.65 0 0 0 11.96-4.658c.07-.054.131-.113.19-.177 3.426-3.232 5.569-7.813 5.569-12.884 0-9.773-7.95-17.72-17.719-17.72zm-8.941 29.047A10.062 10.062 0 0 1 42 47.672c3.801 0 7.197 2.075 8.941 5.373A14.368 14.368 0 0 1 42 56.154c-3.375 0-6.48-1.163-8.941-3.11zm5.484-12.112v-1.275A3.46 3.46 0 0 1 42 36.202a3.46 3.46 0 0 1 3.457 3.456v1.275A3.46 3.46 0 0 1 42 44.39a3.46 3.46 0 0 1-3.457-3.457zm14.799 9.71a13.29 13.29 0 0 0-6.277-5.27 6.707 6.707 0 0 0 1.675-4.44v-1.275a6.746 6.746 0 0 0-6.738-6.738 6.747 6.747 0 0 0-6.738 6.738v1.275c0 1.7.633 3.252 1.675 4.44a13.29 13.29 0 0 0-6.277 5.27 14.363 14.363 0 0 1-3.098-8.925c0-7.961 6.477-14.439 14.438-14.439 7.96 0 14.437 6.478 14.437 14.439a14.39 14.39 0 0 1-3.097 8.925zM25.069 64.692c-.432 0-.855.176-1.16.481-.305.305-.48.729-.48 1.16 0 .432.175.855.48 1.16.305.305.728.48 1.16.48.431 0 .855-.175 1.16-.48.305-.305.48-.728.48-1.16 0-.431-.175-.855-.48-1.16a1.653 1.653 0 0 0-1.16-.48zM42.033 8.863c.905 0 1.64-.735 1.64-1.64V1.64a1.641 1.641 0 0 0-3.28 0v5.581c0 .908.734 1.641 1.64 1.641zM42.033 14.274a1.65 1.65 0 0 0 1.16-.48c.305-.305.48-.729.48-1.16 0-.432-.175-.855-.48-1.16a1.65 1.65 0 0 0-1.16-.48c-.432 0-.855.175-1.16.48-.305.305-.48.728-.48 1.16 0 .431.175.855.48 1.16.305.305.728.48 1.16.48zM51.898 12.12c.42 0 .84-.16 1.16-.48l2.884-2.885a1.642 1.642 0 0 0-2.32-2.32l-2.884 2.884a1.642 1.642 0 0 0 1.16 2.801zM30.97 11.66a1.636 1.636 0 0 0 2.32 0c.64-.64.64-1.68 0-2.32l-2.91-2.912a1.642 1.642 0 0 0-2.32 0c-.64.64-.64 1.68 0 2.32l2.91 2.912z" fill="#CAB48C"></path></symbol><symbol viewBox="0 0 72 72" id="icon-10"><path d="M36.95 45.784c-.435-.62-1.463-.62-1.899 0l-2.103 2.988-3.122 1.041a1.163 1.163 0 0 0-.453 1.924l1.982 1.98v3.186a1.158 1.158 0 0 0 1.58 1.084L36 56.805l3.066 1.182a1.16 1.16 0 0 0 1.076-.126c.315-.216.503-.573.503-.958v-3.186l1.982-1.981a1.163 1.163 0 0 0-.453-1.924l-3.122-1.042-2.102-2.986zm1.713 6.633c-.219.216-.34.51-.34.82v1.975l-1.905-.734a1.16 1.16 0 0 0-.836 0l-1.905.734v-1.975c0-.31-.122-.604-.34-.82l-.995-.993 1.701-.567c.236-.078.44-.23.583-.434L36 48.47l1.372 1.951c.142.203.347.356.58.434l1.702.567-.99.995zM40.645 32.516H18.581v2.323h22.064v-2.323zM53.42 37.161H18.58v2.323h34.84v-2.323z" fill="#CAB48C"></path><path d="M54.58 0c-6.669 0-12.468 3.772-15.394 9.29H1.16C.521 9.29 0 9.811 0 10.452v48.774c0 .642.52 1.161 1.161 1.161h27.871V70.84c0 .47.283.894.716 1.072.434.18.933.08 1.266-.252L36 66.673l4.986 4.986a1.164 1.164 0 0 0 1.266.252 1.16 1.16 0 0 0 .716-1.072V60.387h27.87A1.16 1.16 0 0 0 72 59.226V17.419C72 7.815 64.184 0 54.58 0zm0 2.323c8.325 0 15.097 6.772 15.097 15.096 0 3.66-1.31 7.017-3.483 9.633v-.342c0-3.95-2.834-7.249-6.573-7.977a6.94 6.94 0 0 0 1.927-4.798v-2.322a6.975 6.975 0 0 0-6.967-6.968 6.973 6.973 0 0 0-6.968 6.968v2.322c0 1.86.735 3.548 1.928 4.798-3.74.728-6.573 4.026-6.573 7.977v.342a15.027 15.027 0 0 1-3.484-9.633c0-8.324 6.772-15.096 15.097-15.096zM36 41.806c-5.762 0-10.452 4.688-10.452 10.452 0 .393.026.78.068 1.161H10.305a4.663 4.663 0 0 0-3.337-3.336V19.595a4.66 4.66 0 0 0 3.337-3.337h26.914c-.025.385-.058.768-.058 1.161 0 1.193.122 2.358.35 3.484h-17.77c-.64 0-1.16.52-1.16 1.162v6.967c0 .64.52 1.162 1.16 1.162h23.037c3.108 2.872 7.247 4.645 11.803 4.645 3.923 0 7.536-1.32 10.451-3.519v18.763a4.656 4.656 0 0 0-3.336 3.336H46.384c.042-.38.07-.768.07-1.16-.002-5.765-4.692-10.453-10.454-10.453zm0 18.581c-4.483 0-8.129-3.648-8.129-8.129 0-4.48 3.646-8.129 8.129-8.129s8.129 3.648 8.129 8.13c0 4.48-3.646 8.128-8.129 8.128zm20.903-39.484a2.324 2.324 0 0 1-2.322 2.323 2.324 2.324 0 0 1-2.323-2.323h4.645zm2.323-6.967a4.651 4.651 0 0 1-4.645 4.645 4.651 4.651 0 0 1-4.646-4.646v-2.322a4.651 4.651 0 0 1 4.646-4.645 4.651 4.651 0 0 1 4.645 4.645v2.322zm-9.279 7.083c.064 2.507 2.112 4.53 4.634 4.53 2.522 0 4.57-2.023 4.633-4.53 2.652.537 4.657 2.882 4.657 5.69v2.585a15.006 15.006 0 0 1-9.29 3.222 15.006 15.006 0 0 1-9.29-3.222V26.71a5.814 5.814 0 0 1 4.656-5.69zm-9.267 6.852H20.903v-4.645h17.274a17.273 17.273 0 0 0 2.503 4.645zM2.323 11.613h35.854a17.088 17.088 0 0 0-.665 2.322H9.29c-.64 0-1.161.521-1.161 1.162a2.324 2.324 0 0 1-2.323 2.322c-.64 0-1.16.521-1.16 1.162v32.516c0 .642.52 1.161 1.16 1.161a2.324 2.324 0 0 1 2.323 2.323c0 .642.52 1.16 1.161 1.16h16.868c.292.827.677 1.607 1.16 2.324H2.322V11.613zM36.82 64.212a1.158 1.158 0 0 0-1.642 0l-3.824 3.824v-6.43A10.376 10.376 0 0 0 36 62.71c1.67 0 3.244-.403 4.645-1.104v6.428l-3.824-3.822zm32.856-6.148H44.684c.48-.716.866-1.496 1.16-2.322H62.71c.64 0 1.161-.519 1.161-1.161a2.324 2.324 0 0 1 2.323-2.323 1.16 1.16 0 0 0 1.16-1.161V29.222a17.423 17.423 0 0 0 2.323-3.15v31.993z" fill="#CAB48C"></path></symbol><symbol viewBox="0 0 81 82" id="icon-11"><path d="M1.35 82h64.8c.747 0 1.351-.61 1.351-1.365V68.36h9.449c.747 0 1.35-.61 1.35-1.363v-13.64c0-.753-.603-1.365-1.35-1.365h-9.449V39.715c0-.755-.604-1.365-1.35-1.365h-2.478a3.179 3.179 0 0 0-.552-2.553l-6.1-8.216 2.818-2.135a4.739 4.739 0 0 0 1.862-4.04l-.135-2.458a2.005 2.005 0 0 1 .786-1.707l2.817-2.133 1.186 1.596a1.35 1.35 0 0 0 1.078.545c.291 0 .577-.096.81-.272l11.139-8.444c1.788-1.355 2.15-3.92.81-5.727l-.75-1.012a4.027 4.027 0 0 0-5.67-.817L62.635 9.419a1.375 1.375 0 0 0-.27 1.91l1.186 1.596-2.817 2.135a4.739 4.739 0 0 0-1.862 4.04l.134 2.457a2 2 0 0 1-.786 1.708L55.403 25.4l-6.1-8.217a3.123 3.123 0 0 0-2.748-1.276 2.996 2.996 0 0 0-2.422 1.587L33.04 38.35H1.35c-.746 0-1.35.61-1.35 1.365v13.639c0 .754.604 1.364 1.35 1.364h9.45V65.63H1.35c-.746 0-1.35.61-1.35 1.365v13.639C0 81.39.604 82 1.35 82zM75.39 3.158a1.34 1.34 0 0 1 1.89.273l.75 1.012a1.375 1.375 0 0 1-.27 1.909L67.7 13.975l-2.369-3.193 10.06-7.624zM24.3 68.36h18.9v10.912H24.3V68.359zM35.1 54.72h18.899v10.912h-18.9V54.72zm29.7 24.55H45.9V68.36h18.9v10.91zm10.8-13.638H56.7V54.72h18.9v10.912zM64.8 51.99H45.9v-7.943l13.82-2.969h5.082v10.912H64.8zM46.51 18.787a.282.282 0 0 1 .247-.16l.026-.002a.44.44 0 0 1 .359.192l6.1 8.216-5.57 4.222a1.374 1.374 0 0 0-.27 1.91 1.343 1.343 0 0 0 1.89.273l5.57-4.222 6.1 8.216c.097.12.126.282.075.428a.285.285 0 0 1-.22.194L34.033 43.81a.441.441 0 0 1-.43-.186.437.437 0 0 1-.055-.468l12.963-24.37zM31.445 45.26c.72 1 1.955 1.477 3.15 1.217l8.607-1.85v7.363H24.3V41.079h7.287l-.419.787a3.158 3.158 0 0 0 .276 3.395zM2.7 46.534h2.7c.747 0 1.35-.61 1.35-1.364 0-.755-.603-1.365-1.35-1.365h-2.7v-2.727H21.6v10.911H2.7v-5.455zm10.8 8.186H32.4v10.912H13.499V54.72zm-10.8 13.64H21.6v10.91H2.7V68.36z" fill="#CAB48C"></path><path d="M17.55 45.171c0-.752-.603-1.364-1.35-1.364h-5.4c-.745 0-1.35.61-1.35 1.364 0 .755.603 1.365 1.35 1.365h5.4a1.359 1.359 0 0 0 1.35-1.365z" fill="#CAB48C"></path></symbol><symbol viewBox="0 0 57 68" id="icon-12"><path d="M56.934 19.179l-.002-.053a71.55 71.55 0 0 1-.06-2.082c-.055-3.694-2.988-6.75-6.679-6.956-7.698-.43-13.651-2.942-18.738-7.905l-.043-.042a4.28 4.28 0 0 0-5.822 0l-.043.042C20.46 7.146 14.507 9.657 6.81 10.088 3.12 10.295.185 13.35.131 17.044a72.297 72.297 0 0 1-.06 2.082l-.003.122c-.15 7.855-.336 17.63 2.933 26.504 1.796 4.88 4.517 9.121 8.086 12.608 4.064 3.97 9.389 7.123 15.825 9.37a4.83 4.83 0 0 0 3.182-.001c6.428-2.251 11.746-5.405 15.808-9.375 3.568-3.487 6.289-7.73 8.087-12.611 3.28-8.9 3.094-18.695 2.945-26.564zm-6.631 25.203c-3.446 9.353-10.481 15.775-21.506 19.634a.902.902 0 0 1-.593.001c-11.037-3.852-18.076-10.27-21.52-19.623-3.011-8.18-2.84-17.154-2.69-25.071l.002-.045c.03-.68.05-1.392.062-2.176a3.155 3.155 0 0 1 2.972-3.09c4.355-.243 8.181-1.086 11.697-2.575 3.511-1.488 6.63-3.584 9.532-6.41a.362.362 0 0 1 .486 0c2.903 2.826 6.021 4.923 9.532 6.41 3.515 1.49 7.342 2.332 11.696 2.575a3.155 3.155 0 0 1 2.972 3.09c.012.788.033 1.5.063 2.176.149 7.926.315 16.908-2.705 25.104z" fill="#CAB48C"></path><path d="M28.5 17.804c-9.198 0-16.682 7.49-16.682 16.698 0 9.207 7.484 16.697 16.682 16.697 9.199 0 16.682-7.49 16.682-16.697-.002-9.208-7.485-16.698-16.682-16.698zm0 29.463c-7.032 0-12.754-5.727-12.754-12.765 0-7.04 5.72-12.766 12.754-12.766 7.032 0 12.753 5.727 12.753 12.766 0 7.038-5.722 12.765-12.753 12.765z" fill="#CAB48C"></path><path d="M33.294 29.318l-7.749 7.756-2.103-2.105a1.963 1.963 0 0 0-2.778 0 1.968 1.968 0 0 0 0 2.779l3.492 3.495a1.958 1.958 0 0 0 2.777 0l9.136-9.146a1.968 1.968 0 0 0 0-2.779 1.957 1.957 0 0 0-2.775 0z" fill="#CAB48C"></path></symbol><symbol viewBox="0 0 64 64" id="icon-13"><path d="M36.017 16.067H25.975c-1.037 0-1.875.84-1.875 1.875v14.191h-2.142a1.876 1.876 0 0 0 0 3.75H24.1v4.284h-2.142a1.876 1.876 0 0 0 0 3.75H24.1v4.15a1.875 1.875 0 1 0 3.75 0v-4.15h8.167a1.876 1.876 0 0 0 0-3.75H27.85v-4.284h8.167c5.463 0 9.908-4.445 9.908-9.908 0-5.598-4.56-9.908-9.908-9.908zm0 16.066H27.85V19.817h8.167a6.153 6.153 0 0 1 6.158 6.158 6.165 6.165 0 0 1-6.158 6.158z" fill="#CAB48C"></path><path d="M32 0C14.355 0 0 14.355 0 32s14.355 32 32 32 32-14.355 32-32S49.645 0 32 0zm0 60.25C16.423 60.25 3.75 47.577 3.75 32S16.423 3.75 32 3.75 60.25 16.423 60.25 32 47.577 60.25 32 60.25z" fill="#CAB48C"></path></symbol><symbol viewBox="0 0 72 68" id="icon-14"><path d="M71.86 37.233c-.646-6.391-3.55-12.416-8.18-16.966a28.386 28.386 0 0 0-13.892-7.496V9.26c2.082-.51 3.628-2.36 3.628-4.562 0-2.591-2.144-4.699-4.78-4.699H38.51c-2.637 0-4.781 2.108-4.781 4.7 0 2.2 1.547 4.05 3.627 4.56v3.522a28.384 28.384 0 0 0-16.237 10.15c-.035-.003-.07-.005-.107-.005h-10.02c-.776 0-1.406.619-1.406 1.382 0 .762.63 1.382 1.407 1.382h8.214a27.49 27.49 0 0 0-2.497 5.313H1.406C.63 31.004 0 31.623 0 32.386c0 .763.63 1.382 1.406 1.382h14.511a27.709 27.709 0 0 0-.699 5.313H9c-.776 0-1.406.619-1.406 1.382 0 .763.63 1.382 1.406 1.382h6.263c.119 1.79.411 3.569.878 5.313H7.03c-.776 0-1.406.619-1.406 1.382 0 .763.63 1.382 1.406 1.382H17.04a27.709 27.709 0 0 0 6.468 9.83c4.633 4.555 10.77 7.41 17.279 8.042.93.09 1.858.134 2.787.134 5.487 0 10.906-1.56 15.503-4.503a1.367 1.367 0 0 0 .41-1.913 1.42 1.42 0 0 0-1.946-.403c-10.063 6.44-23.54 5.047-32.044-3.312a24.88 24.88 0 0 1 0-35.575c9.978-9.808 26.216-9.808 36.195 0 8.494 8.348 9.919 21.583 3.388 31.468a1.368 1.368 0 0 0 .413 1.911 1.42 1.42 0 0 0 1.945-.406 27.618 27.618 0 0 0 4.423-17.962zM36.542 4.699c0-1.067.884-1.935 1.97-1.935h10.124c1.086 0 1.969.868 1.969 1.935 0 1.067-.883 1.935-1.969 1.935H38.51c-1.085 0-1.969-.868-1.969-1.935zm3.627 7.607V9.398h6.808v2.903a29.132 29.132 0 0 0-6.808.005z" fill="#CAB48C"></path><path d="M62.688 57.392c-.371 0-.733.148-.994.405a1.375 1.375 0 0 0-.412.977c0 .364.149.72.412.978a1.42 1.42 0 0 0 1.988 0 1.38 1.38 0 0 0 .412-.978c0-.363-.15-.72-.412-.977a1.432 1.432 0 0 0-.994-.405zM43.594 18.569c-12.03 0-21.815 9.618-21.815 21.44 0 11.823 9.786 21.441 21.815 21.441 12.029 0 21.815-9.618 21.815-21.44.001-11.823-9.785-21.441-21.815-21.441zm0 40.117c-10.478 0-19.003-8.379-19.003-18.677s8.525-18.676 19.003-18.676c10.48 0 19.002 8.378 19.002 18.676.002 10.298-8.523 18.677-19.002 18.677z" fill="#CAB48C"></path><path d="M52.49 29.312l-6.965 6.845a4.4 4.4 0 0 0-1.931-.442c-.694 0-1.347.16-1.93.442l-3.117-3.062c-.55-.54-1.44-.54-1.989 0a1.364 1.364 0 0 0 0 1.954l3.118 3.064a4.205 4.205 0 0 0-.451 1.898c0 2.367 1.96 4.294 4.369 4.294 2.41 0 4.37-1.927 4.37-4.294a4.21 4.21 0 0 0-.451-1.898l6.965-6.846a1.366 1.366 0 0 0 0-1.954 1.423 1.423 0 0 0-1.988-.001zm-8.896 12.227c-.86 0-1.557-.687-1.557-1.53 0-.844.698-1.53 1.557-1.53s1.556.687 1.556 1.53c.002.845-.697 1.53-1.556 1.53zM58.63 38.644h-1.303c-.776 0-1.406.619-1.406 1.382 0 .763.63 1.382 1.406 1.382h1.304c.776 0 1.406-.62 1.406-1.382 0-.763-.63-1.382-1.406-1.382zM29.862 38.61H28.56c-.777 0-1.407.62-1.407 1.383s.63 1.382 1.407 1.382h1.302c.776 0 1.406-.62 1.406-1.382 0-.763-.63-1.382-1.406-1.382zM43.612 27.894c.776 0 1.406-.62 1.406-1.382V25.23c0-.762-.63-1.382-1.406-1.382-.776 0-1.406.62-1.406 1.383v1.28c0 .765.63 1.383 1.406 1.383zM43.577 52.125c-.776 0-1.406.62-1.406 1.382v1.28c0 .763.63 1.382 1.406 1.382.776 0 1.406-.62 1.406-1.382v-1.28c0-.764-.628-1.382-1.406-1.382zM1.406 47.155c-.37 0-.732.148-.994.405a1.38 1.38 0 0 0-.412.977c0 .365.15.72.412.977s.624.405.994.405.733-.148.994-.405a1.38 1.38 0 0 0 .413-.977c0-.363-.151-.72-.413-.977a1.43 1.43 0 0 0-.994-.405z" fill="#CAB48C"></path></symbol><symbol viewBox="0 0 66 68" id="icon-2"><path d="M14.87 27.832h5.246c1.433 0 2.599-1.147 2.599-2.555v-5.16c0-1.41-1.166-2.556-2.599-2.556H14.87c-1.431 0-2.595 1.146-2.595 2.556v5.16c0 1.408 1.166 2.555 2.595 2.555zm.099-7.616h5.052v4.958h-5.052v-4.958z" fill="#CAB48C"></path><path d="M61.65 37.117c-.644 0-1.293.136-1.882.405-.454-1.42-1.535-2.332-2.773-2.713V6.267C56.995 2.812 54.138 0 50.627 0H6.368C2.858 0 0 2.812 0 6.267v3.535c0 1.66 1.372 3.01 3.057 3.01h1.312v49.88c0 1.662 1.373 3.011 3.059 3.011h35.647c2.362 1.51 4.939 2.297 7.56 2.297 1.456 0 2.923-.243 4.374-.74 3.129-1.07 5.925-3.308 7.873-6.3 2.066-3.176 3.143-7.08 3.118-11.288v-8.105c0-2.92-2.187-4.45-4.35-4.45zM7.063 62.693V12.812h12.342c.743 0 1.347-.595 1.347-1.328 0-.733-.604-1.328-1.347-1.328H3.057a.364.364 0 0 1-.363-.354V6.267c0-1.992 1.649-3.61 3.674-3.61h39.058a6.16 6.16 0 0 0-1.166 3.61v3.535a.364.364 0 0 1-.364.354H31.527c-.743 0-1.347.595-1.347 1.328 0 .733.604 1.328 1.347 1.328h12.369c1.686 0 3.058-1.351 3.058-3.01V6.267c0-1.992 1.649-3.61 3.673-3.61 2.026 0 3.674 1.618 3.674 3.61v28.542a4.394 4.394 0 0 0-.533.202c-.614-1.921-2.376-2.918-4.12-2.918-.562 0-1.126.102-1.654.308v-7.478c0-2.922-2.187-4.45-4.346-4.45-2.16 0-4.348 1.528-4.348 4.45v19.19c0 .604.01 1.157.022 1.642l.003.16-3.13-3.31c-1.825-1.925-4.461-2.122-6.413-.48-1.922 1.616-2.807 4.798-.663 7.51l9.348 11.83c.445.564.907 1.091 1.383 1.584H7.428a.365.365 0 0 1-.365-.356zM63.306 49.68c.043 7.234-3.56 13.15-9.179 15.071-4.754 1.626-9.813-.212-13.534-4.917l-9.348-11.831c-1.115-1.412-.684-3.04.286-3.859.226-.191.66-.48 1.209-.48.438 0 .948.184 1.487.751l3.279 3.467c.927.978 2.078 2.194 3.355 1.684 1.016-.407 1.111-1.54 1.142-1.912.043-.512.03-1.148.013-1.953-.01-.475-.02-1.011-.02-1.589v-19.19c0-1.707 1.377-1.794 1.654-1.794.276 0 1.652.087 1.652 1.794v19.013c0 .733.604 1.328 1.347 1.328s1.347-.595 1.347-1.328v-7.393c0-1.707 1.377-1.794 1.654-1.794.436 0 .851.154 1.14.421.34.314.514.776.514 1.373v7.393c0 .733.603 1.328 1.347 1.328.743 0 1.347-.595 1.347-1.328v-4.879c0-1.708 1.376-1.795 1.652-1.795.437 0 .851.154 1.142.421.34.316.514.778.514 1.374v4.88c0 .732.603 1.327 1.347 1.327.743 0 1.347-.595 1.347-1.328V41.57c0-1.708 1.38-1.794 1.654-1.794.436 0 .853.154 1.142.421.34.314.514.776.514 1.373l-.004 8.112z" fill="#CAB48C"></path><path d="M25.689 18.888c0 .733.603 1.328 1.347 1.328h10.78c.744 0 1.348-.595 1.348-1.328 0-.733-.604-1.328-1.347-1.328H27.036c-.744 0-1.347.595-1.347 1.328zM35.527 25.176h-8.493c-.744 0-1.347.595-1.347 1.328 0 .733.603 1.328 1.347 1.328h8.493c.743 0 1.347-.595 1.347-1.328 0-.733-.604-1.328-1.347-1.328zM13.622 35.45h20.572c.744 0 1.347-.595 1.347-1.328 0-.733-.603-1.328-1.347-1.328H13.622c-.743 0-1.347.595-1.347 1.328 0 .733.604 1.328 1.347 1.328zM13.622 43.066H24.72c.745 0 1.347-.595 1.347-1.328 0-.733-.602-1.328-1.347-1.328H13.622c-.743 0-1.347.595-1.347 1.328 0 .733.604 1.328 1.347 1.328zM13.622 50.685h9.773c.744 0 1.347-.595 1.347-1.329 0-.733-.603-1.328-1.347-1.328h-9.773c-.743 0-1.347.595-1.347 1.328 0 .734.604 1.329 1.347 1.329zM27.96 55.643H13.623c-.743 0-1.347.595-1.347 1.328 0 .733.604 1.328 1.347 1.328h14.339c.743 0 1.347-.595 1.347-1.328 0-.733-.602-1.328-1.347-1.328zM25.466 12.812h.007c.744 0 1.344-.595 1.344-1.328 0-.733-.607-1.328-1.35-1.328-.744 0-1.348.595-1.348 1.328 0 .733.604 1.328 1.347 1.328z" fill="#CAB48C"></path></symbol><symbol viewBox="0 0 66 68" id="icon-3"><path d="M9.104 62.334c0 .625-.51 1.133-1.138 1.133a1.137 1.137 0 0 1-1.138-1.133c0-.626.51-1.134 1.138-1.134.627 0 1.138.508 1.138 1.133zM35.276 49.867H33v2.266h2.276v-2.266zM39.828 49.867h-2.276v2.266h2.276v-2.266zM30.724 40.8h-4.552c-.627 0-1.138.508-1.138 1.133v4.534c0 .625.51 1.133 1.138 1.133h4.552c.628 0 1.138-.508 1.138-1.133v-4.534c0-.625-.51-1.133-1.138-1.133zm-1.138 4.533H27.31v-2.267h2.276v2.267zM56.897 49.867H54.62v2.266h2.276v-2.266zM61.448 49.867h-2.276v2.266h2.276v-2.266zM47.793 47.6h4.552c.628 0 1.138-.508 1.138-1.133v-4.534c0-.625-.51-1.133-1.138-1.133h-4.552c-.628 0-1.138.508-1.138 1.133v4.534c0 .625.51 1.133 1.138 1.133zm1.138-4.534h2.276v2.267h-2.276v-2.267zM35.276 31.733H33V34h2.276v-2.267zM39.828 31.733h-2.276V34h2.276v-2.267zM26.172 29.467h4.552c.628 0 1.138-.508 1.138-1.133V23.8c0-.625-.51-1.133-1.138-1.133h-4.552c-.627 0-1.138.508-1.138 1.133v4.534c0 .625.51 1.133 1.138 1.133zm1.138-4.533h2.276V27.2H27.31v-2.266zM56.897 31.733H54.62V34h2.276v-2.267zM61.448 31.733h-2.276V34h2.276v-2.267zM47.793 29.467h4.552c.628 0 1.138-.508 1.138-1.133V23.8c0-.625-.51-1.133-1.138-1.133h-4.552c-.628 0-1.138.508-1.138 1.133v4.534c0 .625.51 1.133 1.138 1.133zm1.138-4.533h2.276V27.2h-2.276v-2.266z" fill="#CAB48C"></path><path d="M64.862 0H21.621c-.628 0-1.138.508-1.138 1.133v55.534H17.48l-6.51-5.404A1.14 1.14 0 0 0 10.24 51H9.103V31.952l2.195-5.464a1.11 1.11 0 0 0 .081-.421v-4.534c0-.625-.51-1.133-1.138-1.133H1.138C.51 20.4 0 20.908 0 21.533v4.534c0 .143.027.287.082.42l2.194 5.465V51H1.138C.51 51 0 51.508 0 52.133V61.2c0 .625.51 1.133 1.138 1.133h1.138c0 3.13 2.547 5.667 5.69 5.667 3.142 0 5.69-2.537 5.69-5.667h6.827v4.534c0 .625.51 1.133 1.138 1.133h6.827c.628 0 1.138-.508 1.138-1.133v-4.534h9.104v4.534c0 .625.51 1.133 1.138 1.133h6.827c.628 0 1.138-.508 1.138-1.133v-4.534h9.104v4.534c0 .625.51 1.133 1.138 1.133h6.827C65.49 68 66 67.492 66 66.867V1.133C66 .508 65.49 0 64.862 0zM22.76 60.067v-3.4h40.965v3.4H22.76zm40.965-23.8H44.38V20.4h19.345v15.867zm0 18.133H44.38V38.533h19.345V54.4zm-40.965 0V38.533h19.344V54.4H22.76zm19.344-18.133H22.76V20.4h19.344v15.867zm21.621-18.134H44.38V2.267h19.345v15.866zM22.76 2.267h19.344v15.866H22.76V2.267zm-20.483 20.4h6.827v3.18L7.196 30.6h-.368v-5.667H4.552V30.6h-.368l-1.908-4.752v-3.181zm2.276 10.2h2.276V51H4.552V32.867zm3.414 32.866c-1.381 0-2.625-.829-3.154-2.098a3.386 3.386 0 0 1 .74-3.704 3.42 3.42 0 0 1 3.718-.737 3.397 3.397 0 0 1 2.11 3.14 3.41 3.41 0 0 1-3.414 3.4zm5.213-5.666a5.69 5.69 0 0 0-5.213-3.4 5.69 5.69 0 0 0-5.214 3.4h-.476v-6.8H9.83l6.101 5.064v1.736h-2.752zm5.028-1.134h2.276v1.134h-2.276v-1.134zm9.103 6.8H22.76v-3.4h4.551v3.4zm18.207 0h-4.552v-3.4h4.552v3.4zm18.207 0h-4.552v-3.4h4.552v3.4z" fill="#CAB48C"></path><path d="M35.276 13.6H33v2.267h2.276V13.6zM39.828 13.6h-2.276v2.267h2.276V13.6zM30.724 4.533h-4.552c-.627 0-1.138.508-1.138 1.134V10.2c0 .625.51 1.133 1.138 1.133h4.552c.628 0 1.138-.508 1.138-1.133V5.667c0-.626-.51-1.134-1.138-1.134zm-1.138 4.534H27.31V6.8h2.276v2.267zM56.897 13.6H54.62v2.267h2.276V13.6zM61.448 13.6h-2.276v2.267h2.276V13.6zM47.793 11.333h4.552c.628 0 1.138-.508 1.138-1.133V5.667c0-.626-.51-1.134-1.138-1.134h-4.552c-.628 0-1.138.508-1.138 1.134V10.2c0 .625.51 1.133 1.138 1.133zM48.931 6.8h2.276v2.267h-2.276V6.8z" fill="#CAB48C"></path></symbol><symbol viewBox="0 0 74 74" id="icon-4"><path d="M61.654 25.89a6.163 6.163 0 0 0 6.166 6.163 6.163 6.163 0 0 0 1.232-12.203v-2.59c0-.68-.552-1.232-1.233-1.232H54.194c-.24-3.416-1.5-6.68-3.612-9.376l1.72-1.72h14.51a3.699 3.699 0 1 0 0-2.465h-15.02c-.327 0-.641.13-.873.36L48.93 4.82c-6.852-6.599-17.755-6.394-24.352.457a17.219 17.219 0 0 0-4.776 10.75H9.445l-4.03-9.064a3.687 3.687 0 1 0-2.553.328l4.654 10.472c.198.445.64.731 1.126.73h11.159a17.173 17.173 0 0 0 4.756 10.697L14.148 39.597C7.418 38.59 1.146 43.227.137 49.956c-1.01 6.73 3.63 13.001 10.359 14.01.203.031.407.056.612.076v6.227c0 .681.551 1.233 1.233 1.233h11.322a3.699 3.699 0 1 0 0-2.466h-10.09v-4.992c6.772-.675 11.714-6.711 11.039-13.482a12.321 12.321 0 0 0-7.71-10.228l9.493-9.493a17.146 17.146 0 0 0 21.105.085l6.839 8.707c-9.444 1.317-16.033 10.04-14.715 19.484C40.94 68.56 49.665 75.15 59.108 73.832c9.443-1.317 16.033-10.041 14.715-19.484a17.266 17.266 0 0 0-16.47-14.87L49.35 29.294a17.189 17.189 0 0 0 4.842-10.8h12.391v1.357a6.173 6.173 0 0 0-4.93 6.04zm8.63-23.423a1.232 1.232 0 1 1 .001 2.465 1.232 1.232 0 0 1 0-2.465zm-66.573 0a1.232 1.232 0 1 1 0 2.465 1.232 1.232 0 0 1 0-2.465zm23.424 66.571a1.233 1.233 0 1 1 0 2.465 1.233 1.233 0 0 1 0-2.465zM9.875 48.081a2.465 2.465 0 1 1 4.93-.002 2.465 2.465 0 0 1-4.93.002zm2.466 4.93a4.932 4.932 0 0 1 4.931 4.932v2.364a9.776 9.776 0 0 1-9.863 0v-2.364a4.93 4.93 0 0 1 4.932-4.931zm9.862-1.232a9.803 9.803 0 0 1-2.465 6.501v-.337a7.394 7.394 0 0 0-3.831-6.475 4.932 4.932 0 1 0-7.134 0 7.399 7.399 0 0 0-3.83 6.475v.337c-3.602-4.085-3.211-10.317.874-13.92 4.086-3.602 10.318-3.21 13.92.874a9.848 9.848 0 0 1 2.466 6.545zm6.165-22.528V26.26a4.068 4.068 0 0 1 4.068-4.069h2.737l-1.79 4.472c-.183.458-.075.982.275 1.33l2.466 2.466c.48.48 1.262.48 1.743 0l2.465-2.466c.35-.348.458-.872.275-1.33l-1.788-4.472h2.74a4.068 4.068 0 0 1 4.068 4.069v2.988a14.688 14.688 0 0 1-17.26 0v.004zm10.33-17.669l4.405 2.644c-.495 3.018-4.213 5.5-6.105 5.5a7.767 7.767 0 0 1-5.994-4.996c2.112-.174 5.923-.813 7.693-3.148zm-7.797.677c.33-4.133 2.275-6.094 6.097-6.094 3.498 0 5.424 1.656 5.976 5.107l-4.109-2.465a1.235 1.235 0 0 0-1.804.665c-.623 1.871-3.992 2.58-6.16 2.787zm6.097 12.018l1.018 2.549-1.018 1.02-1.02-1.02 1.02-2.55zm11.095 44.422v-2.991a4.068 4.068 0 0 1 4.068-4.068h2.737l-1.789 4.472c-.183.457-.075.981.275 1.33l2.465 2.465c.481.48 1.262.48 1.743 0l2.466-2.465c.35-.349.458-.873.274-1.33l-1.787-4.472h2.74a4.068 4.068 0 0 1 4.068 4.068v2.988a14.688 14.688 0 0 1-17.26 0v.003zm10.33-17.67l4.406 2.645c-.495 3.02-4.214 5.502-6.106 5.502a7.767 7.767 0 0 1-5.993-4.996c2.111-.174 5.922-.814 7.693-3.15zm-7.796.677c.33-4.131 2.274-6.093 6.096-6.093 3.498 0 5.425 1.655 5.976 5.107l-4.108-2.465a1.235 1.235 0 0 0-1.805.665c-.622 1.873-3.991 2.581-6.16 2.786zm6.096 12.02l1.019 2.549-1.019 1.02-1.019-1.02 1.019-2.549zm14.794-7.016c0 3.594-1.316 7.062-3.698 9.753v-.754a6.512 6.512 0 0 0-5.718-6.476 8.559 8.559 0 0 0 3.252-6.221c0-8.152-4.694-9.863-8.63-9.863-3.936 0-8.63 1.71-8.63 9.863a8.555 8.555 0 0 0 3.252 6.224 6.513 6.513 0 0 0-5.718 6.473v.75c-5.392-6.134-4.79-15.475 1.343-20.867 6.133-5.392 15.475-4.791 20.867 1.342a14.79 14.79 0 0 1 3.68 9.776zM48.093 27.012v-.753a6.512 6.512 0 0 0-5.717-6.477 8.56 8.56 0 0 0 3.251-6.221c0-8.152-4.694-9.863-8.63-9.863-3.935 0-8.63 1.71-8.63 9.863a8.555 8.555 0 0 0 3.252 6.224 6.513 6.513 0 0 0-5.717 6.474v.748c-5.405-6.127-4.817-15.476 1.31-20.88C33.339.723 42.689 1.31 48.093 7.437a14.794 14.794 0 0 1 0 19.57v.005zm23.424-1.122a3.7 3.7 0 0 1-7.397 0 3.7 3.7 0 0 1 7.397 0z" fill="#CAB48C"></path></symbol><symbol viewBox="0 0 65 64" id="icon-5"><path d="M57.6 33.945h-5.333v-2.122h3.2c.357 0 .691-.178.889-.474a26.598 26.598 0 0 0 3.31-6.972c.434-1.434.745-2.9.928-4.385a4.22 4.22 0 0 0 .206-5.822v-.38C60.8 6.174 54.592 0 46.933 0c-7.658 0-13.866 6.174-13.866 13.79v9.547a1.065 1.065 0 0 0 1.168 1.055c.334-.031.666-.072 1-.127a25.923 25.923 0 0 0 1.787 4.438 4.258 4.258 0 0 0-2.889-1.123H4.267C1.91 27.584.004 29.48 0 31.823v19.094c.004 2.343 1.911 4.24 4.267 4.243h7.168l-1.803 7.17a1.05 1.05 0 0 0 .194.908c.202.258.512.408.84.408h17.067c.589 0 1.067-.475 1.067-1.06v-4.243c0-.586-.478-1.061-1.067-1.061h-.282l.437-2.122h5.508l-2.422 8.188 2.048.597 2.269-7.671c.25.488.547.953.885 1.388l.09 6 2.134-.032-.096-6.364a1.066 1.066 0 0 0-.249-.667 6.813 6.813 0 0 1-1.296-2.337 4.203 4.203 0 0 0 1.641-3.345v-14.85h1.328l.74 2.572a6.717 6.717 0 0 0 6.465 4.858 6.717 6.717 0 0 0 6.466-4.858l.74-2.573h1.328v10.608c0 .25.089.492.25.682a7.1 7.1 0 0 1 1.12 7.41l-3.308.366-2.67-1.328 1.962-3.01a3.08 3.08 0 0 0 .432-2.405 3.176 3.176 0 0 0-1.482-2.012 3.36 3.36 0 0 0-4.493 1.011l-7.637 11.69a1.052 1.052 0 0 0-.142.824l.704 2.928c.135.564.7.915 1.269.788l1.474-.325c.2.224.489.352.79.352H58.67c2.944-.004 5.33-2.377 5.334-5.304V40.309c-.008-3.512-2.872-6.36-6.404-6.364zm-16-4.243h-1.554a24.305 24.305 0 0 1-1.968-3.786 10.807 10.807 0 0 0 3.522 3.38v.406zm1.552-1.973a8.74 8.74 0 0 1-4.1-4.525A17.304 17.304 0 0 0 49.02 12.42l1.18-3.76a12.479 12.479 0 0 0 5.268 5.768v5.727a8.473 8.473 0 0 1-2.706 6.196 8.569 8.569 0 0 1-6.397 2.272 8.218 8.218 0 0 1-3.212-.894zm16.581-10.757a2.13 2.13 0 0 1-2.133 2.122V14.85a2.13 2.13 0 0 1 2.133 2.121zm-2.108 6.788a24.41 24.41 0 0 1-2.74 5.942h-2.618v-.365a10.52 10.52 0 0 0 5.28-8.122h.053c.219 0 .44-.015.656-.05a24.012 24.012 0 0 1-.631 2.595zM35.2 13.79c-.009-6.267 4.964-11.423 11.26-11.674 6.297-.25 11.67 4.49 12.166 10.737a4.344 4.344 0 0 0-1.026-.124h-.802a10.318 10.318 0 0 1-5.024-5.896l-.63-1.867a1.07 1.07 0 0 0-2.03.021l-2.133 6.8c-1.685 5.359-6.224 9.342-11.781 10.335V13.79zM12.032 61.525l3.733-14.851h6.493l-1.867 14.85h-8.359zm14.635 0h-4.125l.267-2.122h3.858v2.122zm-1.394-4.243h-2.197l.266-2.122h2.37l-.44 2.122zm10.994-6.365c0 .819-.471 1.563-1.213 1.915-.14.067-.29.117-.442.148a2.17 2.17 0 0 1-.479.059H23.61l.917-7.295a1.057 1.057 0 0 0-.26-.833 1.068 1.068 0 0 0-.8-.358h-8.533c-.489 0-.915.332-1.034.804l-1.931 7.682H4.267a2.13 2.13 0 0 1-2.134-2.122V31.823a2.13 2.13 0 0 1 2.134-2.121h29.866a2.13 2.13 0 0 1 2.134 2.121v19.094zM38.4 33.945v-2.122c0-.3-.032-.6-.096-.893.09.142.181.282.274.421.197.295.531.474.889.474H41.6v2.122h-3.2v-.002zm12.946 4.116a4.537 4.537 0 0 1-1.643 2.39 4.618 4.618 0 0 1-4.226.684 4.581 4.581 0 0 1-2.958-3.078l-.58-2.019a2.126 2.126 0 0 0 1.794-2.091v-3.685a10.199 10.199 0 0 0 3.204.502 10.75 10.75 0 0 0 3.195-.486v3.667a2.126 2.126 0 0 0 1.793 2.091l-.58 2.025zm6.254 8.238V36.066c2.356.004 4.263 1.9 4.267 4.243v13.902l-2.68.297a9.206 9.206 0 0 0-1.587-8.209zm-8.535 2.247a1.198 1.198 0 0 1 1.605-.346c.253.145.434.387.503.668a.995.995 0 0 1-.144.774l-2.238 3.432-3.086.614 3.36-5.142zm-7.389 11.308l.99-1.515v2.843l-.636.141-.354-1.469zm16.99 1.67H44.8V56.03l4.117-.819 3.94 1.96c.185.091.391.128.595.105l8.415-.931v1.998a3.194 3.194 0 0 1-3.2 3.182z" fill="#CAB48C"></path><path d="M50.133 21.216H48c0 .585-.478 1.06-1.067 1.06a1.065 1.065 0 0 1-1.066-1.06h-2.134a3.191 3.191 0 0 0 3.2 3.182c1.767 0 3.2-1.425 3.2-3.182zM51.733 18.033c.647 0 1.23-.387 1.48-.98a1.588 1.588 0 0 0-.347-1.735 1.605 1.605 0 0 0-1.744-.345 1.588 1.588 0 0 0 .611 3.06zM8.533 31.823H4.267v2.122h4.266v-2.122zM14.933 31.823h-4.266v2.122h4.266v-2.122zM21.333 31.823h-4.266v2.122h4.266v-2.122zM27.733 31.823h-4.266v2.122h4.266v-2.122zM34.133 31.823h-4.266v2.122h4.266v-2.122z" fill="#CAB48C"></path></symbol><symbol viewBox="0 0 56 58" id="icon-6"><path d="M6.533 37.42a2.808 2.808 0 0 0-1.98 4.79 2.792 2.792 0 0 0 3.05.607 2.806 2.806 0 0 0-1.07-5.398zm0 3.741a.932.932 0 0 1-.862-.577.934.934 0 1 1 1.795-.359.935.935 0 0 1-.933.936zM42 37.42a2.808 2.808 0 0 0-1.98 4.79 2.792 2.792 0 0 0 3.05.607 2.806 2.806 0 0 0 1.728-2.593A2.803 2.803 0 0 0 42 37.42zm0 3.741a.932.932 0 0 1-.862-.577.933.933 0 1 1 1.795-.359.935.935 0 0 1-.933.936z" fill="#CAB48C"></path><path d="M48.533 40.226a6.558 6.558 0 0 0-1.952-4.67 6.517 6.517 0 0 0-4.692-1.877c-3.54.06-6.421 3.037-6.421 6.64v3.144c-2.557-.699-6.286-1.365-11.2-1.365s-8.643.666-11.2 1.365v-3.237c0-1.78-.723-3.485-2.003-4.72a6.528 6.528 0 0 0-4.784-1.824 6.563 6.563 0 0 0-6.275 6.29A6.545 6.545 0 0 0 5.6 46.709v3.807a3.743 3.743 0 0 0 3.733 3.742v2.806c0 .517.419.936.934.936h2.8a.936.936 0 0 0 .835-.518l1.608-3.224h17.514l1.609 3.224c.157.317.48.518.835.518h2.8c.515 0 .933-.42.933-.935v-2.807a3.743 3.743 0 0 0 3.734-3.742v-3.809a6.554 6.554 0 0 0 5.598-6.481zM12.49 56.129H11.2v-1.87h2.224l-.934 1.87zm24.844 0h-1.29l-.933-1.87h2.223v1.87zM42 44.903a.935.935 0 0 0-.934.936v4.677a1.871 1.871 0 0 1-1.866 1.871H9.333a1.871 1.871 0 0 1-1.867-1.87v-4.678a.935.935 0 0 0-.933-.936 4.654 4.654 0 0 1-3.363-1.436 4.679 4.679 0 0 1 3.181-7.916 4.658 4.658 0 0 1 3.418 1.302 4.686 4.686 0 0 1 1.43 3.373v3.812c-1.47.514-2.244.94-2.323.985l.913 1.633c.048-.028 4.934-2.688 14.478-2.688 9.543 0 14.429 2.66 14.476 2.686l.914-1.63c-.08-.046-.852-.472-2.324-.986v-3.72c0-2.588 2.058-4.727 4.586-4.77a4.664 4.664 0 0 1 3.338 1.327 4.683 4.683 0 0 1 .056 6.644A4.66 4.66 0 0 1 42 44.903zM7.467 27.13a1.871 1.871 0 0 1 1.866-1.872H39.2a1.872 1.872 0 0 1 1.867 1.871v4.678h1.866v-4.678a3.743 3.743 0 0 0-3.733-3.742H9.333A3.743 3.743 0 0 0 5.6 27.13v4.678h1.867v-4.678z" fill="#CAB48C"></path><path d="M20.533 29h-1.867v1.871h1.867V29zM25.2 33.678h-1.867v1.87H25.2v-1.87zM15.867 33.678H14v1.87h1.867v-1.87zM20.533 38.355h-1.867v1.87h1.867v-1.87zM29.867 29H28v1.871h1.867V29zM34.533 33.678h-1.867v1.87h1.867v-1.87zM29.867 38.355H28v1.87h1.867v-1.87zM52.267 0H26.133A3.743 3.743 0 0 0 22.4 3.742v.935h1.867v-.935a1.87 1.87 0 0 1 1.866-1.871h12.134v19.645h1.866V1.871h12.134a1.871 1.871 0 0 1 1.866 1.87v46.775a1.871 1.871 0 0 1-1.866 1.871h-8.4v1.871h2.223l1.608 3.224c.159.317.48.518.835.518h2.8c.515 0 .934-.42.934-.935v-2.807A3.743 3.743 0 0 0 56 50.516V3.742A3.743 3.743 0 0 0 52.267 0zM50.4 56.129h-1.29l-.933-1.87H50.4v1.87z" fill="#CAB48C"></path><path d="M6.533 19.645h8.4v1.871H16.8v-1.87h8.4a.94.94 0 0 0 .93-1.013l-.933-11.227a.934.934 0 0 0-.93-.858H16.8v-1.87h-1.867v1.87H7.466a.934.934 0 0 0-.93.858l-.933 11.226a.934.934 0 0 0 .93 1.013zM8.325 8.42h15.083l.777 9.355H7.547l.778-9.355z" fill="#CAB48C"></path></symbol><symbol viewBox="0 0 67 59" id="icon-7"><path d="M66.037 59H.963A.96.96 0 0 1 0 58.038V.962A.96.96 0 0 1 .963 0h58.403a.96.96 0 0 1 .963.962v28.454h5.708a.96.96 0 0 1 .963.962v27.655a.966.966 0 0 1-.963.967zM17.52 57.075h47.555V31.34H45.167a.96.96 0 0 1-.962-.962v-1.852h-2.378a.962.962 0 1 1 0-1.925h2.378v-6.22a.962.962 0 1 1 1.925 0v9.035h5.593V1.924H46.13v7.04a.962.962 0 1 1-1.925 0v-2.95H29.072a.965.965 0 0 1-.963-.962V1.924h-3.514v4.47a.96.96 0 0 1-.962.962.96.96 0 0 1-.963-.962v-4.47h-1.04v2.483a.96.96 0 0 1-.962.962h-.299c.174.395.27.828.27 1.285v2.502a3.208 3.208 0 0 1-6.416 0V6.654c0-.457.096-.89.265-1.285h-.299a.962.962 0 0 1-.962-.962V1.924H9.723V14.67c0 .53-.429.963-.963.963H7.51v5.403H22.67v-4.441a.96.96 0 0 1 .963-.962.96.96 0 0 1 .963.962V26.6h2.377a.962.962 0 1 1 0 1.925h-2.377v4.715a.96.96 0 0 1-.963.962.96.96 0 0 1-.963-.962V22.959H8.92V50.59h7.639c.534 0 .962.433.962.962v5.523zm-15.595 0h13.67V52.52H7.96a.96.96 0 0 1-.963-.962V34.814H1.925v22.261zm0-24.186h5.073v-9.93H1.925v9.93zm55.064-3.473h1.415V1.924h-1.416v27.492zm-3.34 0h1.414V1.924h-1.415v27.492zM1.924 20.698h3.658v-5.066H1.925v5.066zm4.621-6.99h1.251V1.923H1.925v11.783h4.621zm10.878-8.339c-.708 0-1.28.578-1.28 1.285v2.502c0 .707.577 1.284 1.28 1.284.707 0 1.285-.577 1.285-1.284V6.654c0-.707-.578-1.285-1.285-1.285zm12.61-1.284h14.17v-2.16h-14.17v2.16zm-12.61-.64h2.281v-1.52h-4.558v1.52h2.277zm21.063 50.773H30.77a.96.96 0 0 1-.963-.963V35.622c0-.529.429-.962.963-.962h7.72c.53 0 .963.433.963.962v17.633a.966.966 0 0 1-.968.963zm-6.754-1.925h5.79v-.962h-3.417a.965.965 0 0 1-.962-.962v-11.86c0-.53.433-.962.962-.962h3.418v-.962h-5.79v15.708zm3.34-2.887h2.456v-9.935h-2.455v9.935zm24.293 4.234a.965.965 0 0 1-.962-.962v-16.55a.962.962 0 1 1 1.925 0v2.987c.5.034.895.448.895.958v8.66c0 .51-.394.928-.895.962v2.988a.964.964 0 0 1-.963.957zm-9.28-1.154c-3.06 0-5.458-3.296-5.458-7.506 0-4.21 2.397-7.505 5.458-7.505 3.062 0 5.459 3.295 5.459 7.505s-2.397 7.506-5.459 7.506zm0-13.087c-1.915 0-3.533 2.555-3.533 5.581 0 3.026 1.618 5.581 3.533 5.581 1.916 0 3.533-2.555 3.533-5.58 0-3.027-1.617-5.582-3.533-5.582z" fill="#CAB48C"></path></symbol><symbol viewBox="0 0 65 67" id="icon-8"><path d="M1.943 66.975h12.432c2.381 0 4.447-1.392 5.446-3.414C26.739 66.603 32.75 67 39.652 67c1.18 0 2.385-.012 3.626-.024 1.372-.013 2.79-.026 4.276-.026h6.142c3.356 0 6.087-2.764 6.087-6.162a6.18 6.18 0 0 0-.846-3.131 6.18 6.18 0 0 0 2.919-5.26 6.18 6.18 0 0 0-.847-3.131 6.18 6.18 0 0 0 2.919-5.26c0-1.6-.607-3.059-1.598-4.156A6.182 6.182 0 0 0 64 35.616c0-3.397-2.73-6.162-6.087-6.162H46.88c1.71-3.132 2.618-6.09 2.618-10.17v-.662a8.317 8.317 0 0 0-2.362-5.83 8.11 8.11 0 0 0-5.718-2.478h-.062c-2.1 0-3.938 1.69-4.11 3.798-.822 10.047-10.386 15.225-16.783 18.375v-1.039c0-1.086-.87-1.967-1.943-1.967H1.943A1.952 1.952 0 0 0 0 31.445v33.563c0 1.086.87 1.967 1.943 1.967zm18.544-30.133c.201-.1.41-.2.621-.304 3.377-1.648 8.002-3.906 11.98-7.324 4.867-4.186 7.569-9.157 8.029-14.778.005-.066.132-.19.236-.19h.003c2.347.037 4.256 2.001 4.256 4.38v.657c0 4.088-1.053 6.675-3.256 10.17h-3.089c-1.073 0-1.943.881-1.943 1.968 0 1.086.87 1.966 1.943 1.966h18.65c1.214 0 2.201 1 2.201 2.229s-.987 2.228-2.201 2.228h-4.144c-1.073 0-1.943.881-1.943 1.967s.87 1.967 1.943 1.967h4.069c1.214 0 2.201 1 2.201 2.229 0 1.228-.987 2.228-2.201 2.228h-4.069c-1.073 0-1.943.88-1.943 1.967 0 1.086.87 1.967 1.943 1.967h1.997c1.214 0 2.201 1 2.201 2.228 0 1.229-.987 2.229-2.201 2.229h-2.075c-1.073 0-1.943.88-1.943 1.967 0 1.086.87 1.966 1.943 1.966 1.214 0 2.202 1 2.202 2.229s-.988 2.229-2.202 2.229h-6.142c-1.505 0-2.932.013-4.312.027-8.66.082-15.022.144-22.754-3.49V36.842zm-16.601-3.43h12.69v27.4c0 1.23-.987 2.23-2.2 2.23h-2.202v-6.425c0-1.086-.87-1.966-1.943-1.966s-1.943.88-1.943 1.966v6.424H3.886V33.412zM55.817 18.467h4.144c1.073 0 1.943-.88 1.943-1.967 0-1.086-.87-1.967-1.943-1.967h-4.144c-1.073 0-1.943.88-1.943 1.967 0 1.086.87 1.967 1.943 1.967z" fill="#CAB48C"></path><path d="M26.808 18.467h4.144c1.073 0 1.943-.88 1.943-1.967 0-1.086-.87-1.967-1.943-1.967h-4.144c-1.073 0-1.943.88-1.943 1.967 0 1.086.87 1.967 1.943 1.967zM35.485 6.583c.36.631 1.012.984 1.684.984.33 0 .664-.085.97-.264a1.98 1.98 0 0 0 .71-2.686L36.779.984a1.93 1.93 0 0 0-2.654-.72 1.98 1.98 0 0 0-.711 2.687l2.072 3.632zM48.629 7.303c.306.18.64.264.969.264.67 0 1.325-.353 1.684-.984l2.072-3.634a1.98 1.98 0 0 0-.71-2.686 1.93 1.93 0 0 0-2.654.72l-2.072 3.634a1.98 1.98 0 0 0 .71 2.686z" fill="#CAB48C"></path></symbol><symbol viewBox="0 0 60 61" id="icon-9"><path d="M59.858 41.63a1.163 1.163 0 0 0-1.06-1.133c-2.767-.242-6.171-2.1-8.673-4.733a1.165 1.165 0 0 0-1.684-.002 17.554 17.554 0 0 1-3.772 2.997c-2.361-2.634-5.266-4.576-8.672-5.798a22.05 22.05 0 0 0-.895-.3c2.88-2.872 4.817-6.647 4.817-10.033v-1.826a3.85 3.85 0 0 0 2.316-3.53c0-1.64-1.033-3.04-2.48-3.594a14.346 14.346 0 0 0-10.3-12.294A1.746 1.746 0 0 0 27.749 0h-4.214c-.81 0-1.49.555-1.686 1.303a14.443 14.443 0 0 0-7.177 4.495 14.375 14.375 0 0 0-3.416 7.882 3.851 3.851 0 0 0-2.48 3.592c0 1.58.955 2.937 2.318 3.53v1.826c0 3.383 1.937 7.16 4.817 10.033a23.129 23.129 0 0 0-.93.312c-3.81 1.375-6.993 3.652-9.485 6.794-2.397 3.024-4.1 6.756-5.065 11.097-.343 1.552-.6 3.5.457 4.817 1.033 1.286 2.883 1.452 4.376 1.452h7.606a1.162 1.162 0 1 0 0-2.325H5.266c-1.39 0-2.253-.196-2.564-.583-.328-.41-.328-1.37 0-2.858C3.91 45.923 6.864 39.264 13.983 35.9c-.219 3.928 1.91 6.495 3.262 8.125.207.25.51.402.833.419.324.017.64-.102.874-.327l6.553-6.373 6.556 6.373c.217.211.508.33.811.33.02 0 .042 0 .063-.002.323-.017.625-.168.832-.418 1.352-1.632 3.477-4.2 3.26-8.12 2.065.98 3.889 2.291 5.46 3.923-.938.362-1.859.593-2.718.668-.59.052-1.047.54-1.061 1.132-.097 4.157.595 7.136 2.47 10.622.016.03.65 1.165 1.636 2.557H23.4a1.162 1.162 0 1 0 0 2.325h21.26c1.402 1.549 3.055 2.868 4.624 2.868 3.783 0 8.064-7.674 8.105-7.75 1.872-3.488 2.564-6.466 2.47-10.622zM37.383 13.428h-6.402c-1.209-3.16-1.437-5.766-1.48-9.589a12.021 12.021 0 0 1 7.882 9.59zM24.116 2.325h3.051c.008 4.5.12 7.548 1.34 11.103h-5.729c1.216-3.553 1.33-6.603 1.338-11.103zm-2.333 1.422c-.04 3.875-.26 6.495-1.478 9.681H13.63c.663-4.462 3.872-8.264 8.152-9.681zm-9.16 12.006H20.4c.069.056.135.063.19 0h17.8a1.52 1.52 0 0 1 0 3.04H12.623c-.839 0-1.522-.682-1.522-1.521 0-.838.683-1.519 1.522-1.519zm.798 6.875v-1.51h24.173v1.51c0 4.433-4.295 9.916-9.19 11.733-2.143.797-3.663.795-5.812-.002-4.886-1.826-9.171-7.307-9.171-11.73zm4.825 18.933c-1.204-1.57-2.363-3.634-1.805-6.628a21.855 21.855 0 0 1 1.592-.45c1.172.86 2.436 1.565 3.748 2.055.422.156.829.285 1.225.393l-4.76 4.63zm14.521-.002l-4.762-4.63c.392-.106.792-.234 1.21-.388 1.316-.49 2.587-1.197 3.765-2.06.544.131 1.073.282 1.592.449.556 2.992-.602 5.056-1.805 6.63zM55.34 51.15c-1.375 2.567-4.595 6.523-6.056 6.523-1.46 0-4.681-3.957-6.058-6.525-1.536-2.857-2.167-5.24-2.201-8.484 1.254-.239 2.559-.706 3.843-1.36.046-.021.09-.043.133-.07a19.662 19.662 0 0 0 4.281-3.036c2.477 2.311 5.491 3.94 8.258 4.466-.036 3.245-.667 5.63-2.2 8.486z" fill="#CAB48C"></path></symbol><symbol viewBox="0 0 36 70" id="icon-arrow-thin"><path d="M2.457 0a1.46 1.46 0 0 0-1.054 2.466l31.12 32.535-31.12 32.533a1.462 1.462 0 0 0 .046 2.063 1.46 1.46 0 0 0 2.062-.045l32.085-33.541a1.46 1.46 0 0 0 0-2.017L3.51.452C3.224.152 2.84 0 2.457 0z"></path></symbol><symbol viewBox="0 0 17 30" id="icon-arrow"><path d="M13.339 29.52c.297.31.695.48 1.12.48.423 0 .82-.17 1.118-.48l.949-.982a1.686 1.686 0 0 0 0-2.32L5.713 15.005 16.538 3.783c.297-.309.462-.72.462-1.16 0-.44-.165-.852-.462-1.16L15.59.478a1.543 1.543 0 0 0-2.239 0L.461 13.842c-.298.31-.462.724-.461 1.164a1.66 1.66 0 0 0 .462 1.165l12.877 13.35z"></path></symbol><symbol viewBox="0 0 29 29" id="icon-cross"><path d="M14.5 0C6.491 0 0 6.491 0 14.5S6.491 29 14.5 29 29 22.509 29 14.5 22.509 0 14.5 0zm7.17 19.11l-2.57 2.572-4.611-4.61-4.61 4.61-2.561-2.572 4.61-4.61L7.33 9.89l2.56-2.56 4.611 4.61 4.61-4.61 2.572 2.56-4.61 4.61 4.599 4.61z"></path></symbol><symbol viewBox="0 0 32 31" id="icon-instagram"><path d="M16.204 2.959c4.109 0 4.596.013 6.227.09 4.173.192 6.124 2.17 6.317 6.317.077 1.63.09 2.105.09 6.226 0 4.122-.013 4.597-.09 6.228-.193 4.147-2.131 6.124-6.317 6.316-1.63.077-2.105.09-6.227.09-4.108 0-4.596-.013-6.227-.09-4.185-.192-6.124-2.182-6.317-6.316-.077-1.631-.09-2.106-.09-6.228 0-4.108.013-4.596.09-6.226.193-4.148 2.144-6.125 6.317-6.317 1.63-.077 2.119-.09 6.227-.09zm0-2.773c-4.186 0-4.712.012-6.355.09C4.25.531 1.144 3.638.887 9.236c-.077 1.644-.09 2.17-.09 6.355 0 4.186.013 4.713.09 6.356.257 5.598 3.364 8.705 8.962 8.962 1.643.077 2.17.09 6.355.09 4.186 0 4.712-.013 6.355-.09 5.585-.257 8.705-3.364 8.962-8.962.077-1.643.09-2.17.09-6.356 0-4.185-.013-4.711-.09-6.355C31.264 3.652 28.157.532 22.56.275c-1.643-.077-2.17-.09-6.355-.09zm0 7.498a7.912 7.912 0 0 0-7.909 7.908 7.912 7.912 0 0 0 7.91 7.91 7.912 7.912 0 0 0 7.908-7.91 7.912 7.912 0 0 0-7.909-7.908zm0 13.044a5.134 5.134 0 0 1-5.136-5.136 5.134 5.134 0 0 1 5.136-5.135 5.134 5.134 0 0 1 5.136 5.135 5.134 5.134 0 0 1-5.136 5.136zm8.23-15.214a1.841 1.841 0 0 0-1.849 1.849c0 1.027.822 1.848 1.849 1.848a1.85 1.85 0 0 0 0-3.697z"></path></symbol><symbol viewBox="0 0 27 20" id="icon-mail"><path d="M0 0v20h27V0H0zm24.21 2.222L13.5 10.79 2.79 2.222h21.42zM2.25 17.778V4.644l11.25 9 11.25-9v13.134H2.25z" fill="#CAB48C"></path></symbol><symbol viewBox="0 0 34 34" id="icon-marker"><path d="M33.523 32.517A3.134 3.134 0 0 1 30.847 34H3.154A3.133 3.133 0 0 1 .48 32.517a3.121 3.121 0 0 1-.151-3.051l2.497-5.06a3.457 3.457 0 0 1 3.12-1.938H7.24c.733 0 1.328.594 1.328 1.325 0 .732-.595 1.326-1.328 1.326H5.946a.818.818 0 0 0-.738.458l-2.497 5.06a.478.478 0 0 0 .024.479.48.48 0 0 0 .42.233h27.692a.48.48 0 0 0 .42-.233.48.48 0 0 0 .024-.479l-2.497-5.06a.817.817 0 0 0-.738-.458h-1.36a1.327 1.327 0 0 1-1.328-1.326c0-.731.595-1.325 1.328-1.325h1.361c1.335 0 2.531.742 3.12 1.938l2.498 5.06a3.123 3.123 0 0 1-.152 3.05zm-22.2-9.425c-2.929-3.206-5.958-6.521-5.962-11.49C5.368 5.202 10.58 0 16.98 0c6.4 0 11.614 5.203 11.621 11.598-.005 4.972-3.034 8.288-5.963 11.493-1.47 1.61-2.991 3.274-4.2 5.187a1.33 1.33 0 0 1-1.124.619h-.667c-.456 0-.88-.233-1.123-.619-1.21-1.912-2.731-3.576-4.202-5.186zm-3.306-11.49c.004 3.94 2.444 6.611 5.27 9.704 1.253 1.372 2.54 2.781 3.695 4.39 1.153-1.608 2.442-3.018 3.695-4.39 2.826-3.093 5.266-5.764 5.27-9.707-.006-4.932-4.028-8.948-8.965-8.948-4.938 0-8.96 4.016-8.965 8.95zm10.312 5.1c0-.732-.595-1.326-1.328-1.326a3.72 3.72 0 0 1-3.719-3.711 3.719 3.719 0 0 1 7.438 0 1.327 1.327 0 0 0 2.656 0c0-3.508-2.86-6.362-6.375-6.362s-6.375 2.854-6.375 6.362 2.86 6.362 6.375 6.362c.733 0 1.328-.593 1.328-1.325z" fill="#CAB48C"></path></symbol><symbol viewBox="0 0 28 30" id="icon-phone"><path d="M3.298 1.65C3.336 1.638 6.912 0 6.912 0l5.142 9.864-3.462 1.675c-.687 1.575 2.75 7.864 4.2 7.964.115-.076 3.398-1.663 3.398-1.663l5.231 9.914s-3.513 1.687-3.627 1.75C7.778 33.992-6.527 6.688 3.298 1.65zm2.456 1.6a58 58 0 0 1-1.298.626c-6.732 3.45 5.32 26.478 12.281 23.365.09-.038.675-.313 1.235-.587l-2.889-5.476c-.61.3-1.247.6-1.31.625C9.75 23.74 3.26 11.526 7.344 9.376l1.285-.625-2.876-5.5zm9.965 9.552l3.717 1.087a3.754 3.754 0 0 0-.306-2.9 3.83 3.83 0 0 0-2.303-1.838l-1.108 3.65zm2.304-7.564a8.018 8.018 0 0 1 4.785 3.813 7.763 7.763 0 0 1 .637 6.014l-2.291-.676a5.464 5.464 0 0 0-.446-4.238c-.738-1.35-1.972-2.275-3.36-2.688l.675-2.225zm1.209-3.988c3.016.888 5.676 2.888 7.293 5.826a11.884 11.884 0 0 1 .967 9.176l-2.342-.687a9.468 9.468 0 0 0-.776-7.351c-1.298-2.35-3.437-3.95-5.842-4.664l.7-2.3z" fill="#CAB48C"></path></symbol><symbol viewBox="0 0 13 6" id="icon-select-after"><path d="M13 .25a.24.24 0 0 0-.075-.173.287.287 0 0 0-.383-.008L6.5 5.404.458.069a.288.288 0 0 0-.383.008.237.237 0 0 0 .008.354l6.23 5.5c.104.092.27.092.374 0l6.23-5.5A.24.24 0 0 0 13 .25z" fill="#000"></path></symbol><symbol viewBox="0 0 29 29" id="icon-time"><path d="M17.43 26.5c-.24.06-.482.114-.725.159a1.174 1.174 0 0 0-.933 1.368c.057.314.234.576.474.746.248.175.563.254.884.195.288-.054.579-.117.863-.19a1.175 1.175 0 0 0-.563-2.278zM26.051 10.76c.082.248.238.45.435.59.292.208.674.277 1.039.156.61-.205.943-.868.74-1.484-.092-.28-.195-.562-.303-.836a1.163 1.163 0 0 0-1.516-.655 1.177 1.177 0 0 0-.649 1.527c.091.23.177.467.254.702zM21.218 24.823c-.206.137-.417.27-.632.394a1.179 1.179 0 0 0-.09 1.977c.36.255.849.293 1.255.057.254-.147.508-.304.752-.468a1.18 1.18 0 0 0 .33-1.627 1.16 1.16 0 0 0-1.615-.332zM28.989 14.04a1.168 1.168 0 0 0-1.21-1.127 1.171 1.171 0 0 0-1.12 1.22c.01.248.013.5.007.746a1.173 1.173 0 0 0 1.14 1.2 1.17 1.17 0 0 0 1.19-1.148c.007-.296.004-.595-.007-.89zM25.86 21.734a1.16 1.16 0 0 0-1.632.235c-.148.198-.304.395-.463.584a1.181 1.181 0 0 0 .217 1.721 1.16 1.16 0 0 0 1.558-.2c.19-.225.376-.46.553-.696a1.18 1.18 0 0 0-.232-1.644zM27.574 17.49a1.165 1.165 0 0 0-1.461.768 12.1 12.1 0 0 1-.244.707 1.18 1.18 0 0 0 .674 1.515 1.162 1.162 0 0 0 1.504-.68c.104-.276.202-.559.29-.84a1.175 1.175 0 0 0-.763-1.47zM12.342 26.669a11.937 11.937 0 0 1-2.99-.958l-.033-.018a13.03 13.03 0 0 1-.662-.337l-.003-.003c-.397-.22-.784-.463-1.16-.73-5.485-3.89-6.804-11.55-2.94-17.075.84-1.2 1.857-2.202 2.99-2.996l.042-.03c3.993-2.772 9.417-2.958 13.657-.11l-.91 1.326c-.254.369-.098.638.345.597l3.956-.357c.445-.04.71-.427.59-.859l-1.063-3.855c-.118-.433-.423-.485-.677-.116l-.912 1.33a14.317 14.317 0 0 0-10.55-2.26c-.373.065-.74.145-1.104.237l-.007.002-.042.012a14.372 14.372 0 0 0-7.971 5.38c-.017.02-.034.04-.05.062a14.267 14.267 0 0 0-.504.732c-.013.02-.022.038-.033.057a14.563 14.563 0 0 0-2.297 8.54v.03c.013.294.036.593.068.887.001.02.005.037.01.056a14.525 14.525 0 0 0 4.196 8.763c0 .002.003.003.005.005.57.566 1.19 1.09 1.857 1.563a14.328 14.328 0 0 0 5.78 2.437c.634.115 1.24-.31 1.353-.948a1.173 1.173 0 0 0-.94-1.364z" fill="#CAB48C"></path><path d="M13.785 5.118a.947.947 0 0 0-.944.95v9.466l8.595 4.476a.93.93 0 0 0 .432.106.951.951 0 0 0 .434-1.793l-7.575-3.944V6.068a.946.946 0 0 0-.942-.95z" fill="#CAB48C"></path></symbol><symbol viewBox="0 0 31 31" id="icon-vk"><path d="M15.407 2.753c7.074 0 12.84 5.765 12.84 12.84 0 7.074-5.766 12.839-12.84 12.839s-12.84-5.765-12.84-12.84c0-7.074 5.766-12.839 12.84-12.839zm0-2.567C6.895.186 0 7.08 0 15.592 0 24.105 6.895 31 15.407 31s15.407-6.895 15.407-15.408C30.814 7.08 23.919.186 15.407.186zm.745 20.542c.385 0 .552-.257.539-.59-.026-1.233.462-1.888 1.322-1.028.95.95 1.156 1.618 2.311 1.618h2.055c.513 0 .719-.167.719-.424 0-.552-.912-1.527-1.682-2.246-1.079-1.002-1.13-1.027-.206-2.234 1.156-1.502 2.67-3.428 1.335-3.428h-2.554c-.501 0-.527.282-.707.693-.642 1.502-1.848 3.454-2.31 3.158-.489-.308-.257-1.54-.219-3.376.013-.488.013-.822-.732-.989a4.73 4.73 0 0 0-1.155-.141c-1.464 0-2.465.616-1.9.719 1.014.192.911 2.375.68 3.312-.41 1.644-1.951-1.296-2.593-2.76-.155-.36-.206-.63-.758-.63H8.204c-.308 0-.5.104-.5.335 0 .385 1.9 4.313 3.71 6.265 1.772 1.913 3.518 1.746 4.738 1.746z"></path></symbol></svg>