<svg width="84" height="84" viewBox="0 0 84 84" fill="none" xmlns="http://www.w3.org/2000/svg">
<path d="M75.6213 44.0492C76.3629 42.9483 76.7977 41.6242 76.7977 40.1985V38.8826C76.7977 35.0762 73.7002 31.9786 69.8939 31.9786C67.9941 31.9786 66.2714 32.7497 65.0229 33.995C61.7892 24.3806 52.6903 17.4355 42 17.4355C31.3097 17.4355 22.2108 24.3806 18.9771 33.9967C17.727 32.7514 16.0059 31.9803 14.1061 31.9803C10.2998 31.9803 7.20234 35.0779 7.20234 38.8843V40.2001C7.20234 41.6242 7.63547 42.9499 8.37867 44.0508C3.59953 45.0565 0 49.3043 0 54.3789V57.6816C0 58.5873 0.735 59.3223 1.64062 59.3223H10.1719C11.0775 59.3223 11.8125 58.5873 11.8125 57.6816C11.8125 56.776 11.0775 56.041 10.1719 56.041H3.28125V54.3789C3.28125 50.3675 6.54445 47.1025 10.5574 47.1025H18.3225C18.9525 49.872 20.0566 52.4643 21.5447 54.7858L2.82516 73.5061C0.428203 75.9031 0.428203 79.8047 2.82516 82.2017C4.02445 83.4011 5.59781 83.9999 7.17281 83.9999C8.74781 83.9999 10.3212 83.4011 11.5205 82.2017L21.84 71.8818C22.4798 71.2419 22.4798 70.2017 21.84 69.5619C21.1985 68.922 20.16 68.922 19.5202 69.5619L9.20063 79.8818C8.08336 80.9991 6.26391 80.9991 5.145 79.8818C4.02773 78.7645 4.02773 76.945 5.145 75.8277L23.5216 57.4503C27.9792 62.6775 34.609 65.9999 42 65.9999C53.5385 65.9999 63.2215 57.9097 65.6775 47.1041H73.4426C77.4539 47.1041 80.7188 50.3675 80.7188 54.3806V56.0426H65.2969C64.3913 56.0426 63.6562 56.7776 63.6562 57.6833C63.6562 58.5889 64.3913 59.324 65.2969 59.324H82.3594C83.265 59.324 84 58.5889 84 57.6833V54.3806C84 49.3043 80.4005 45.0565 75.6213 44.0492ZM66.2714 38.8843C66.2714 36.8859 67.8956 35.2616 69.8939 35.2616C71.8922 35.2616 73.5164 36.8859 73.5164 38.8843V40.2001C73.5164 42.1968 71.8922 43.8227 69.8939 43.8227C67.8956 43.8227 66.2714 42.1985 66.2714 40.2001V38.8843ZM10.4836 38.8843C10.4836 36.8859 12.1095 35.2616 14.1061 35.2616C16.1027 35.2616 17.7286 36.8859 17.7286 38.8843V40.2001C17.7286 42.1968 16.1044 43.8227 14.1061 43.8227C12.1078 43.8227 10.4836 42.1985 10.4836 40.2001V38.8843ZM42 62.7186C30.4205 62.7186 21 53.2977 21 41.7177C21 30.1378 30.4205 20.7169 42 20.7169C53.5795 20.7169 63 30.1378 63 41.7177C63 53.2977 53.5795 62.7186 42 62.7186Z" fill="#CAB48C"/>
<path d="M42 23.998C32.2301 23.998 24.2812 31.9472 24.2812 41.7175C24.2812 46.7889 26.4239 51.3697 29.8495 54.6018C29.9086 54.6658 29.9709 54.7249 30.0398 54.779C33.1948 57.6699 37.3948 59.4369 42 59.4369C46.6052 59.4369 50.8069 57.6699 53.9602 54.779C54.0291 54.7249 54.0914 54.6658 54.1505 54.6018C57.5761 51.3697 59.7188 46.7889 59.7188 41.7175C59.7188 31.9455 51.7699 23.998 42 23.998ZM33.0586 53.0448C34.8026 49.747 38.1987 47.6715 42 47.6715C45.8013 47.6715 49.1974 49.747 50.9414 53.0448C48.4805 54.9907 45.3748 56.1539 42 56.1539C38.6252 56.1539 35.5195 54.9907 33.0586 53.0448ZM38.5432 40.9332V39.6584C38.5432 37.7519 40.0936 36.2015 42 36.2015C43.9064 36.2015 45.4568 37.7519 45.4568 39.6584V40.9332C45.4568 42.8397 43.9064 44.3902 42 44.3902C40.0936 44.3902 38.5432 42.8397 38.5432 40.9332ZM53.3416 50.6428C51.8388 48.2441 49.6388 46.4164 47.0646 45.3729C48.1064 44.1867 48.7397 42.633 48.7397 40.9332V39.6584C48.7397 35.9423 45.716 32.9201 42.0016 32.9201C38.2873 32.9201 35.2636 35.9439 35.2636 39.6584V40.9332C35.2636 42.633 35.8969 44.1851 36.9387 45.3729C34.3645 46.4164 32.1645 48.2441 30.6616 50.6428C28.7224 48.1851 27.5641 45.0842 27.5641 41.7175C27.5641 33.7569 34.0413 27.2794 42.0016 27.2794C49.962 27.2794 56.4391 33.7569 56.4391 41.7175C56.4375 45.0825 55.2792 48.1834 53.3416 50.6428Z" fill="#CAB48C"/>
<path d="M25.0688 64.6924C24.6374 64.6924 24.2141 64.8679 23.9089 65.1731C23.6038 65.4783 23.4282 65.9016 23.4282 66.3331C23.4282 66.7646 23.6038 67.1879 23.9089 67.493C24.2141 67.7982 24.6374 67.9738 25.0688 67.9738C25.5003 67.9738 25.9236 67.7982 26.2288 67.493C26.5339 67.1879 26.7095 66.7646 26.7095 66.3331C26.7095 65.9016 26.5339 65.4783 26.2288 65.1731C25.9236 64.8679 25.5003 64.6924 25.0688 64.6924Z" fill="#CAB48C"/>
<path d="M42.0327 8.863C42.9383 8.863 43.6734 8.12797 43.6734 7.22231V1.64069C43.6734 0.735029 42.9383 0 42.0327 0C41.1271 0 40.3921 0.735029 40.3921 1.64069V7.22231C40.3921 8.12961 41.1271 8.863 42.0327 8.863Z" fill="#CAB48C"/>
<path d="M42.0327 14.2745C42.4658 14.2745 42.8875 14.099 43.1926 13.7938C43.4978 13.4887 43.6734 13.0654 43.6734 12.6339C43.6734 12.2024 43.4978 11.7791 43.1926 11.4739C42.8875 11.1687 42.4658 10.9932 42.0327 10.9932C41.6012 10.9932 41.178 11.1687 40.8728 11.4739C40.5676 11.7791 40.3921 12.2024 40.3921 12.6339C40.3921 13.0654 40.5676 13.4887 40.8728 13.7938C41.178 14.099 41.6012 14.2745 42.0327 14.2745Z" fill="#CAB48C"/>
<path d="M51.8979 12.12C52.3179 12.12 52.7379 11.9592 53.0578 11.6392L55.942 8.75491C56.5818 8.11504 56.5818 7.07485 55.942 6.43498C55.3005 5.79511 54.262 5.79511 53.6222 6.43498L50.7379 9.31931C50.0981 9.95918 50.0981 10.9994 50.7379 11.6392C51.0579 11.9608 51.4779 12.12 51.8979 12.12Z" fill="#CAB48C"/>
<path d="M30.9702 11.6603C31.2901 11.9802 31.7101 12.141 32.1301 12.141C32.5501 12.141 32.9701 11.9802 33.29 11.6603C33.9299 11.0204 33.9299 9.98024 33.29 9.34037L30.3796 6.42814C29.7381 5.78827 28.6996 5.78827 28.0597 6.42814C27.4199 7.06801 27.4199 8.10821 28.0597 8.74808L30.9702 11.6603Z" fill="#CAB48C"/>
</svg>
