<svg width="64" height="64" viewBox="0 0 64 64" fill="none" xmlns="http://www.w3.org/2000/svg">
<path d="M36.0166 16.0667H25.975C24.9383 16.0667 24.1 16.9067 24.1 17.9417V32.1333H21.9583C20.9233 32.1333 20.0833 32.9733 20.0833 34.0083C20.0833 35.0433 20.9233 35.8833 21.9583 35.8833H24.1V40.1667H21.9583C20.9233 40.1667 20.0833 41.0067 20.0833 42.0417C20.0833 43.0767 20.9233 43.9167 21.9583 43.9167H24.1V48.0667C24.1 49.1017 24.9383 49.9417 25.975 49.9417C27.01 49.9417 27.85 49.1017 27.85 48.0667V43.9167H36.0166C37.0516 43.9167 37.8916 43.0767 37.8916 42.0417C37.8916 41.0067 37.0516 40.1667 36.0166 40.1667H27.85V35.8833H36.0166C41.48 35.8833 45.925 31.4383 45.925 25.975C45.925 20.3767 41.365 16.0667 36.0166 16.0667ZM36.0166 32.1333H27.85V19.8167H36.0166C39.3916 19.8167 42.175 22.54 42.175 25.975C42.175 29.37 39.4133 32.1333 36.0166 32.1333Z" fill="#CAB48C"/>
<path d="M32 0C14.355 0 0 14.355 0 32C0 49.645 14.355 64 32 64C49.645 64 64 49.645 64 32C64 14.355 49.645 0 32 0ZM32 60.25C16.4233 60.25 3.75 47.5767 3.75 32C3.75 16.4233 16.4233 3.75 32 3.75C47.5767 3.75 60.25 16.4233 60.25 32C60.25 47.5767 47.5767 60.25 32 60.25Z" fill="#CAB48C"/>
</svg>
