<svg width="66" height="68" viewBox="0 0 66 68" fill="none" xmlns="http://www.w3.org/2000/svg">
<path d="M9.1035 62.3335C9.1035 62.9588 8.59333 63.4669 7.96557 63.4669C7.33781 63.4669 6.82764 62.9588 6.82764 62.3335C6.82764 61.7083 7.33781 61.2002 7.96557 61.2002C8.59333 61.2002 9.1035 61.7083 9.1035 62.3335Z" fill="#CAB48C"/>
<path d="M35.2759 49.8667H33V52.1334H35.2759V49.8667Z" fill="#CAB48C"/>
<path d="M39.8276 49.8667H37.5518V52.1334H39.8276V49.8667Z" fill="#CAB48C"/>
<path d="M30.7241 40.7998H26.1724C25.5446 40.7998 25.0344 41.3079 25.0344 41.9331V46.4665C25.0344 47.0917 25.5446 47.5998 26.1724 47.5998H30.7241C31.3518 47.5998 31.862 47.0917 31.862 46.4665V41.9331C31.862 41.3079 31.3518 40.7998 30.7241 40.7998ZM29.5861 45.3331H27.3103V43.0665H29.5861V45.3331Z" fill="#CAB48C"/>
<path d="M56.8965 49.8667H54.6206V52.1334H56.8965V49.8667Z" fill="#CAB48C"/>
<path d="M61.4482 49.8667H59.1724V52.1334H61.4482V49.8667Z" fill="#CAB48C"/>
<path d="M47.7932 47.5998H52.3449C52.9727 47.5998 53.4829 47.0917 53.4829 46.4665V41.9331C53.4829 41.3079 52.9727 40.7998 52.3449 40.7998H47.7932C47.1654 40.7998 46.6553 41.3079 46.6553 41.9331V46.4665C46.6553 47.0917 47.1654 47.5998 47.7932 47.5998ZM48.9311 43.0665H51.207V45.3331H48.9311V43.0665Z" fill="#CAB48C"/>
<path d="M35.2759 31.7334H33V34.0001H35.2759V31.7334Z" fill="#CAB48C"/>
<path d="M39.8276 31.7334H37.5518V34.0001H39.8276V31.7334Z" fill="#CAB48C"/>
<path d="M26.1724 29.467H30.7241C31.3518 29.467 31.862 28.9589 31.862 28.3337V23.8003C31.862 23.1751 31.3518 22.667 30.7241 22.667H26.1724C25.5446 22.667 25.0344 23.1751 25.0344 23.8003V28.3337C25.0344 28.9589 25.5446 29.467 26.1724 29.467ZM27.3103 24.9337H29.5861V27.2003H27.3103V24.9337Z" fill="#CAB48C"/>
<path d="M56.8965 31.7334H54.6206V34.0001H56.8965V31.7334Z" fill="#CAB48C"/>
<path d="M61.4482 31.7334H59.1724V34.0001H61.4482V31.7334Z" fill="#CAB48C"/>
<path d="M47.7932 29.467H52.3449C52.9727 29.467 53.4829 28.9589 53.4829 28.3337V23.8003C53.4829 23.1751 52.9727 22.667 52.3449 22.667H47.7932C47.1654 22.667 46.6553 23.1751 46.6553 23.8003V28.3337C46.6553 28.9589 47.1654 29.467 47.7932 29.467ZM48.9311 24.9337H51.207V27.2003H48.9311V24.9337Z" fill="#CAB48C"/>
<path d="M64.8621 0H21.6207C20.9929 0 20.4828 0.508111 20.4828 1.13333V56.6667H17.4805L10.9697 51.2626C10.7648 51.0926 10.5069 51 10.2414 51H9.10345V31.9524L11.2978 26.4879C11.3528 26.3538 11.3793 26.2102 11.3793 26.0667V21.5333C11.3793 20.9081 10.8691 20.4 10.2414 20.4H1.13793C0.510172 20.4 0 20.9081 0 21.5333V26.0667C0 26.2102 0.0265517 26.3538 0.0815517 26.4879L2.27586 31.9524V51H1.13793C0.510172 51 0 51.5081 0 52.1333V61.2C0 61.8252 0.510172 62.3333 1.13793 62.3333H2.27586C2.27586 65.4632 4.82293 68 7.96552 68C11.1081 68 13.6552 65.4632 13.6552 62.3333H20.4828V66.8667C20.4828 67.4919 20.9929 68 21.6207 68H28.4483C29.076 68 29.5862 67.4919 29.5862 66.8667V62.3333H38.6897V66.8667C38.6897 67.4919 39.1998 68 39.8276 68H46.6552C47.2829 68 47.7931 67.4919 47.7931 66.8667V62.3333H56.8965V66.8667C56.8965 67.4919 57.4067 68 58.0345 68H64.8621C65.4898 68 66 67.4919 66 66.8667V1.13333C66 0.508111 65.4898 0 64.8621 0ZM22.7586 60.0667V56.6667H63.7241V60.0667H22.7586ZM63.7241 36.2667H44.3793V20.4H63.7241V36.2667ZM63.7241 54.4H44.3793V38.5333H63.7241V54.4ZM22.7586 54.4V38.5333H42.1034V54.4H22.7586ZM42.1034 36.2667H22.7586V20.4H42.1034V36.2667ZM63.7241 18.1333H44.3793V2.26667H63.7241V18.1333ZM22.7586 2.26667H42.1034V18.1333H22.7586V2.26667ZM2.27586 22.6667H9.10345V25.8476L7.19552 30.6H6.82759V24.9333H4.55172V30.6H4.18379L2.27586 25.8476V22.6667ZM4.55172 32.8667H6.82759V51H4.55172V32.8667ZM7.96552 65.7333C6.58483 65.7333 5.34069 64.9041 4.81155 63.6348C4.28241 62.3654 4.57448 60.9034 5.55121 59.9307C6.52793 58.9579 7.99586 58.667 9.27034 59.194C10.5467 59.7191 11.3793 60.9582 11.3793 62.3333C11.3774 64.2109 9.85069 65.7314 7.96552 65.7333ZM13.1791 60.0667C12.2745 58.0021 10.2281 56.6667 7.96552 56.6667C5.70293 56.6667 3.65655 58.0021 2.7519 60.0667H2.27586V53.2667H9.82983L15.931 58.3308V60.0667H13.1791ZM18.2069 58.9333H20.4828V60.0667H18.2069V58.9333ZM27.3103 65.7333H22.7586V62.3333H27.3103V65.7333ZM45.5172 65.7333H40.9655V62.3333H45.5172V65.7333ZM63.7241 65.7333H59.1724V62.3333H63.7241V65.7333Z" fill="#CAB48C"/>
<path d="M35.2759 13.6001H33V15.8668H35.2759V13.6001Z" fill="#CAB48C"/>
<path d="M39.8276 13.6001H37.5518V15.8668H39.8276V13.6001Z" fill="#CAB48C"/>
<path d="M30.7241 4.5332H26.1724C25.5446 4.5332 25.0344 5.04131 25.0344 5.66654V10.1999C25.0344 10.8251 25.5446 11.3332 26.1724 11.3332H30.7241C31.3518 11.3332 31.862 10.8251 31.862 10.1999V5.66654C31.862 5.04131 31.3518 4.5332 30.7241 4.5332ZM29.5861 9.06654H27.3103V6.79987H29.5861V9.06654Z" fill="#CAB48C"/>
<path d="M56.8965 13.6001H54.6206V15.8668H56.8965V13.6001Z" fill="#CAB48C"/>
<path d="M61.4482 13.6001H59.1724V15.8668H61.4482V13.6001Z" fill="#CAB48C"/>
<path d="M47.7932 11.3332H52.3449C52.9727 11.3332 53.4829 10.8251 53.4829 10.1999V5.66654C53.4829 5.04131 52.9727 4.5332 52.3449 4.5332H47.7932C47.1654 4.5332 46.6553 5.04131 46.6553 5.66654V10.1999C46.6553 10.8251 47.1654 11.3332 47.7932 11.3332ZM48.9311 6.79987H51.207V9.06654H48.9311V6.79987Z" fill="#CAB48C"/>
</svg>
