<svg width="74" height="74" viewBox="0 0 74 74" fill="none" xmlns="http://www.w3.org/2000/svg">
<path d="M61.6544 25.8902C61.6544 29.2942 64.416 32.0542 67.8202 32.0526C71.2244 32.0526 73.9844 29.2912 73.9829 25.8871C73.9829 22.9592 71.9209 20.4351 69.0515 19.8495V17.2606C69.0515 16.5795 68.4998 16.0278 67.8186 16.0278H54.1942C53.9538 12.6115 52.6947 9.34764 50.5819 6.65244L52.3017 4.93269H66.8123C67.4935 6.85893 69.6063 7.86828 71.5326 7.18717C73.4589 6.50605 74.4683 4.39335 73.7871 2.46711C73.106 0.540865 70.9932 -0.468485 69.0669 0.212633C68.0144 0.585554 67.1853 1.41307 66.8123 2.46711H51.7916C51.4649 2.46711 51.1506 2.59655 50.9194 2.8277L48.9284 4.81866C42.0768 -1.77987 31.1739 -1.57492 24.5766 5.27634C21.7719 8.18881 20.0813 11.9935 19.8009 16.0263H9.44495L5.41509 6.96218C7.21659 6.01447 7.90852 3.78465 6.96077 1.98323C6.01302 0.181814 3.78311 -0.510092 1.98162 0.439159C0.180122 1.38841 -0.511813 3.61515 0.435937 5.41657C0.933698 6.36273 1.81981 7.04694 2.86156 7.29041L7.51555 17.7615C7.71435 18.2068 8.15509 18.4934 8.64206 18.4919H19.8009C20.0844 22.5046 21.7672 26.2908 24.5566 29.1895L14.1483 39.5973C7.41846 38.5895 1.14636 43.2264 0.136972 49.9559C-0.87242 56.6854 3.76616 62.9572 10.496 63.9666C10.6994 63.9974 10.9028 64.022 11.1078 64.0421V70.2692C11.1078 70.9504 11.6595 71.502 12.3406 71.502H23.6627C24.3439 73.4283 26.4567 74.4376 28.383 73.7565C30.3093 73.0754 31.3187 70.9627 30.6376 69.0364C29.9564 67.1102 27.8436 66.1009 25.9173 66.782C24.8648 67.1549 24.0357 67.9824 23.6627 69.0364H13.5734V64.0436C20.3448 63.3687 25.287 57.3326 24.612 50.5615C24.1559 45.9801 21.1816 42.0352 16.9021 40.3339L26.395 30.8414C32.5778 35.7094 41.2786 35.7433 47.4998 30.9262L54.339 39.6328C44.8954 40.9503 38.3059 49.6739 39.6235 59.1171C40.9411 68.5603 49.665 75.1496 59.1086 73.832C68.5522 72.5145 75.1417 63.7909 73.8241 54.3477C72.6668 46.0525 65.7228 39.7838 57.3533 39.4787L49.3506 29.2927C52.1923 26.3802 53.9075 22.5524 54.1926 18.4934H66.5843V19.8495C63.7179 20.4382 61.6575 22.9608 61.6544 25.8902ZM70.2843 2.46711C70.9655 2.46711 71.5172 3.01878 71.5172 3.6999C71.5172 4.38102 70.9655 4.93269 70.2843 4.93269C69.6032 4.93269 69.0515 4.38102 69.0515 3.6999C69.0515 3.01878 69.6032 2.46711 70.2843 2.46711ZM3.71068 2.46711C4.39183 2.46711 4.94353 3.01878 4.94353 3.6999C4.94353 4.38102 4.39183 4.93269 3.71068 4.93269C3.02954 4.93269 2.47784 4.38102 2.47784 3.6999C2.47784 3.01878 3.02954 2.46711 3.71068 2.46711ZM27.1347 69.038C27.8159 69.038 28.3676 69.5897 28.3676 70.2708C28.3676 70.9519 27.8159 71.5036 27.1347 71.5036C26.4536 71.5036 25.9019 70.9519 25.9019 70.2708C25.9019 69.5897 26.4536 69.038 27.1347 69.038ZM9.87491 48.0805C9.87491 46.7183 10.9783 45.6149 12.3406 45.6149C13.7029 45.6149 14.8063 46.7183 14.8063 48.0805C14.8063 49.4427 13.7029 50.5461 12.3406 50.5461C10.9783 50.5461 9.87491 49.4412 9.87491 48.0805ZM12.3406 53.0117C15.0636 53.0117 17.272 55.2199 17.272 57.9428V60.3067C14.2253 62.0866 10.4559 62.0866 7.40922 60.3067V57.9428C7.40922 55.2184 9.61755 53.0117 12.3406 53.0117ZM22.2034 51.7789C22.2034 54.1751 21.3265 56.4866 19.7377 58.2803V57.9428C19.7361 55.2476 18.269 52.7666 15.9066 51.4676C17.7867 49.4982 17.7143 46.3761 15.7448 44.4961C13.7753 42.6161 10.6531 42.6885 8.77305 44.6579C6.95461 46.5641 6.95461 49.5614 8.77305 51.4676C6.41215 52.7682 4.94507 55.2492 4.94353 57.9428V58.2803C1.34054 54.1951 1.73197 47.9634 5.81731 44.3605C9.90265 40.7577 16.1347 41.1491 19.7377 45.2343C21.3327 47.0403 22.2095 49.3688 22.2034 51.7789ZM28.3676 29.2511V26.2585C28.3676 24.0117 30.1891 22.1903 32.436 22.1903H35.1729L33.3837 26.6622C33.2003 27.1199 33.3082 27.6438 33.658 27.9921L36.1237 30.4577C36.6045 30.9385 37.3859 30.9385 37.8667 30.4577L40.3324 27.9921C40.6822 27.6438 40.79 27.1199 40.6067 26.6622L38.819 22.1903H41.559C43.8059 22.1903 45.6274 24.0117 45.6274 26.2585V29.2465C40.4803 32.9834 33.5147 32.9834 28.3676 29.2465V29.2511ZM38.6973 11.5821L43.1032 14.2264C42.6085 17.2437 38.8899 19.7262 36.9975 19.7262C34.2483 19.2578 31.9598 17.3516 31.0043 14.7303C33.1156 14.5562 36.9266 13.9167 38.6973 11.5821ZM30.9011 12.2586C31.2309 8.12563 33.1757 6.16549 36.9975 6.16549C40.4957 6.16549 42.422 7.82051 42.9737 11.2723L38.8653 8.80675C38.2812 8.45694 37.5245 8.64649 37.1732 9.22898C37.127 9.30603 37.09 9.3877 37.0607 9.47246C36.4381 11.3432 33.0694 12.0521 30.9011 12.2586ZM36.9975 24.2768L38.0161 26.8256L36.9975 27.8457L35.9789 26.8256L36.9975 24.2768ZM48.0931 68.699V65.7079C48.0931 63.4611 49.9146 61.6397 52.1615 61.6397H54.8984L53.1093 66.1116C52.9259 66.5693 53.0337 67.0933 53.3836 67.4415L55.8493 69.9071C56.3301 70.3879 57.1114 70.3879 57.5922 69.9071L60.0579 67.4415C60.4077 67.0933 60.5156 66.5693 60.3322 66.1116L58.5446 61.6397H61.2846C63.5314 61.6397 65.3529 63.4611 65.3529 65.7079V68.6959C60.2058 72.4328 53.2402 72.4328 48.0931 68.6959V68.699ZM58.4228 51.0299L62.8287 53.6743C62.334 56.6931 58.6154 59.1756 56.723 59.1756C53.9738 58.7072 51.6853 56.801 50.7299 54.1797C52.8411 54.0056 56.6521 53.3661 58.4228 51.0299ZM50.6266 51.7064C50.9564 47.575 52.9012 45.6134 56.723 45.6134C60.2212 45.6134 62.1475 47.2684 62.6992 50.7202L58.5908 48.2546C58.0067 47.9048 57.2501 48.0944 56.8987 48.6768C56.8525 48.7539 56.8155 48.8356 56.7862 48.9203C56.1636 50.7926 52.7949 51.5015 50.6266 51.7064ZM56.723 63.7262L57.7417 66.275L56.723 67.2951L55.7044 66.275L56.723 63.7262ZM71.5172 56.71C71.5172 60.3036 70.2011 63.7724 67.8186 66.463V65.7094C67.8248 62.4148 65.3714 59.6348 62.1013 59.2327C64.0246 57.7194 65.2081 55.4557 65.3529 53.0117C65.3529 44.8598 60.6589 43.1493 56.723 43.1493C52.7872 43.1493 48.0931 44.8598 48.0931 53.0117C48.2364 55.4557 49.42 57.7225 51.3447 59.2357C48.0762 59.6379 45.6228 62.4163 45.6274 65.7094V66.4584C40.2353 60.3252 40.8363 50.9837 46.9697 45.5918C53.1031 40.1998 62.445 40.8008 67.8371 46.934C70.2119 49.6369 71.5203 53.1118 71.5172 56.71ZM48.0931 27.012V26.2585C48.0993 22.9638 45.6459 20.1839 42.3758 19.7817C44.299 18.2684 45.4826 16.0047 45.6274 13.5607C45.6274 5.40886 40.9334 3.69836 36.9975 3.69836C33.0616 3.69836 28.3676 5.40886 28.3676 13.5607C28.5109 16.0047 29.6944 18.2715 31.6192 19.7848C28.3506 20.187 25.8973 22.9654 25.9019 26.2585V27.0074C20.4974 20.8804 21.0846 11.5312 27.2118 6.12696C33.339 0.722702 42.6886 1.30982 48.0931 7.43681C53.0245 13.0275 53.0245 21.4151 48.0931 27.0074V27.012ZM71.5172 25.8902C71.5172 27.932 69.8605 29.5886 67.8186 29.5886C65.7767 29.5886 64.1201 27.932 64.1201 25.8902C64.1201 23.8484 65.7767 22.1918 67.8186 22.1918C69.8605 22.1918 71.5172 23.8468 71.5172 25.8902Z" fill="#CAB48C"/>
</svg>
