<svg width="65" height="64" viewBox="0 0 65 64" fill="none" xmlns="http://www.w3.org/2000/svg">
<path d="M57.6 33.9448H52.2667V31.8232H55.4667C55.824 31.8232 56.1582 31.6446 56.3556 31.3494C57.792 29.1978 58.9084 26.8482 59.6658 24.3766C60.0996 22.9428 60.4107 21.4771 60.5938 19.992C62.2062 18.415 62.2969 15.8568 60.8 14.1702V13.7901C60.8 6.1737 54.592 0 46.9333 0C39.2747 0 33.0667 6.1737 33.0667 13.7901V23.337C33.0667 23.9222 33.5449 24.3978 34.1333 24.3978C34.1671 24.3978 34.2009 24.396 34.2347 24.3925C34.5689 24.3607 34.9013 24.32 35.2356 24.2652C35.6924 25.7962 36.2916 27.2813 37.0222 28.7028C36.2364 27.9797 35.2036 27.5783 34.1333 27.5801H4.26667C1.91111 27.5836 0.00355556 29.4807 0 31.8232V50.9171C0.00355556 53.2597 1.91111 55.1567 4.26667 55.1602H11.4347L9.632 62.3293C9.552 62.6457 9.62311 62.9817 9.82578 63.238C10.0284 63.4961 10.3378 63.6464 10.6667 63.6464H27.7333C28.3218 63.6464 28.8 63.1708 28.8 62.5856V58.3425C28.8 57.7574 28.3218 57.2818 27.7333 57.2818H27.4507L27.888 55.1602H33.3956L30.9742 63.3476L33.0222 63.9452L35.2907 56.274C35.5413 56.762 35.8382 57.227 36.176 57.6619L36.2667 63.6623L38.4 63.6305L38.304 57.2659C38.3004 57.0219 38.2116 56.7867 38.0551 56.5993C37.472 55.9134 37.0329 55.1178 36.7591 54.2621C37.7991 53.4595 38.4053 52.2254 38.4 50.9171V36.0663H39.728L40.4676 38.6387C41.2889 41.5134 43.9289 43.497 46.9333 43.497C49.9378 43.497 52.5778 41.5134 53.3991 38.6387L54.1387 36.0663H55.4667V46.674C55.4667 46.9233 55.5556 47.1655 55.7173 47.3565C57.4702 49.4161 57.904 52.2838 56.8373 54.766L53.5289 55.1319L50.8587 53.8042L52.8213 50.7934C53.2907 50.0844 53.4471 49.2146 53.2533 48.389C53.056 47.5456 52.5209 46.819 51.7707 46.377C50.2418 45.4736 48.2684 45.9174 47.2782 47.3883L39.6409 59.078C39.4827 59.322 39.4293 59.619 39.4987 59.9019L40.2027 62.8296C40.3378 63.3936 40.9031 63.7454 41.472 63.6181L42.9458 63.2928C43.1467 63.5173 43.4347 63.6446 43.7369 63.6446H58.6702C61.6142 63.6411 64 61.2685 64.0036 58.3408V40.3094C63.9964 36.7965 61.1324 33.9483 57.6 33.9448ZM41.6 29.7017H40.0462C39.28 28.4994 38.6222 27.2336 38.0782 25.9165C38.9778 27.2955 40.1813 28.4517 41.6 29.2968V29.7017ZM43.152 27.7286C41.2836 26.7598 39.8276 25.1527 39.0524 23.2044C43.8204 21.2579 47.4702 17.3065 49.0187 12.4199L50.1991 8.65945C51.2889 11.0939 53.136 13.1147 55.4667 14.4283V20.1547C55.4649 22.5043 54.4853 24.7461 52.7609 26.3514C51.0364 27.9549 48.72 28.7788 46.3644 28.6232C45.2427 28.5472 44.1493 28.2431 43.152 27.7286ZM59.7333 16.9724C59.7316 18.1445 58.7769 19.0922 57.6 19.0939V14.8508C58.7787 14.8526 59.7316 15.802 59.7333 16.9724ZM57.6249 23.7596C56.9831 25.8528 56.0622 27.8506 54.8853 29.7017H52.2667V29.3375C55.248 27.642 57.216 24.6135 57.5467 21.2155H57.6C57.8187 21.2155 58.0391 21.1996 58.256 21.1642C58.0942 22.0411 57.8827 22.9074 57.6249 23.7596ZM35.2 13.7901C35.1911 7.52265 40.1636 2.36729 46.4604 2.11624C52.7573 1.86519 58.1298 6.60508 58.6258 12.853C58.2916 12.7717 57.9467 12.7293 57.6 12.7293H56.7982C54.4178 11.4864 52.6169 9.3737 51.7742 6.83315L51.1449 4.96619C50.9973 4.5295 50.5849 4.23779 50.1227 4.24309C49.6604 4.2484 49.2533 4.54895 49.1147 4.9874L46.9813 11.787C45.296 17.1456 40.7573 21.1288 35.2 22.1224V13.7901ZM12.032 61.5249L15.7653 46.674H22.2578L20.3911 61.5249H12.032ZM26.6667 61.5249H22.5422L22.8089 59.4033H26.6667V61.5249ZM25.2729 57.2818H23.0756L23.3422 55.1602H25.712L25.2729 57.2818ZM36.2667 50.9171C36.2667 51.7357 35.7956 52.48 35.0542 52.8318C34.9138 52.899 34.7644 52.9485 34.6116 52.9803C34.4551 53.0175 34.2951 53.0369 34.1333 53.0387H23.6089L24.5262 45.7441C24.5636 45.4418 24.4693 45.1395 24.2667 44.9114C24.064 44.6833 23.7742 44.5525 23.4667 44.5525H14.9333C14.4444 44.5525 14.0178 44.8849 13.8987 45.3569L11.968 53.0387H4.26667C3.088 53.0369 2.13511 52.0875 2.13333 50.9171V31.8232C2.13511 30.6511 3.08978 29.7034 4.26667 29.7017H34.1333C35.312 29.7034 36.2649 30.6528 36.2667 31.8232V50.9171ZM38.4 33.9448V31.8232C38.4 31.5227 38.368 31.2239 38.304 30.9304C38.3947 31.0718 38.4853 31.2115 38.5778 31.3512C38.7751 31.6464 39.1093 31.825 39.4667 31.825H41.6V33.9465H38.4V33.9448ZM51.3458 38.0606C51.0756 39.0153 50.4978 39.8533 49.7031 40.4508C48.4942 41.3578 46.912 41.6124 45.4773 41.135C44.0409 40.6559 42.9351 39.505 42.5191 38.057L41.9396 36.038C42.9724 35.8718 43.7316 34.9861 43.7333 33.9465V30.2621C44.5387 30.5255 45.376 30.6846 46.2222 30.7412C46.4604 30.7571 46.6987 30.7642 46.9369 30.7642C48.0196 30.7642 49.0987 30.5998 50.1316 30.278V33.9448C50.1333 34.9843 50.8942 35.8718 51.9253 36.0362L51.3458 38.0606ZM57.6 46.2992V36.0663C59.9556 36.0698 61.8631 37.9669 61.8667 40.3094V54.2108L59.1876 54.5078C60.0036 51.6756 59.4133 48.6276 57.6 46.2992ZM49.0649 48.5463C49.4222 48.0248 50.128 47.8727 50.6702 48.1998C50.9227 48.3448 51.104 48.587 51.1733 48.8681C51.2338 49.1333 51.1822 49.4144 51.0293 49.6424L48.7911 53.074L45.7049 53.6875L49.0649 48.5463ZM41.6764 59.8541L42.6667 58.339V61.1819L42.0302 61.3233L41.6764 59.8541ZM58.6667 61.5249H44.8V56.0301L48.9173 55.2115L52.8569 57.1704C53.0418 57.2623 53.248 57.2994 53.4524 57.2765L61.8667 56.3448V58.3425C61.8649 60.0999 60.4338 61.5231 58.6667 61.5249Z" fill="#CAB48C"/>
</svg>
