<svg width="56" height="58" viewBox="0 0 56 58" fill="none" xmlns="http://www.w3.org/2000/svg">
<path d="M6.53295 37.4194C5.4005 37.4194 4.38006 38.1039 3.94606 39.1516C3.51206 40.1994 3.75161 41.4062 4.55273 42.2091C5.35384 43.0121 6.55784 43.2522 7.60317 42.8172C8.65006 42.3837 9.33295 41.3609 9.33295 40.2259C9.33139 38.6761 8.07917 37.421 6.53295 37.4194ZM6.53295 41.1614C6.15495 41.1614 5.81584 40.9337 5.67117 40.5845C5.5265 40.2352 5.60739 39.833 5.87339 39.5648C6.14095 39.2982 6.54228 39.2171 6.89073 39.3621C7.23917 39.5071 7.46628 39.847 7.46628 40.2259C7.46628 40.742 7.04784 41.1614 6.53295 41.1614Z" fill="#CAB48C"/>
<path d="M41.9997 37.4194C40.8673 37.4194 39.8469 38.1039 39.4129 39.1516C38.9789 40.1994 39.2184 41.4062 40.0195 42.2091C40.8206 43.0121 42.0246 43.2522 43.07 42.8172C44.1169 42.3822 44.7982 41.3594 44.7982 40.2243C44.7982 38.6761 43.546 37.421 41.9997 37.4194ZM41.9997 41.1614C41.6217 41.1614 41.2826 40.9337 41.138 40.5845C40.9933 40.2352 41.0742 39.833 41.3402 39.5648C41.6062 39.2982 42.0091 39.2171 42.3575 39.3621C42.706 39.5071 42.9331 39.8486 42.9331 40.2259C42.9331 40.742 42.5146 41.1614 41.9997 41.1614Z" fill="#CAB48C"/>
<path d="M48.5331 40.2258C48.5331 38.4702 47.83 36.7879 46.5809 35.5562C45.3318 34.3245 43.6409 33.6478 41.8894 33.679C38.3489 33.7382 35.468 36.7162 35.468 40.3194V43.4626C32.9107 42.7641 29.182 42.0984 24.268 42.0984C19.354 42.0984 15.6254 42.7641 13.068 43.4626V40.2258C13.068 38.4453 12.3447 36.7412 11.0645 35.5063C9.78426 34.2715 8.05604 33.6135 6.28115 33.6821C2.87604 33.8256 0.149148 36.5587 0.0060366 39.9717C-0.12463 43.3207 2.28959 46.2285 5.59981 46.7087V50.5162C5.60292 52.582 7.27204 54.255 9.33315 54.2581V57.0645C9.33315 57.5806 9.75159 58 10.2665 58H13.0665C13.4196 58 13.7431 57.7989 13.9018 57.4824L15.5103 54.2581H33.0243L34.6327 57.4824C34.7898 57.7989 35.1134 58 35.468 58H38.268C38.7829 58 39.2014 57.5806 39.2014 57.0645V54.2581C41.2625 54.255 42.9316 52.582 42.9347 50.5162V46.7072C46.1454 46.2379 48.5285 43.4798 48.5331 40.2258ZM12.4894 56.1291H11.1998V54.2581H13.4227L12.4894 56.1291ZM37.3331 56.1291H36.0436L35.1103 54.2581H37.3331V56.1291ZM41.9998 44.9033C41.4849 44.9033 41.0665 45.3227 41.0665 45.8387V50.5162C41.0649 51.5499 40.2296 52.3856 39.1998 52.3871H9.33315C8.30181 52.3856 7.46804 51.5483 7.46648 50.5162V45.8387C7.46648 45.3227 7.04804 44.9033 6.53315 44.9033C5.26381 44.9033 4.04892 44.3856 3.17004 43.4673C2.28959 42.5505 1.82137 41.3141 1.87115 40.0419C1.97381 37.6049 3.92137 35.6544 6.35115 35.5515C7.61892 35.5016 8.85403 35.9709 9.7687 36.8534C10.6834 37.7359 11.1998 38.9536 11.1998 40.2258V44.0379C9.72826 44.5524 8.95515 44.9781 8.87581 45.0233L9.78892 46.6557C9.83715 46.6277 14.7231 43.9678 24.2665 43.9678C33.8098 43.9678 38.6958 46.6277 38.7425 46.6542L39.6571 45.0233C39.5778 44.9781 38.8047 44.5524 37.3331 44.0379V40.3178C37.3331 37.7296 39.3911 35.5905 41.9189 35.5484C43.1634 35.5266 44.3658 36.0052 45.2571 36.8752C46.1485 37.7452 46.6556 38.938 46.6665 40.1853C46.6774 41.4326 46.1905 42.6331 45.3131 43.5187C44.4374 44.4043 43.2443 44.9033 41.9998 44.9033Z" fill="#CAB48C"/>
<path d="M7.46676 27.1291C7.46832 26.0954 8.30365 25.2597 9.33343 25.2582H39.2001C40.2299 25.2597 41.0652 26.097 41.0668 27.1291V31.8066H42.9334V27.1291C42.9303 25.0633 41.2612 23.3903 39.2001 23.3872H9.33343C7.27232 23.3903 5.60321 25.0633 5.6001 27.1291V31.8066H7.46676V27.1291Z" fill="#CAB48C"/>
<path d="M20.5332 29H18.6665V30.871H20.5332V29Z" fill="#CAB48C"/>
<path d="M25.1997 33.6775H23.333V35.5485H25.1997V33.6775Z" fill="#CAB48C"/>
<path d="M15.8667 33.6775H14V35.5485H15.8667V33.6775Z" fill="#CAB48C"/>
<path d="M20.5332 38.3547H18.6665V40.2257H20.5332V38.3547Z" fill="#CAB48C"/>
<path d="M29.8667 29H28V30.871H29.8667V29Z" fill="#CAB48C"/>
<path d="M34.5332 33.6775H32.6665V35.5485H34.5332V33.6775Z" fill="#CAB48C"/>
<path d="M29.8667 38.3547H28V40.2257H29.8667V38.3547Z" fill="#CAB48C"/>
<path d="M52.2666 0H26.1332C24.0721 0.00311828 22.403 1.67608 22.3999 3.74194V4.67742H24.2666V3.74194C24.2681 2.70823 25.1019 1.87253 26.1332 1.87097H38.2666V21.5161H40.1332V1.87097H52.2666C53.2979 1.87253 54.1317 2.70978 54.1332 3.74194V50.5161C54.1317 51.5498 53.2963 52.3855 52.2666 52.3871H43.8666V54.2581H46.0895L47.6979 57.4824C47.8566 57.7989 48.1786 58 48.5332 58H51.3332C51.8481 58 52.2666 57.5806 52.2666 57.0645V54.2581C54.3277 54.2549 55.9968 52.582 55.9999 50.5161V3.74194C55.9968 1.67608 54.3277 0.00311828 52.2666 0ZM50.3999 56.129H49.1103L48.177 54.2581H50.3999V56.129Z" fill="#CAB48C"/>
<path d="M6.53307 19.6452H14.9331V21.5162H16.7997V19.6452H25.1997C25.4611 19.6452 25.71 19.5361 25.8857 19.3428C26.0631 19.151 26.1502 18.8922 26.13 18.6318L25.1966 7.40599C25.1562 6.92109 24.7517 6.54846 24.2664 6.54846H16.7997V4.67749H14.9331V6.54846H7.46641C6.98107 6.54846 6.57663 6.92109 6.53618 7.40599L5.60285 18.6318C5.58107 18.8922 5.66974 19.151 5.84707 19.3428C6.02285 19.5361 6.27174 19.6452 6.53307 19.6452ZM8.32507 8.41943H23.4077L24.1855 17.7743H7.5473L8.32507 8.41943Z" fill="#CAB48C"/>
</svg>
