<svg width="65" height="67" viewBox="0 0 65 67" fill="none" xmlns="http://www.w3.org/2000/svg">
<path d="M1.9428 66.975H14.3752C16.7562 66.975 18.8218 65.5827 19.821 63.5609C26.739 66.6034 32.7497 66.9999 39.6523 66.9999C40.8311 66.9999 42.0371 66.9881 43.2781 66.9763C44.6495 66.9632 46.0675 66.9501 47.554 66.9501H53.6965C57.0522 66.9501 59.7835 64.1864 59.7835 60.788C59.7835 59.6456 59.4745 58.5751 58.9368 57.6565C60.6857 56.573 61.8555 54.6206 61.8555 52.3973C61.8555 51.2549 61.5466 50.1844 61.0089 49.2658C62.7578 48.1823 63.9276 46.2299 63.9276 44.0066C63.9276 42.4062 63.3214 40.9471 62.3299 39.8505C63.364 38.746 64.0013 37.2542 64.0013 35.6159C64.0013 32.2188 61.2713 29.4537 57.9143 29.4537H55.8423H46.8793C48.5881 26.3222 49.4968 23.3648 49.4968 19.2833V18.6238V18.6225C49.4955 16.4266 48.6579 14.3551 47.1352 12.7914C45.6138 11.2276 43.5831 10.3482 41.4167 10.3142C41.396 10.3142 41.3753 10.3142 41.3546 10.3142C39.2541 10.3142 37.4173 12.0049 37.2454 14.1117C36.4233 24.1591 26.8593 29.3372 20.4621 32.487V31.448C20.4621 30.3619 19.5922 29.4812 18.5193 29.4812H1.9428C0.86993 29.4799 0 30.3592 0 31.4454V65.0082C0 66.0943 0.86993 66.975 1.9428 66.975ZM20.4867 36.842C20.6883 36.7426 20.8964 36.6418 21.1084 36.5384C24.4847 34.8896 29.1097 32.6323 33.0871 29.2142C37.9551 25.028 40.6566 20.0567 41.1168 14.4363C41.122 14.3695 41.2486 14.2465 41.3534 14.2465C41.3546 14.2465 41.3546 14.2465 41.3559 14.2465C43.7033 14.2832 45.6125 16.2474 45.6125 18.6251V19.2833C45.6125 23.3714 44.559 25.9584 42.3564 29.4537H39.2671C38.1942 29.4537 37.3243 30.3344 37.3243 31.4205C37.3243 32.5066 38.1942 33.3873 39.2671 33.3873H43.4254C43.428 33.3873 43.4293 33.3873 43.4319 33.3873H55.8449H57.9169C59.1307 33.3873 60.1182 34.3871 60.1182 35.6159C60.1182 36.8446 59.1307 37.8444 57.9169 37.8444H55.8449H53.7728C52.6999 37.8444 51.83 38.7251 51.83 39.8112C51.83 40.8974 52.6999 41.778 53.7728 41.778H55.8449H57.842C59.0557 41.778 60.0433 42.7778 60.0433 44.0066C60.0433 45.2353 59.0557 46.2351 57.842 46.2351H55.8449H55.7699H53.7728C52.6999 46.2351 51.83 47.1158 51.83 48.2019C51.83 49.2881 52.6999 50.1687 53.7728 50.1687H55.7699C56.9837 50.1687 57.9712 51.1685 57.9712 52.3973C57.9712 53.626 56.9837 54.6258 55.7699 54.6258H53.6952C52.6224 54.6258 51.7524 55.5065 51.7524 56.5926C51.7524 57.6788 52.6224 58.5594 53.6952 58.5594C54.909 58.5594 55.8966 59.5592 55.8966 60.788C55.8966 62.0167 54.909 63.0165 53.6952 63.0165H47.5527C46.0481 63.0165 44.6211 63.0296 43.2406 63.044C34.5813 63.1264 28.2191 63.1879 20.4867 59.554V36.842ZM3.8856 33.4122H16.5765V60.8128C16.5765 62.0416 15.5889 63.0414 14.3752 63.0414H12.1739V56.6175C12.1739 55.5314 11.3039 54.6507 10.2311 54.6507C9.15818 54.6507 8.28825 55.5314 8.28825 56.6175V63.0414H3.8856V33.4122Z" fill="#CAB48C"/>
<path d="M55.8168 18.4668H59.961C61.0338 18.4668 61.9038 17.5862 61.9038 16.5C61.9038 15.4139 61.0338 14.5332 59.961 14.5332H55.8168C54.744 14.5332 53.874 15.4139 53.874 16.5C53.874 17.5862 54.744 18.4668 55.8168 18.4668Z" fill="#CAB48C"/>
<path d="M26.808 18.4668H30.9522C32.025 18.4668 32.895 17.5862 32.895 16.5C32.895 15.4139 32.025 14.5332 30.9522 14.5332H26.808C25.7352 14.5332 24.8652 15.4139 24.8652 16.5C24.8652 17.5862 25.7352 18.4668 26.808 18.4668Z" fill="#CAB48C"/>
<path d="M35.4851 6.58333C35.8444 7.21407 36.4972 7.56739 37.1694 7.56739C37.499 7.56739 37.8325 7.48234 38.1388 7.30306C39.0682 6.75999 39.3862 5.55739 38.8498 4.61652L36.7777 0.983859C36.2413 0.0429805 35.0533 -0.278934 34.124 0.264133C33.1946 0.807199 32.8766 2.0098 33.413 2.95068L35.4851 6.58333Z" fill="#CAB48C"/>
<path d="M48.6286 7.30315C48.9349 7.48242 49.2684 7.56748 49.598 7.56748C50.2689 7.56748 50.9229 7.21416 51.2823 6.58342L53.3544 2.94946C53.8908 2.00858 53.5728 0.805979 52.6434 0.262912C51.714 -0.280154 50.5261 0.0417598 49.9897 0.982639L47.9176 4.6166C47.3812 5.55748 47.7005 6.76008 48.6286 7.30315Z" fill="#CAB48C"/>
</svg>
