<svg width="60" height="61" viewBox="0 0 60 61" fill="none" xmlns="http://www.w3.org/2000/svg">
<path d="M59.858 41.6297C59.8439 41.0359 59.3877 40.5484 58.7971 40.4969C56.0314 40.2547 52.6268 38.3969 50.1252 35.7641C49.9049 35.5328 49.6002 35.4016 49.283 35.4016C48.9658 35.4016 48.6596 35.5328 48.4408 35.7625C47.3174 36.9438 46.0143 37.9672 44.6689 38.7594C42.308 36.125 39.4033 34.1828 35.9971 32.9609C35.9674 32.95 35.9377 32.9391 35.9064 32.9297C35.6408 32.8359 35.3736 32.7453 35.1018 32.6609C37.9814 29.7891 39.9189 26.0141 39.9189 22.6281V20.8016C41.2814 20.2094 42.2346 18.85 42.2346 17.2719C42.2346 15.6328 41.2018 14.2313 39.7549 13.6781C39.1564 7.87656 35.0705 2.99844 29.4549 1.38438C29.2893 0.595312 28.5877 0 27.7486 0H23.5346C22.7252 0 22.0455 0.554688 21.8486 1.30313C19.0861 2.03906 16.5643 3.61094 14.6721 5.79844C12.7533 8.01563 11.5596 10.7875 11.2564 13.6797C9.80801 14.2328 8.7752 15.6328 8.7752 17.2719C8.7752 18.8516 9.73145 20.2094 11.0939 20.8016V22.6281C11.0939 26.0109 13.0314 29.7875 15.9111 32.6609C15.6471 32.7438 15.3861 32.8297 15.1299 32.9203C15.0783 32.9344 15.0299 32.9531 14.9814 32.9734C11.1705 34.3484 7.9877 36.625 5.49551 39.7672C3.09863 42.7906 1.39551 46.5234 0.431448 50.8641C0.0876981 52.4156 -0.168552 54.3641 0.887698 55.6813C1.92051 56.9672 3.77051 57.1328 5.26426 57.1328H12.8705C13.5127 57.1328 14.033 56.6125 14.033 55.9703C14.033 55.3281 13.5127 54.8078 12.8705 54.8078H5.26582C3.8752 54.8078 3.0127 54.6125 2.70176 54.225C2.37364 53.8156 2.37364 52.8547 2.70176 51.3672C3.90957 45.9234 6.86426 39.2641 13.983 35.9C13.7643 39.8281 15.8924 42.3953 17.2455 44.025C17.4518 44.275 17.7549 44.4266 18.0783 44.4438C18.4018 44.4609 18.7189 44.3422 18.9518 44.1172L25.5049 37.7438L32.0611 44.1172C32.2783 44.3281 32.5689 44.4469 32.8721 44.4469C32.8924 44.4469 32.9143 44.4469 32.9346 44.4453C33.258 44.4281 33.5596 44.2766 33.7674 44.0266C35.1189 42.3953 37.2439 39.8266 37.0268 35.9078C39.0924 36.8875 40.9158 38.1984 42.4861 39.8297C41.5486 40.1922 40.6283 40.4234 39.7689 40.4984C39.1783 40.55 38.7221 41.0375 38.708 41.6297C38.6111 45.7875 39.3033 48.7656 41.1783 52.2516C41.1939 52.2813 41.8283 53.4172 42.8143 54.8094H23.3986C22.7564 54.8094 22.2361 55.3297 22.2361 55.9719C22.2361 56.6141 22.7564 57.1344 23.3986 57.1344H44.6596C46.0611 58.6828 47.7143 60.0016 49.283 60.0016C53.0658 60.0016 57.3471 52.3281 57.3877 52.2516C59.2596 48.7641 59.9518 45.7859 59.858 41.6297ZM37.383 13.4281H30.9814C29.7721 10.2688 29.5439 7.6625 29.5018 3.83906C33.6955 5.32188 36.7439 9.02188 37.383 13.4281ZM24.1158 2.325H27.1674C27.1752 6.825 27.2877 9.87344 28.5064 13.4281H22.7783C23.9939 9.875 24.108 6.825 24.1158 2.325ZM21.783 3.74688C21.7439 7.62188 21.5221 10.2422 20.3049 13.4281H13.6314C14.2939 8.96563 17.5033 5.16406 21.783 3.74688ZM12.6221 15.7531H20.4002C20.4689 15.8094 20.5346 15.8156 20.5908 15.7531H38.3908C39.2283 15.7531 39.9096 16.4344 39.9096 17.2719C39.9096 18.1109 39.2283 18.7938 38.3908 18.7938H12.6221C11.783 18.7938 11.1002 18.1109 11.1002 17.2719C11.1002 16.4344 11.783 15.7531 12.6221 15.7531ZM13.4205 22.6281V21.1188H37.5939V22.6281C37.5939 27.0609 33.2986 32.5438 28.4033 34.3609C26.2611 35.1578 24.7408 35.1563 22.5924 34.3594C17.7064 32.5328 13.4205 27.0516 13.4205 22.6281ZM18.2455 41.5609C17.0424 39.9906 15.883 37.9266 16.4408 34.9328C16.9533 34.7672 17.483 34.6156 18.033 34.4828C19.2049 35.3422 20.4689 36.0484 21.7814 36.5375C22.2033 36.6938 22.6096 36.8234 23.0064 36.9313L18.2455 41.5609ZM32.7674 41.5594L28.0049 36.9297C28.3971 36.8234 28.7971 36.6953 29.2143 36.5406C30.5314 36.0516 31.8018 35.3438 32.9799 34.4813C33.5236 34.6125 34.0533 34.7625 34.5721 34.9297C35.1283 37.9219 33.9705 39.9859 32.7674 41.5594ZM55.3393 51.15C53.9643 53.7172 50.7439 57.6734 49.283 57.6734C47.8221 57.6734 44.6018 53.7156 43.2252 51.1484C41.6893 48.2906 41.058 45.9078 41.0236 42.6641C42.2783 42.425 43.583 41.9578 44.8674 41.3031C44.9127 41.2828 44.9564 41.2609 45.0002 41.2344C46.4986 40.4547 47.9658 39.4234 49.2814 38.1984C51.758 40.5094 54.7721 42.1375 57.5393 42.6641C57.5033 45.9094 56.8721 48.2938 55.3393 51.15Z" fill="#CAB48C"/>
</svg>
