<svg width="17" height="30" viewBox="0 0 17 30" fill="none" xmlns="http://www.w3.org/2000/svg">
<path d="M13.3389 29.5207C13.6365 29.8299 14.034 30 14.4581 30C14.8821 30 15.2797 29.8299 15.5773 29.5207L16.526 28.5378C17.1429 27.8976 17.1429 26.8562 16.526 26.2172L5.71254 15.0064L16.5377 3.78346C16.8353 3.47432 17 3.06274 17 2.62312C17 2.18349 16.8353 1.77131 16.5377 1.46217L15.5897 0.47926C15.2915 0.170118 14.8945 1.8407e-07 14.4704 2.21141e-07C14.0464 2.58212e-07 13.6488 0.170119 13.3512 0.47926L0.461687 13.8418C0.162915 14.1515 -0.000583248 14.5656 4.25872e-06 15.0058C-0.00117253 15.4472 0.162915 15.8613 0.461688 16.171L13.3389 29.5207Z"/>
</svg>
