<svg width="32" height="31" viewBox="0 0 32 31" fill="none" xmlns="http://www.w3.org/2000/svg">
<path d="M16.2041 2.9588C20.3126 2.9588 20.8005 2.97164 22.4311 3.04868C26.6038 3.24127 28.5554 5.21849 28.748 9.36554C28.825 10.9961 28.8378 11.4712 28.8378 15.5925C28.8378 19.7139 28.825 20.1889 28.748 21.8195C28.5554 25.9666 26.6167 27.9438 22.4311 28.1364C20.8005 28.2134 20.3255 28.2263 16.2041 28.2263C12.0956 28.2263 11.6077 28.2134 9.97711 28.1364C5.79155 27.9438 3.85284 25.9537 3.66025 21.8195C3.58321 20.1889 3.57038 19.7139 3.57038 15.5925C3.57038 11.484 3.58321 10.9961 3.66025 9.36554C3.85284 5.21849 5.80439 3.24127 9.97711 3.04868C11.6077 2.97164 12.0956 2.9588 16.2041 2.9588ZM16.2041 0.185547C12.0185 0.185547 11.4921 0.198386 9.84872 0.275421C4.25085 0.532204 1.14378 3.63928 0.886993 9.23715C0.809958 10.8806 0.797119 11.407 0.797119 15.5925C0.797119 19.7781 0.809958 20.3045 0.886993 21.9479C1.14378 27.5458 4.25085 30.6529 9.84872 30.9096C11.4921 30.9867 12.0185 30.9995 16.2041 30.9995C20.3897 30.9995 20.9161 30.9867 22.5595 30.9096C28.1445 30.6529 31.2644 27.5458 31.5212 21.9479C31.5982 20.3045 31.6111 19.7781 31.6111 15.5925C31.6111 11.407 31.5982 10.8806 31.5212 9.23715C31.2644 3.65212 28.1574 0.532204 22.5595 0.275421C20.9161 0.198386 20.3897 0.185547 16.2041 0.185547ZM16.2041 7.68361C11.8388 7.68361 8.29518 11.2272 8.29518 15.5925C8.29518 19.9578 11.8388 23.5014 16.2041 23.5014C20.5694 23.5014 24.113 19.9578 24.113 15.5925C24.113 11.2272 20.5694 7.68361 16.2041 7.68361ZM16.2041 20.7282C13.3666 20.7282 11.0684 18.43 11.0684 15.5925C11.0684 12.7551 13.3666 10.4569 16.2041 10.4569C19.0416 10.4569 21.3398 12.7551 21.3398 15.5925C21.3398 18.43 19.0416 20.7282 16.2041 20.7282ZM24.434 5.51379C23.4069 5.51379 22.5852 6.3355 22.5852 7.36263C22.5852 8.38976 23.4069 9.21147 24.434 9.21147C25.4483 9.21147 26.2828 8.38976 26.2828 7.36263C26.2828 6.3355 25.4483 5.51379 24.434 5.51379Z" />
</svg>
