<svg width="28" height="30" viewBox="0 0 28 30" fill="none" xmlns="http://www.w3.org/2000/svg">
<path d="M3.29791 1.65022C3.33609 1.63771 6.91234 0 6.91234 0L12.054 9.86379L8.59229 11.539C7.90504 13.1142 11.3413 19.4025 12.7922 19.5025C12.9067 19.4275 16.1902 17.8398 16.1902 17.8398L21.421 27.7536C21.421 27.7536 17.9084 29.4413 17.7938 29.5038C7.77777 33.9919 -6.52724 6.68837 3.29791 1.65022ZM5.7542 3.25042C5.14331 3.55046 4.49424 3.863 4.45606 3.8755C-2.27646 7.32595 9.77589 30.354 16.7375 27.2411C16.8266 27.2035 17.412 26.9285 17.972 26.6535L15.083 21.1778C14.4721 21.4778 13.8358 21.7778 13.7721 21.8028C9.75044 23.7406 3.25973 11.5265 7.34506 9.37622L8.63047 8.75114L5.7542 3.25042ZM15.7193 12.8017L19.4356 13.8893C19.7156 12.9517 19.6392 11.9141 19.1302 10.9889C18.6211 10.0638 17.7811 9.42623 16.8266 9.15119L15.7193 12.8017ZM18.0229 5.23818C19.9956 5.81326 21.7519 7.13843 22.8082 9.05118C23.8646 10.9764 24.03 13.1267 23.4446 15.0645L21.1537 14.3894C21.5737 13.0267 21.4464 11.5015 20.7083 10.1513C19.9701 8.80115 18.7356 7.87603 17.3484 7.46347L18.0229 5.23818ZM19.232 1.25016C22.2482 2.13778 24.9082 4.13804 26.5245 7.07592C28.1281 10.0013 28.3826 13.2892 27.4917 16.2521L25.15 15.5645C25.8627 13.2017 25.6718 10.5514 24.3736 8.21357C23.0755 5.86326 20.9374 4.26306 18.532 3.55046L19.232 1.25016Z" fill="#CAB48C"/>
</svg>
