<svg width="29" height="29" viewBox="0 0 29 29" fill="none" xmlns="http://www.w3.org/2000/svg">
<path d="M17.43 26.5C17.1907 26.5604 16.9476 26.6138 16.7053 26.6585C16.0725 26.777 15.6541 27.3901 15.7718 28.0274C15.8294 28.3414 16.0063 28.6028 16.2463 28.7731C16.4941 28.9481 16.8089 29.0274 17.13 28.9677C17.4183 28.9144 17.7089 28.8508 17.9933 28.7786C18.6183 28.6216 18.9985 27.9842 18.8427 27.3555C18.6876 26.7268 18.0557 26.3438 17.43 26.5Z" fill="#CAB48C"/>
<path d="M26.0512 10.7602C26.133 11.0082 26.2888 11.2107 26.486 11.3505C26.7782 11.5577 27.16 11.6275 27.5247 11.5059C28.1356 11.301 28.4676 10.6377 28.265 10.0216C28.173 9.74138 28.0702 9.4596 27.9619 9.18566C27.7226 8.58363 27.0447 8.29008 26.4462 8.53104C25.8486 8.77201 25.5579 9.45489 25.7971 10.0577C25.8883 10.2885 25.974 10.5247 26.0512 10.7602Z" fill="#CAB48C"/>
<path d="M21.2182 24.8235C21.0125 24.9601 20.8006 25.0927 20.5863 25.2168C20.0283 25.5409 19.8374 26.2591 20.1593 26.8211C20.2465 26.9734 20.3626 27.0982 20.4967 27.1939C20.8559 27.449 21.3445 27.4867 21.7512 27.2512C22.0052 27.1037 22.2585 26.9467 22.5032 26.7834C23.04 26.4263 23.1881 25.6971 22.8328 25.1563C22.4782 24.6147 21.7551 24.4656 21.2182 24.8235Z" fill="#CAB48C"/>
<path d="M28.989 14.0403C28.9641 13.392 28.4217 12.8873 27.7781 12.9132C27.1352 12.9383 26.6342 13.4846 26.6591 14.1329C26.6692 14.381 26.6716 14.6322 26.6661 14.8794C26.6568 15.286 26.8539 15.6486 27.1609 15.866C27.3433 15.9956 27.5653 16.074 27.8061 16.0795C28.4498 16.0937 28.9828 15.5795 28.9968 14.9312C29.003 14.6345 28.9999 14.3355 28.989 14.0403Z" fill="#CAB48C"/>
<path d="M25.8607 21.7341C25.3449 21.344 24.6147 21.4499 24.2282 21.9688C24.0802 22.1673 23.9243 22.3636 23.7646 22.5527C23.3477 23.0464 23.4069 23.7874 23.8963 24.2081C23.9243 24.2317 23.9524 24.2536 23.982 24.274C24.469 24.6202 25.1461 24.5401 25.5397 24.0747C25.7298 23.8494 25.916 23.6147 26.0929 23.3777C26.4794 22.8596 26.375 22.1234 25.8607 21.7341Z" fill="#CAB48C"/>
<path d="M27.5739 17.4892C26.9599 17.2953 26.3053 17.6399 26.1128 18.2584C26.0388 18.4947 25.9578 18.7325 25.8689 18.9648C25.6757 19.4766 25.8611 20.0401 26.2858 20.3423C26.3637 20.3973 26.4502 20.4444 26.543 20.4797C27.1445 20.7112 27.8178 20.4067 28.0469 19.8008C28.1513 19.5245 28.2487 19.2411 28.3368 18.9601C28.53 18.3424 28.1879 17.6831 27.5739 17.4892Z" fill="#CAB48C"/>
<path d="M12.3421 26.669C11.2995 26.4806 10.2997 26.1596 9.3522 25.7114C9.34129 25.7051 9.33116 25.6988 9.31947 25.6933C9.09583 25.5874 8.87298 25.4736 8.65713 25.3558C8.65635 25.355 8.65479 25.3542 8.65401 25.3535C8.25738 25.1337 7.87011 24.8904 7.49374 24.6235C2.00875 20.7327 0.690294 13.0727 4.55371 7.54849C5.39372 6.34836 6.41061 5.34603 7.54361 4.55248C7.55764 4.54306 7.57166 4.53286 7.58569 4.52266C11.5792 1.75034 17.0027 1.56432 21.2432 4.41198L20.3323 5.7377C20.0791 6.10661 20.2349 6.37583 20.6783 6.33502L24.6344 5.97788C25.0786 5.93785 25.3435 5.55089 25.2243 5.11919L24.1614 1.2637C24.043 0.83121 23.7383 0.779406 23.4843 1.14831L22.5718 2.47717C19.4604 0.373606 15.7271 -0.428575 12.0226 0.218193C11.6494 0.283341 11.2816 0.362617 10.9185 0.455237C10.9161 0.456021 10.913 0.456021 10.9114 0.456806C10.8974 0.459946 10.8834 0.464655 10.8694 0.46858C7.67452 1.29509 4.88722 3.17182 2.89785 5.84994C2.88071 5.86957 2.86356 5.88919 2.84798 5.91117C2.78174 6.00065 2.71629 6.09248 2.65161 6.18432C2.54642 6.33502 2.44278 6.48886 2.34382 6.64349C2.33135 6.66233 2.322 6.68117 2.31109 6.7C0.670034 9.26274 -0.121663 12.2242 0.0139229 15.2399C0.0139229 15.2501 0.0139229 15.2595 0.0139229 15.2697C0.0271698 15.564 0.0497674 15.8631 0.0817158 16.1574C0.0832743 16.1763 0.0871704 16.1943 0.0910665 16.2131C0.123015 16.5083 0.164314 16.805 0.215743 17.1017C0.735489 20.1236 2.15135 22.8441 4.27241 24.9602C4.27708 24.9649 4.28254 24.9704 4.28721 24.9759C4.28877 24.9783 4.29111 24.9791 4.29267 24.9806C4.86228 25.5465 5.48255 26.0709 6.14957 26.5442C7.8966 27.7843 9.84156 28.603 11.9299 28.9813C12.5642 29.0959 13.1696 28.6713 13.2826 28.0331C13.3972 27.3942 12.9756 26.7836 12.3421 26.669Z" fill="#CAB48C"/>
<path d="M13.785 5.11829C13.2637 5.11829 12.8413 5.54449 12.8413 6.06803V15.5341L21.4362 20.0096C21.5741 20.0819 21.723 20.1164 21.8679 20.1164C22.2092 20.1164 22.5388 19.9288 22.7071 19.6023C22.9464 19.136 22.7656 18.5631 22.302 18.3229L14.727 14.3787V6.06803C14.727 5.54371 14.3055 5.11829 13.785 5.11829Z" fill="#CAB48C"/>
</svg>
