<svg width="31" height="31" viewBox="0 0 31 31" fill="none" xmlns="http://www.w3.org/2000/svg">
<path d="M15.407 2.75338C22.4814 2.75338 28.2461 8.51816 28.2461 15.5925C28.2461 22.6669 22.4814 28.4317 15.407 28.4317C8.33261 28.4317 2.56783 22.6669 2.56783 15.5925C2.56783 8.51816 8.33261 2.75338 15.407 2.75338ZM15.407 0.185547C6.89462 0.185547 0 7.08017 0 15.5925C0 24.1049 6.89462 30.9995 15.407 30.9995C23.9193 30.9995 30.814 24.1049 30.814 15.5925C30.814 7.08017 23.9193 0.185547 15.407 0.185547ZM16.1517 20.7282C16.5368 20.7282 16.7037 20.4714 16.6909 20.1376C16.6652 18.905 17.1531 18.2502 18.0133 19.1105C18.9634 20.0606 19.1689 20.7282 20.3244 20.7282C20.7609 20.7282 21.955 20.7282 22.3786 20.7282C22.8922 20.7282 23.0976 20.5613 23.0976 20.3045C23.0976 19.7524 22.1861 18.7766 21.4157 18.0576C20.3372 17.0562 20.2859 17.0305 21.2103 15.8236C22.3658 14.3215 23.8808 12.3956 22.5455 12.3956C22.2888 12.3956 22.4685 12.3956 19.9906 12.3956C19.4898 12.3956 19.4642 12.678 19.2844 13.0889C18.6424 14.5911 17.4356 16.5426 16.9734 16.2473C16.4855 15.9392 16.7166 14.7066 16.7551 12.8706C16.7679 12.3827 16.7679 12.0489 16.0233 11.882C15.6124 11.7793 15.2272 11.7408 14.8677 11.7408C13.4041 11.7408 12.4026 12.3571 12.9675 12.4598C13.9818 12.6524 13.8791 14.835 13.648 15.7723C13.2372 17.4157 11.6965 14.4755 11.0545 13.0119C10.9004 12.6524 10.8491 12.3827 10.297 12.3827C9.98886 12.3827 8.65359 12.3827 8.20422 12.3827C7.89608 12.3827 7.70349 12.4855 7.70349 12.7166C7.70349 13.1017 9.60369 17.0305 11.414 18.9821C13.1858 20.8951 14.9319 20.7282 16.1517 20.7282Z"/>
</svg>
