<svg width="61" height="75" viewBox="0 0 61 75" fill="none" xmlns="http://www.w3.org/2000/svg">
<path d="M15.2496 47.8384H13.7246V50.9247H15.2496C16.0903 50.9247 16.7746 50.2322 16.7746 49.3815C16.7746 48.5309 16.0903 47.8384 15.2496 47.8384Z" fill="#16446B"/>
<path d="M31.2621 47.8384H28.9746V57.0973H31.2621C31.6834 57.0973 32.0246 56.752 32.0246 56.3257V48.61C32.0246 48.1837 31.6834 47.8384 31.2621 47.8384Z" fill="#16446B"/>
<path d="M52.6125 0H8.3875C3.76103 0 0 3.80581 0 8.48735V65.5841C0 70.2656 3.76103 74.0714 8.3875 74.0714H52.6125C57.239 74.0714 61 70.2656 61 65.5841V8.48735C61 3.80581 57.239 0 52.6125 0ZM15.25 55.5536H13.725V59.4115C13.725 60.6903 12.6994 61.7262 11.4375 61.7262C10.1756 61.7262 9.15 60.6884 9.15 59.4115V45.5231C9.15 44.2461 10.1756 43.2083 11.4375 43.2083H15.25C18.6145 43.2083 21.35 45.9764 21.35 49.381C21.35 52.7855 18.6145 55.5536 15.25 55.5536ZM36.6 56.3252C36.6 59.3034 34.2057 61.7262 31.2625 61.7262H26.6875C25.4256 61.7262 24.4 60.6884 24.4 59.4115V45.5231C24.4 44.2461 25.4256 43.2083 26.6875 43.2083H31.2625C34.2057 43.2083 36.6 45.6311 36.6 48.6094V56.3252ZM49.5625 50.9241C50.8244 50.9241 51.85 51.9619 51.85 53.2388C51.85 54.5158 50.8244 55.5536 49.5625 55.5536H44.225V59.4115C44.225 60.6903 43.1994 61.7262 41.9375 61.7262C40.6756 61.7262 39.65 60.6884 39.65 59.4115V48.6094C39.65 45.6311 42.0443 43.2083 44.9875 43.2083H49.5625C50.8244 43.2083 51.85 44.2461 51.85 45.5231C51.85 46.802 50.8244 47.8378 49.5625 47.8378H44.9875C44.5662 47.8378 44.225 48.1831 44.225 48.6094V50.9241H49.5625Z" fill="#16446B"/>
</svg>
